<?xml version="1.0" encoding="UTF-8"?>
<svg id="SvgjsSvg1004" xmlns="http://www.w3.org/2000/svg" viewBox="0 0 1846.65 550">
  <rect y="500" width="125" height="50" style="fill: #0ac18e;"/>
  <rect width="50" height="550" style="fill: #0ac18e;"/>
  <rect x="500.3" width="50" height="550" style="fill: #0ac18e;"/>
  <rect x="150" y="500" width="400.3" height="50" style="fill: #0ac18e;"/>
  <rect x="150" y="425" width="325.2" height="50" style="fill: #777;"/>
  <rect x="150" y="470.9" width="50" height="29.1" style="fill: #777;"/>
  <rect x="4.1" width="546.2" height="50" style="fill: #0ac18e;"/>
  <rect x="425.2" y="299" width="50" height="133.2" style="fill: #777;"/>
  <rect x="150" y="75" width="325.2" height="50" style="fill: #777;"/>
  <rect x="150" y="258.3" width="325.2" height="50" style="fill: #777;"/>
  <rect x="150" y="123" width="50" height="139.6" style="fill: #777;"/>
  <rect x="75" y="100" width="50" height="409.8" style="fill: #0ac18e;"/>
  <rect x="400.2" y="100" width="50" height="349.2" style="fill: #0ac18e;"/>
  <rect x="161.04" y="85.22" width="50" height="222" transform="translate(-84.26 189.03) rotate(-45)" style="fill: #0ac18e;"/>
  <rect x="209.36" y="179.23" width="244.6" height="50" transform="translate(-47.27 294.33) rotate(-45)" style="fill: #0ac18e;"/>
  <g>
    <g style="isolation: isolate;">
      <g style="isolation: isolate;">
        <path d="M653.74,166.76c0-7.68-.99-13.12-2.96-16.32-1.98-3.2-5.36-4.8-10.16-4.8-1.49,0-3.04.08-4.64.24-1.6.16-3.15.35-4.64.56v64.96h-23.84v-81.28c2.02-.53,4.4-1.09,7.12-1.68,2.72-.58,5.6-1.12,8.64-1.6,3.04-.48,6.16-.85,9.36-1.12,3.2-.27,6.35-.4,9.44-.4,6.08,0,11.01.78,14.8,2.32,3.79,1.55,6.9,3.39,9.36,5.52,3.41-2.45,7.33-4.37,11.76-5.76,4.42-1.38,8.5-2.08,12.24-2.08,6.72,0,12.24.94,16.56,2.8,4.32,1.87,7.76,4.51,10.32,7.92,2.56,3.42,4.32,7.47,5.28,12.16.96,4.7,1.44,9.92,1.44,15.68v47.52h-23.84v-44.64c0-7.68-.99-13.12-2.96-16.32-1.98-3.2-5.36-4.8-10.16-4.8-1.28,0-3.07.32-5.36.96-2.3.64-4.19,1.44-5.68,2.4.75,2.46,1.23,5.04,1.44,7.76.21,2.72.32,5.63.32,8.72v45.92h-23.84v-44.64Z" style="fill: #0ac18e;"/>
        <path d="M771.5,102.92c0,4.38-1.41,7.82-4.24,10.32-2.83,2.51-6.16,3.76-10,3.76s-7.17-1.25-10-3.76c-2.83-2.5-4.24-5.95-4.24-10.32s1.41-7.81,4.24-10.32c2.83-2.5,6.16-3.76,10-3.76s7.17,1.25,10,3.76c2.83,2.51,4.24,5.95,4.24,10.32ZM769.26,211.4h-23.84v-84.16h23.84v84.16Z" style="fill: #0ac18e;"/>
        <path d="M791.66,130.12c4.05-1.17,9.28-2.26,15.68-3.28,6.4-1.01,13.12-1.52,20.16-1.52s13.09.94,17.84,2.8c4.75,1.87,8.5,4.51,11.28,7.92,2.77,3.42,4.74,7.47,5.92,12.16,1.17,4.7,1.76,9.92,1.76,15.68v47.52h-23.84v-44.64c0-7.68-1.02-13.12-3.04-16.32-2.03-3.2-5.81-4.8-11.36-4.8-1.71,0-3.52.08-5.44.24-1.92.16-3.63.35-5.12.56v64.96h-23.84v-81.28Z" style="fill: #0ac18e;"/>
        <path d="M911.98,102.92c0,4.38-1.41,7.82-4.24,10.32-2.83,2.51-6.16,3.76-10,3.76s-7.17-1.25-10-3.76c-2.83-2.5-4.24-5.95-4.24-10.32s1.41-7.81,4.24-10.32c2.83-2.5,6.16-3.76,10-3.76s7.17,1.25,10,3.76c2.83,2.51,4.24,5.95,4.24,10.32ZM909.74,211.4h-23.84v-84.16h23.84v84.16Z" style="fill: #0ac18e;"/>
        <path d="M956.29,194.28c4.37,0,7.46-.42,9.28-1.28,1.81-.85,2.72-2.5,2.72-4.96,0-1.92-1.18-3.6-3.52-5.04-2.35-1.44-5.92-3.06-10.72-4.88-3.74-1.38-7.12-2.83-10.16-4.32-3.04-1.49-5.63-3.28-7.76-5.36-2.13-2.08-3.79-4.56-4.96-7.44-1.17-2.88-1.76-6.34-1.76-10.4,0-7.89,2.93-14.13,8.8-18.72,5.87-4.59,13.92-6.88,24.16-6.88,5.12,0,10.02.46,14.72,1.36,4.69.91,8.42,1.9,11.2,2.96l-4.16,18.56c-2.78-.96-5.79-1.81-9.04-2.56-3.25-.75-6.91-1.12-10.96-1.12-7.47,0-11.2,2.08-11.2,6.24,0,.96.16,1.82.48,2.56.32.75.96,1.47,1.92,2.16.96.7,2.27,1.45,3.92,2.25,1.65.81,3.76,1.7,6.32,2.66,5.23,1.94,9.54,3.85,12.96,5.73,3.41,1.88,6.1,3.92,8.08,6.09,1.97,2.18,3.36,4.61,4.16,7.27s1.2,5.75,1.2,9.26c0,8.3-3.12,14.58-9.36,18.84-6.24,4.25-15.07,6.38-26.48,6.38-7.47,0-13.68-.64-18.64-1.92-4.96-1.28-8.4-2.35-10.32-3.2l4-19.36c4.05,1.6,8.21,2.86,12.48,3.76,4.27.91,8.48,1.36,12.64,1.36Z" style="fill: #0ac18e;"/>
        <path d="M1039.97,125c7.04,0,12.9.8,17.6,2.4,4.69,1.6,8.45,3.89,11.28,6.88,2.82,2.99,4.82,6.62,6,10.88,1.17,4.27,1.76,9.02,1.76,14.24v49.6c-3.42.75-8.16,1.63-14.24,2.64s-13.44,1.52-22.08,1.52c-5.44,0-10.38-.48-14.8-1.44-4.43-.96-8.24-2.53-11.44-4.72-3.2-2.18-5.65-5.04-7.36-8.56-1.71-3.52-2.56-7.84-2.56-12.96s.99-9.07,2.96-12.48c1.97-3.41,4.61-6.13,7.92-8.16,3.3-2.03,7.09-3.49,11.36-4.4,4.27-.91,8.69-1.36,13.28-1.36,3.09,0,5.84.14,8.24.4,2.4.27,4.34.62,5.84,1.04v-2.24c0-4.05-1.23-7.3-3.68-9.76-2.45-2.45-6.72-3.68-12.8-3.68-4.05,0-8.05.29-12,.88-3.95.59-7.36,1.42-10.24,2.48l-3.04-19.2c1.38-.42,3.12-.88,5.2-1.36,2.08-.48,4.35-.91,6.8-1.28,2.45-.37,5.04-.69,7.76-.96,2.72-.26,5.46-.4,8.24-.4ZM1041.89,194.76c2.34,0,4.58-.05,6.72-.16,2.13-.11,3.84-.27,5.12-.48v-18.08c-.96-.21-2.4-.42-4.32-.64-1.92-.21-3.68-.32-5.28-.32-2.24,0-4.35.14-6.32.4-1.98.27-3.71.78-5.2,1.52-1.5.75-2.67,1.76-3.52,3.04-.85,1.28-1.28,2.88-1.28,4.8,0,3.73,1.25,6.32,3.76,7.76,2.5,1.44,5.95,2.16,10.32,2.16Z" style="fill: #0ac18e;"/>
        <path d="M1097.41,106.28l23.84-3.84v24.8h28.64v19.84h-28.64v29.6c0,5.01.88,9.01,2.64,12,1.76,2.99,5.3,4.48,10.64,4.48,2.56,0,5.2-.24,7.92-.72,2.72-.48,5.2-1.15,7.44-2l3.36,18.56c-2.88,1.18-6.08,2.19-9.6,3.04-3.52.85-7.84,1.28-12.96,1.28-6.51,0-11.89-.88-16.16-2.64-4.27-1.76-7.68-4.21-10.24-7.36-2.56-3.14-4.35-6.96-5.36-11.44-1.01-4.48-1.52-9.44-1.52-14.88v-70.72Z" style="fill: #0ac18e;"/>
        <path d="M1244.77,169.16c0,6.62-.96,12.67-2.88,18.16-1.92,5.5-4.7,10.19-8.32,14.08-3.63,3.89-7.97,6.91-13.04,9.04-5.07,2.13-10.75,3.2-17.04,3.2s-11.81-1.07-16.88-3.2c-5.07-2.13-9.42-5.15-13.04-9.04-3.63-3.89-6.46-8.58-8.48-14.08-2.03-5.49-3.04-11.54-3.04-18.16s1.04-12.64,3.12-18.08c2.08-5.44,4.96-10.08,8.64-13.92s8.05-6.83,13.12-8.96c5.06-2.13,10.58-3.2,16.56-3.2s11.65,1.07,16.72,3.2c5.06,2.13,9.41,5.12,13.04,8.96,3.62,3.84,6.45,8.48,8.48,13.92,2.03,5.44,3.04,11.47,3.04,18.08ZM1220.45,169.16c0-7.36-1.47-13.14-4.4-17.36-2.94-4.21-7.12-6.32-12.56-6.32s-9.65,2.11-12.64,6.32c-2.99,4.21-4.48,10-4.48,17.36s1.49,13.2,4.48,17.52c2.99,4.32,7.2,6.48,12.64,6.48s9.62-2.16,12.56-6.48c2.93-4.32,4.4-10.16,4.4-17.52Z" style="fill: #0ac18e;"/>
        <path d="M1287.33,194.28c4.37,0,7.46-.42,9.28-1.28,1.81-.85,2.72-2.5,2.72-4.96,0-1.92-1.18-3.6-3.52-5.04-2.35-1.44-5.92-3.06-10.72-4.88-3.74-1.38-7.12-2.83-10.16-4.32-3.04-1.49-5.63-3.28-7.76-5.36-2.13-2.08-3.79-4.56-4.96-7.44-1.17-2.88-1.76-6.34-1.76-10.4,0-7.89,2.93-14.13,8.8-18.72,5.86-4.59,13.92-6.88,24.16-6.88,5.12,0,10.02.46,14.72,1.36,4.69.91,8.42,1.9,11.2,2.96l-4.16,18.56c-2.78-.96-5.79-1.81-9.04-2.56-3.25-.75-6.91-1.12-10.96-1.12-7.47,0-11.2,2.08-11.2,6.24,0,.96.16,1.82.48,2.56.32.75.96,1.47,1.92,2.16.96.7,2.26,1.45,3.92,2.25,1.65.81,3.76,1.7,6.32,2.66,5.23,1.94,9.54,3.85,12.96,5.73,3.41,1.88,6.11,3.92,8.08,6.09,1.97,2.18,3.36,4.61,4.16,7.27s1.2,5.75,1.2,9.26c0,8.3-3.12,14.58-9.36,18.84-6.24,4.25-15.07,6.38-26.48,6.38-7.47,0-13.68-.64-18.64-1.92-4.96-1.28-8.4-2.35-10.32-3.2l4-19.36c4.05,1.6,8.21,2.86,12.48,3.76,4.27.91,8.48,1.36,12.64,1.36Z" style="fill: #0ac18e;"/>
        <path d="M1340.77,211.4v-120.32l23.84-3.84v40.32c1.6-.53,3.65-1.04,6.16-1.52,2.5-.48,4.93-.72,7.28-.72,6.82,0,12.5.94,17.04,2.8,4.53,1.87,8.16,4.51,10.88,7.92,2.72,3.42,4.64,7.47,5.76,12.16,1.12,4.7,1.68,9.92,1.68,15.68v47.52h-23.84v-44.64c0-7.68-.99-13.12-2.96-16.32-1.97-3.2-5.63-4.8-10.96-4.8-2.13,0-4.13.19-6,.56-1.87.38-3.55.78-5.04,1.2v64h-23.84Z" style="fill: #0ac18e;"/>
        <path d="M1461.09,102.92c0,4.38-1.42,7.82-4.24,10.32-2.83,2.51-6.16,3.76-10,3.76s-7.17-1.25-10-3.76c-2.83-2.5-4.24-5.95-4.24-10.32s1.41-7.81,4.24-10.32c2.83-2.5,6.16-3.76,10-3.76s7.17,1.25,10,3.76c2.83,2.51,4.24,5.95,4.24,10.32ZM1458.84,211.4h-23.84v-84.16h23.84v84.16Z" style="fill: #0ac18e;"/>
        <path d="M1504.6,198.76c0,4.8-1.52,8.46-4.56,10.96s-6.48,3.76-10.32,3.76-7.28-1.25-10.32-3.76-4.56-6.16-4.56-10.96,1.52-8.45,4.56-10.96c3.04-2.51,6.48-3.76,10.32-3.76s7.28,1.25,10.32,3.76c3.04,2.51,4.56,6.16,4.56,10.96Z" style="fill: #0ac18e;"/>
        <path d="M1511.8,169.32c0-6.08.98-11.81,2.96-17.2,1.97-5.38,4.83-10.08,8.56-14.08,3.73-4,8.27-7.17,13.6-9.52,5.33-2.34,11.41-3.52,18.24-3.52,4.48,0,8.58.4,12.32,1.2,3.73.8,7.36,1.95,10.88,3.44l-4.96,19.04c-2.24-.85-4.69-1.6-7.36-2.24-2.67-.64-5.66-.96-8.96-.96-7.04,0-12.3,2.19-15.76,6.56-3.47,4.38-5.2,10.14-5.2,17.28,0,7.58,1.62,13.44,4.88,17.6,3.25,4.16,8.93,6.24,17.04,6.24,2.88,0,5.97-.26,9.28-.8,3.31-.53,6.35-1.38,9.12-2.56l3.36,19.52c-2.78,1.17-6.24,2.19-10.4,3.04-4.16.85-8.75,1.28-13.76,1.28-7.68,0-14.29-1.15-19.84-3.44-5.55-2.29-10.11-5.41-13.68-9.36-3.57-3.95-6.19-8.61-7.84-14-1.65-5.39-2.48-11.23-2.48-17.52Z" style="fill: #0ac18e;"/>
        <path d="M1622.04,125c7.04,0,12.9.8,17.6,2.4,4.69,1.6,8.45,3.89,11.28,6.88,2.82,2.99,4.82,6.62,6,10.88,1.17,4.27,1.76,9.02,1.76,14.24v49.6c-3.42.75-8.16,1.63-14.24,2.64s-13.44,1.52-22.08,1.52c-5.44,0-10.38-.48-14.8-1.44-4.43-.96-8.24-2.53-11.44-4.72-3.2-2.18-5.65-5.04-7.36-8.56-1.71-3.52-2.56-7.84-2.56-12.96s.99-9.07,2.96-12.48c1.97-3.41,4.61-6.13,7.92-8.16,3.3-2.03,7.09-3.49,11.36-4.4,4.27-.91,8.69-1.36,13.28-1.36,3.09,0,5.84.14,8.24.4,2.4.27,4.34.62,5.84,1.04v-2.24c0-4.05-1.23-7.3-3.68-9.76-2.45-2.45-6.72-3.68-12.8-3.68-4.05,0-8.05.29-12,.88-3.95.59-7.36,1.42-10.24,2.48l-3.04-19.2c1.38-.42,3.12-.88,5.2-1.36,2.08-.48,4.35-.91,6.8-1.28,2.45-.37,5.04-.69,7.76-.96,2.72-.26,5.46-.4,8.24-.4ZM1623.96,194.76c2.34,0,4.58-.05,6.72-.16,2.13-.11,3.84-.27,5.12-.48v-18.08c-.96-.21-2.4-.42-4.32-.64-1.92-.21-3.68-.32-5.28-.32-2.24,0-4.35.14-6.32.4-1.98.27-3.71.78-5.2,1.52-1.5.75-2.67,1.76-3.52,3.04-.85,1.28-1.28,2.88-1.28,4.8,0,3.73,1.25,6.32,3.76,7.76,2.5,1.44,5.95,2.16,10.32,2.16Z" style="fill: #0ac18e;"/>
        <path d="M1704.44,194.28c4.37,0,7.46-.42,9.28-1.28,1.81-.85,2.72-2.5,2.72-4.96,0-1.92-1.18-3.6-3.52-5.04-2.35-1.44-5.92-3.06-10.72-4.88-3.74-1.38-7.12-2.83-10.16-4.32-3.04-1.49-5.63-3.28-7.76-5.36-2.13-2.08-3.79-4.56-4.96-7.44-1.17-2.88-1.76-6.34-1.76-10.4,0-7.89,2.93-14.13,8.8-18.72,5.86-4.59,13.92-6.88,24.16-6.88,5.12,0,10.02.46,14.72,1.36,4.69.91,8.42,1.9,11.2,2.96l-4.16,18.56c-2.78-.96-5.79-1.81-9.04-2.56-3.25-.75-6.91-1.12-10.96-1.12-7.47,0-11.2,2.08-11.2,6.24,0,.96.16,1.82.48,2.56.32.75.96,1.47,1.92,2.16.96.7,2.26,1.45,3.92,2.25,1.65.81,3.76,1.7,6.32,2.66,5.23,1.94,9.54,3.85,12.96,5.73,3.41,1.88,6.11,3.92,8.08,6.09,1.97,2.18,3.36,4.61,4.16,7.27s1.2,5.75,1.2,9.26c0,8.3-3.12,14.58-9.36,18.84-6.24,4.25-15.07,6.38-26.48,6.38-7.47,0-13.68-.64-18.64-1.92-4.96-1.28-8.4-2.35-10.32-3.2l4-19.36c4.05,1.6,8.21,2.86,12.48,3.76,4.27.91,8.48,1.36,12.64,1.36Z" style="fill: #0ac18e;"/>
        <path d="M1757.88,211.4v-120.32l23.84-3.84v40.32c1.6-.53,3.65-1.04,6.16-1.52,2.5-.48,4.93-.72,7.28-.72,6.82,0,12.5.94,17.04,2.8,4.53,1.87,8.16,4.51,10.88,7.92,2.72,3.42,4.64,7.47,5.76,12.16,1.12,4.7,1.68,9.92,1.68,15.68v47.52h-23.84v-44.64c0-7.68-.99-13.12-2.96-16.32-1.97-3.2-5.63-4.8-10.96-4.8-2.13,0-4.13.19-6,.56-1.87.38-3.55.78-5.04,1.2v64h-23.84Z" style="fill: #0ac18e;"/>
      </g>
    </g>
    <g style="isolation: isolate;">
      <g style="isolation: isolate;">
        <path d="M636.86,314.92c.62,2.13,1.31,4.54,2.06,7.21.75,2.68,1.56,5.45,2.41,8.31.86,2.86,1.73,5.72,2.61,8.58.88,2.86,1.74,5.51,2.57,7.96.68-2.65,1.37-5.54,2.08-8.66.7-3.12,1.37-6.34,2-9.67.63-3.33,1.24-6.64,1.84-9.95.6-3.3,1.16-6.49,1.69-9.55h12.64c-1.83,9.05-3.94,18.23-6.32,27.53-2.38,9.31-4.96,18.15-7.73,26.52h-11.13c-1.82-4.99-3.58-10.23-5.29-15.72-1.71-5.49-3.4-10.98-5.06-16.5-1.67,5.51-3.33,11.01-5,16.5-1.67,5.49-3.41,10.72-5.23,15.72h-11.12c-2.77-8.37-5.34-17.21-7.72-26.52-2.38-9.31-4.48-18.49-6.31-27.53h13.18c.52,3.07,1.1,6.25,1.72,9.55.63,3.3,1.28,6.62,1.96,9.95.68,3.33,1.37,6.55,2.08,9.67s1.42,6.01,2.16,8.66c.94-2.55,1.85-5.25,2.73-8.11.88-2.86,1.75-5.72,2.58-8.58.83-2.86,1.6-5.62,2.3-8.27.7-2.65,1.34-5.02,1.91-7.1h10.37Z" style="fill: #777;"/>
        <path d="M673.7,363.2v-58.66l11.62-1.87v19.66c.78-.26,1.78-.51,3-.74,1.22-.23,2.4-.35,3.55-.35,3.33,0,6.1.46,8.31,1.37,2.21.91,3.98,2.2,5.3,3.86,1.33,1.67,2.26,3.64,2.81,5.93.55,2.29.82,4.84.82,7.64v23.17h-11.62v-21.76c0-3.74-.48-6.4-1.44-7.96-.96-1.56-2.74-2.34-5.34-2.34-1.04,0-2.02.09-2.92.27-.91.18-1.73.38-2.46.58v31.2h-11.62Z" style="fill: #777;"/>
        <path d="M734.39,321.08c3.43,0,6.29.39,8.58,1.17,2.29.78,4.12,1.9,5.5,3.35,1.38,1.46,2.35,3.22,2.93,5.3.57,2.08.86,4.39.86,6.94v24.18c-1.66.36-3.98.79-6.94,1.29-2.96.49-6.55.74-10.76.74-2.65,0-5.06-.23-7.21-.7-2.16-.47-4.02-1.23-5.58-2.3-1.56-1.07-2.76-2.46-3.59-4.17-.83-1.72-1.25-3.82-1.25-6.32s.48-4.42,1.44-6.08c.96-1.66,2.25-2.99,3.86-3.98,1.61-.99,3.46-1.7,5.54-2.14,2.08-.44,4.24-.66,6.47-.66,1.51,0,2.85.07,4.02.2s2.12.3,2.85.51v-1.09c0-1.98-.6-3.56-1.79-4.76-1.2-1.2-3.28-1.79-6.24-1.79-1.98,0-3.93.14-5.85.43-1.92.29-3.59.69-4.99,1.21l-1.48-9.36c.68-.21,1.52-.43,2.54-.66,1.01-.23,2.12-.44,3.31-.62,1.2-.18,2.46-.34,3.78-.47,1.33-.13,2.66-.2,4.02-.2ZM735.32,355.09c1.14,0,2.23-.03,3.28-.08,1.04-.05,1.87-.13,2.5-.23v-8.81c-.47-.1-1.17-.21-2.11-.31-.94-.1-1.79-.16-2.57-.16-1.09,0-2.12.07-3.08.2-.96.13-1.81.38-2.54.74-.73.36-1.3.86-1.72,1.48-.42.62-.62,1.4-.62,2.34,0,1.82.61,3.08,1.83,3.78,1.22.7,2.9,1.05,5.03,1.05Z" style="fill: #777;"/>
        <path d="M762.39,311.95l11.62-1.87v12.09h13.96v9.67h-13.96v14.43c0,2.44.43,4.39,1.29,5.85.86,1.46,2.59,2.18,5.19,2.18,1.25,0,2.54-.12,3.86-.35,1.33-.23,2.54-.56,3.63-.97l1.64,9.05c-1.4.57-2.96,1.07-4.68,1.48-1.72.42-3.82.62-6.32.62-3.17,0-5.8-.43-7.88-1.29-2.08-.86-3.74-2.05-4.99-3.59-1.25-1.53-2.12-3.39-2.61-5.58-.49-2.18-.74-4.6-.74-7.25v-34.48Z" style="fill: #777;"/>
        <path d="M828.84,310.32c0,2.13-.69,3.81-2.07,5.03-1.38,1.22-3,1.83-4.88,1.83s-3.5-.61-4.88-1.83c-1.38-1.22-2.07-2.9-2.07-5.03s.69-3.81,2.07-5.03c1.38-1.22,3-1.83,4.88-1.83s3.5.61,4.88,1.83c1.38,1.22,2.07,2.9,2.07,5.03ZM827.75,363.2h-11.62v-41.03h11.62v41.03Z" style="fill: #777;"/>
        <path d="M850.45,354.85c2.13,0,3.64-.21,4.52-.62.88-.42,1.33-1.22,1.33-2.42,0-.94-.57-1.75-1.72-2.46-1.14-.7-2.89-1.49-5.23-2.38-1.82-.68-3.47-1.38-4.95-2.11-1.48-.73-2.74-1.6-3.78-2.61-1.04-1.01-1.85-2.22-2.42-3.63-.57-1.4-.86-3.09-.86-5.07,0-3.85,1.43-6.89,4.29-9.13,2.86-2.24,6.79-3.35,11.78-3.35,2.5,0,4.89.22,7.18.66,2.29.44,4.11.92,5.46,1.44l-2.03,9.05c-1.35-.47-2.82-.88-4.41-1.25-1.59-.36-3.37-.55-5.34-.55-3.64,0-5.46,1.01-5.46,3.04,0,.47.08.88.23,1.25.16.36.47.71.94,1.05.47.34,1.1.7,1.91,1.1.81.39,1.83.83,3.08,1.3,2.55.94,4.65,1.88,6.32,2.79,1.66.92,2.98,1.91,3.94,2.97.96,1.06,1.64,2.25,2.03,3.54.39,1.3.58,2.8.58,4.51,0,4.05-1.52,7.11-4.56,9.18-3.04,2.07-7.35,3.11-12.91,3.11-3.64,0-6.67-.31-9.09-.94-2.42-.62-4.1-1.14-5.03-1.56l1.95-9.44c1.98.78,4,1.39,6.08,1.83,2.08.44,4.13.66,6.16.66Z" style="fill: #777;"/>
        <path d="M914.02,363.9c-2.96,0-5.92-.09-8.85-.27-2.94-.18-5.99-.61-9.16-1.29v-52.42c2.5-.47,5.23-.82,8.19-1.05,2.96-.23,5.72-.35,8.27-.35,3.43,0,6.59.25,9.48.74,2.89.49,5.37,1.34,7.45,2.53,2.08,1.2,3.71,2.77,4.88,4.72,1.17,1.95,1.75,4.36,1.75,7.21,0,4.32-2.08,7.72-6.24,10.22,3.43,1.3,5.77,3.07,7.02,5.3,1.25,2.24,1.87,4.76,1.87,7.57,0,5.67-2.07,9.93-6.2,12.79-4.13,2.86-10.28,4.29-18.45,4.29ZM907.85,330.36h5.93c3.74,0,6.42-.48,8.03-1.44,1.61-.96,2.42-2.51,2.42-4.64s-.83-3.72-2.5-4.6c-1.66-.88-4.11-1.33-7.33-1.33-1.04,0-2.16.01-3.35.04-1.2.03-2.26.09-3.2.19v11.78ZM907.85,339.64v13.96c.88.1,1.85.18,2.89.23,1.04.05,2.18.08,3.43.08,3.64,0,6.58-.52,8.81-1.56,2.24-1.04,3.35-2.96,3.35-5.77,0-2.5-.94-4.28-2.81-5.34-1.87-1.07-4.55-1.6-8.03-1.6h-7.64Z" style="fill: #777;"/>
        <path d="M973.06,364.29c-8.79,0-15.48-2.44-20.08-7.33-4.6-4.89-6.9-11.83-6.9-20.83,0-4.47.7-8.46,2.11-11.97,1.4-3.51,3.33-6.47,5.77-8.89s5.36-4.25,8.74-5.5c3.38-1.25,7.05-1.87,11-1.87,2.29,0,4.37.17,6.24.51,1.87.34,3.51.73,4.91,1.17,1.4.44,2.57.9,3.51,1.37.94.47,1.61.83,2.03,1.09l-3.51,9.83c-1.67-.88-3.6-1.64-5.81-2.26-2.21-.62-4.72-.94-7.53-.94-1.87,0-3.71.31-5.5.94s-3.38,1.62-4.76,3c-1.38,1.38-2.48,3.16-3.31,5.34-.83,2.18-1.25,4.84-1.25,7.96,0,2.5.27,4.82.82,6.98.55,2.16,1.43,4.02,2.65,5.58,1.22,1.56,2.82,2.8,4.8,3.71,1.98.91,4.37,1.37,7.18,1.37,1.77,0,3.35-.1,4.76-.31,1.4-.21,2.65-.45,3.74-.74,1.09-.29,2.05-.61,2.89-.98.83-.36,1.58-.7,2.26-1.01l3.35,9.75c-1.72,1.04-4.13,1.98-7.25,2.81s-6.73,1.25-10.84,1.25Z" style="fill: #777;"/>
        <path d="M1031.56,309.15h12.17v54.05h-12.17v-22.93h-20.44v22.93h-12.17v-54.05h12.17v20.67h20.44v-20.67Z" style="fill: #777;"/>
        <path d="M1065.65,317.8c-1.87,0-3.64.23-5.3.7-1.67.47-3.51,1.22-5.54,2.26l-3.28-8.81c2.03-1.3,4.42-2.3,7.18-3,2.75-.7,5.46-1.05,8.11-1.05,3.33,0,6.07.44,8.23,1.33,2.16.88,3.86,2,5.11,3.35,1.25,1.35,2.12,2.83,2.61,4.45.49,1.61.74,3.15.74,4.6s-.22,2.8-.66,4.02c-.44,1.22-1,2.35-1.68,3.39-.68,1.04-1.46,2.03-2.34,2.96-.88.94-1.74,1.82-2.57,2.65-.62.62-1.28,1.29-1.95,1.99-.68.7-1.29,1.44-1.83,2.22s-1,1.6-1.37,2.46c-.36.86-.55,1.73-.55,2.61v.94c0,.42.03.78.08,1.09h-10.3c-.1-.52-.17-1.1-.2-1.75-.03-.65-.04-1.21-.04-1.68,0-1.46.18-2.77.55-3.94.36-1.17.84-2.26,1.44-3.28.6-1.01,1.29-1.96,2.07-2.85.78-.88,1.58-1.74,2.42-2.57,1.2-1.2,2.29-2.38,3.28-3.55.99-1.17,1.48-2.51,1.48-4.02,0-1.25-.48-2.31-1.44-3.2-.96-.88-2.38-1.33-4.25-1.33ZM1072.9,357.04c0,2.29-.74,4.06-2.22,5.3s-3.16,1.87-5.03,1.87-3.55-.62-5.03-1.87c-1.48-1.25-2.22-3.01-2.22-5.3s.74-4.06,2.22-5.3c1.48-1.25,3.16-1.87,5.03-1.87s3.55.62,5.03,1.87,2.22,3.02,2.22,5.3Z" style="fill: #777;"/>
        <path d="M1111.2,302.13h11.08v75.5h-11.08v-75.5Z" style="fill: #777;"/>
        <path d="M1190.52,363.2c-3.48-6.19-7.25-12.3-11.31-18.33-4.06-6.03-8.37-11.73-12.95-17.08v35.41h-12.01v-54.05h9.91c1.72,1.72,3.61,3.82,5.69,6.32,2.08,2.5,4.2,5.16,6.36,8,2.16,2.83,4.3,5.77,6.43,8.81,2.13,3.04,4.13,5.97,6.01,8.77v-31.9h12.09v54.05h-10.22Z" style="fill: #777;"/>
        <path d="M1210.49,343c0-3.64.56-6.83,1.68-9.55,1.12-2.73,2.59-5,4.41-6.83,1.82-1.82,3.91-3.2,6.28-4.13,2.37-.94,4.8-1.4,7.29-1.4,5.82,0,10.42,1.78,13.81,5.34,3.38,3.56,5.07,8.8,5.07,15.72,0,.68-.03,1.42-.08,2.22-.05.81-.1,1.52-.16,2.14h-26.36c.26,2.39,1.38,4.29,3.35,5.69,1.98,1.4,4.63,2.11,7.96,2.11,2.13,0,4.22-.2,6.28-.58,2.05-.39,3.73-.87,5.03-1.44l1.56,9.44c-.62.31-1.46.62-2.5.94-1.04.31-2.2.58-3.47.82-1.28.23-2.64.43-4.1.58-1.46.16-2.91.23-4.37.23-3.69,0-6.9-.55-9.63-1.64-2.73-1.09-4.99-2.59-6.79-4.49-1.79-1.9-3.12-4.15-3.98-6.75-.86-2.6-1.29-5.41-1.29-8.42ZM1237.79,338.55c-.05-.99-.22-1.95-.51-2.89-.29-.94-.73-1.77-1.33-2.5-.6-.73-1.35-1.33-2.26-1.79-.91-.47-2.04-.7-3.39-.7s-2.42.22-3.35.66c-.94.44-1.72,1.03-2.34,1.75-.62.73-1.11,1.57-1.44,2.54-.34.96-.58,1.94-.74,2.92h15.37Z" style="fill: #777;"/>
        <path d="M1257.6,311.95l11.62-1.87v12.09h13.96v9.67h-13.96v14.43c0,2.44.43,4.39,1.29,5.85.86,1.46,2.59,2.18,5.19,2.18,1.25,0,2.54-.12,3.86-.35,1.33-.23,2.53-.56,3.63-.97l1.64,9.05c-1.4.57-2.96,1.07-4.68,1.48-1.72.42-3.82.62-6.32.62-3.17,0-5.8-.43-7.88-1.29-2.08-.86-3.74-2.05-4.99-3.59-1.25-1.53-2.12-3.39-2.61-5.58-.49-2.18-.74-4.6-.74-7.25v-34.48Z" style="fill: #777;"/>
        <path d="M1318.4,339.64c-1.04,3.95-2.14,7.88-3.32,11.78-1.17,3.9-2.41,7.83-3.7,11.78h-9.05c-.94-2.18-1.96-4.78-3.05-7.8-1.1-3.02-2.23-6.3-3.4-9.87-1.17-3.56-2.37-7.33-3.6-11.31-1.23-3.98-2.41-8-3.56-12.05h12.25c.42,1.87.88,3.91,1.37,6.12.5,2.21,1.02,4.49,1.57,6.83s1.12,4.69,1.73,7.06c.6,2.37,1.21,4.64,1.84,6.83.67-2.29,1.34-4.63,1.99-7.02.65-2.39,1.27-4.75,1.87-7.06.6-2.31,1.17-4.55,1.72-6.71.55-2.16,1.03-4.17,1.44-6.04h8.42c.42,1.87.88,3.89,1.4,6.04.52,2.16,1.07,4.4,1.64,6.71.57,2.31,1.17,4.67,1.79,7.06.62,2.39,1.27,4.73,1.95,7.02.63-2.18,1.26-4.46,1.88-6.83.63-2.37,1.22-4.72,1.77-7.06.55-2.34,1.07-4.61,1.57-6.83.5-2.21.95-4.25,1.37-6.12h12.09c-1.15,4.06-2.33,8.07-3.56,12.05-1.23,3.98-2.42,7.75-3.6,11.31-1.17,3.56-2.32,6.85-3.44,9.87-1.12,3.02-2.15,5.62-3.09,7.8h-9.05c-1.3-3.95-2.57-7.88-3.82-11.78-1.25-3.9-2.39-7.83-3.43-11.78Z" style="fill: #777;"/>
        <path d="M1391.99,342.61c0,3.22-.47,6.17-1.4,8.85-.94,2.68-2.29,4.97-4.06,6.86-1.77,1.9-3.89,3.37-6.36,4.41-2.47,1.04-5.24,1.56-8.31,1.56s-5.76-.52-8.23-1.56c-2.47-1.04-4.59-2.51-6.36-4.41-1.77-1.9-3.15-4.19-4.13-6.86-.99-2.68-1.48-5.63-1.48-8.85s.51-6.16,1.52-8.81c1.01-2.65,2.42-4.91,4.21-6.79s3.93-3.33,6.4-4.37,5.16-1.56,8.07-1.56,5.68.52,8.15,1.56c2.47,1.04,4.59,2.5,6.36,4.37,1.77,1.87,3.15,4.13,4.13,6.79.99,2.65,1.48,5.59,1.48,8.81ZM1380.14,342.61c0-3.59-.72-6.41-2.15-8.46-1.43-2.05-3.47-3.08-6.12-3.08s-4.71,1.03-6.16,3.08c-1.46,2.05-2.18,4.88-2.18,8.46s.73,6.43,2.18,8.54c1.46,2.11,3.51,3.16,6.16,3.16s4.69-1.05,6.12-3.16c1.43-2.11,2.15-4.95,2.15-8.54Z" style="fill: #777;"/>
        <path d="M1425.69,332.47c-1.04-.26-2.26-.53-3.67-.82-1.4-.29-2.91-.43-4.52-.43-.73,0-1.6.07-2.61.2-1.01.13-1.78.27-2.3.43v31.36h-11.62v-38.84c2.08-.73,4.54-1.42,7.37-2.07,2.83-.65,5.99-.97,9.48-.97.62,0,1.38.04,2.26.12.88.08,1.77.18,2.65.31.88.13,1.77.29,2.65.47.88.18,1.64.4,2.26.66l-1.95,9.59Z" style="fill: #777;"/>
        <path d="M1445.5,336.91c1.14-1.24,2.32-2.53,3.54-3.88,1.22-1.34,2.4-2.68,3.55-3.99,1.14-1.32,2.22-2.57,3.23-3.76,1.01-1.19,1.88-2.22,2.61-3.1h13.82c-2.76,3.17-5.45,6.19-8.07,9.07-2.63,2.88-5.5,5.85-8.62,8.91,1.56,1.41,3.17,3.09,4.84,5.04,1.66,1.95,3.28,3.97,4.84,6.06,1.56,2.08,2.99,4.17,4.29,6.25,1.3,2.08,2.39,3.99,3.28,5.7h-13.36c-.83-1.36-1.78-2.85-2.84-4.5-1.06-1.64-2.19-3.28-3.39-4.92s-2.45-3.22-3.78-4.73c-1.32-1.51-2.63-2.79-3.93-3.83v17.98h-11.62v-58.66l11.62-1.87v34.23Z" style="fill: #777;"/>
        <path d="M1519.68,364.29c-3.8,0-7.07-.53-9.83-1.6-2.76-1.07-5.03-2.55-6.83-4.45-1.79-1.9-3.12-4.16-3.98-6.79-.86-2.62-1.29-5.52-1.29-8.7v-33.62h12.17v32.6c0,2.18.25,4.04.74,5.58.49,1.53,1.17,2.78,2.03,3.74.86.96,1.9,1.65,3.12,2.07s2.56.62,4.02.62c2.96,0,5.37-.91,7.21-2.73,1.84-1.82,2.77-4.91,2.77-9.28v-32.6h12.17v33.62c0,3.17-.44,6.08-1.33,8.74-.88,2.65-2.24,4.93-4.06,6.83-1.82,1.9-4.13,3.37-6.94,4.41-2.81,1.04-6.14,1.56-9.98,1.56Z" style="fill: #777;"/>
        <path d="M1591.05,342.69c0,3.17-.39,6.06-1.17,8.66-.78,2.6-1.92,4.84-3.43,6.71-1.51,1.87-3.38,3.33-5.62,4.37-2.24,1.04-4.81,1.56-7.72,1.56-1.61,0-3.12-.16-4.52-.47-1.4-.31-2.76-.75-4.06-1.33v15.44h-11.62v-54.05c1.04-.31,2.24-.61,3.59-.9,1.35-.29,2.77-.53,4.25-.74,1.48-.21,2.99-.38,4.52-.51,1.53-.13,3-.2,4.41-.2,3.38,0,6.4.51,9.05,1.52,2.65,1.01,4.89,2.45,6.71,4.29,1.82,1.85,3.21,4.1,4.17,6.75.96,2.65,1.44,5.62,1.44,8.89ZM1579.19,343c0-3.59-.81-6.46-2.42-8.62-1.61-2.16-4-3.24-7.18-3.24-1.04,0-2,.04-2.89.12-.88.08-1.61.17-2.18.27v20.98c.73.47,1.68.86,2.85,1.17,1.17.31,2.35.47,3.55.47,5.51,0,8.27-3.72,8.27-11.15Z" style="fill: #777;"/>
        <path d="M1635.43,358.05c0,6.71-1.7,11.69-5.11,14.94-3.41,3.25-8.67,4.88-15.79,4.88-2.5,0-4.99-.22-7.49-.66-2.5-.44-4.81-1.03-6.94-1.75l2.03-9.75c1.82.73,3.73,1.3,5.73,1.72,2,.42,4.28.62,6.83.62,3.33,0,5.68-.73,7.06-2.18,1.38-1.46,2.07-3.33,2.07-5.62v-1.48c-1.25.57-2.54,1-3.86,1.29-1.33.29-2.77.43-4.33.43-5.67,0-10.01-1.68-13.03-5.03-3.02-3.35-4.52-8.05-4.52-14.08,0-3.02.47-5.76,1.4-8.23.94-2.47,2.3-4.59,4.09-6.36,1.79-1.77,3.99-3.13,6.59-4.1,2.6-.96,5.54-1.44,8.81-1.44,1.4,0,2.85.07,4.33.2,1.48.13,2.95.3,4.41.51,1.46.21,2.85.46,4.17.74,1.33.29,2.51.59,3.55.9v34.48ZM1609.92,341.36c0,6.5,2.62,9.75,7.88,9.75,1.2,0,2.31-.16,3.35-.47,1.04-.31,1.92-.68,2.65-1.09v-18.56c-.57-.1-1.25-.2-2.03-.27-.78-.08-1.69-.12-2.73-.12-3.07,0-5.36,1.01-6.86,3.04-1.51,2.03-2.26,4.6-2.26,7.72Z" style="fill: #777;"/>
        <path d="M1671.07,332.47c-1.04-.26-2.26-.53-3.67-.82-1.4-.29-2.91-.43-4.52-.43-.73,0-1.6.07-2.61.2-1.01.13-1.78.27-2.3.43v31.36h-11.62v-38.84c2.08-.73,4.54-1.42,7.37-2.07,2.83-.65,5.99-.97,9.48-.97.62,0,1.38.04,2.26.12.88.08,1.77.18,2.65.31.88.13,1.77.29,2.65.47.88.18,1.64.4,2.26.66l-1.95,9.59Z" style="fill: #777;"/>
        <path d="M1693.23,321.08c3.43,0,6.29.39,8.58,1.17,2.29.78,4.12,1.9,5.5,3.35,1.38,1.46,2.35,3.22,2.92,5.3.57,2.08.86,4.39.86,6.94v24.18c-1.67.36-3.98.79-6.94,1.29-2.96.49-6.55.74-10.76.74-2.65,0-5.06-.23-7.22-.7-2.16-.47-4.02-1.23-5.58-2.3-1.56-1.07-2.76-2.46-3.59-4.17-.83-1.72-1.25-3.82-1.25-6.32s.48-4.42,1.44-6.08c.96-1.66,2.25-2.99,3.86-3.98,1.61-.99,3.46-1.7,5.54-2.14,2.08-.44,4.24-.66,6.47-.66,1.51,0,2.85.07,4.02.2,1.17.13,2.12.3,2.85.51v-1.09c0-1.98-.6-3.56-1.79-4.76-1.2-1.2-3.28-1.79-6.24-1.79-1.98,0-3.93.14-5.85.43-1.92.29-3.59.69-4.99,1.21l-1.48-9.36c.68-.21,1.52-.43,2.54-.66s2.12-.44,3.32-.62c1.2-.18,2.46-.34,3.78-.47,1.33-.13,2.67-.2,4.02-.2ZM1694.16,355.09c1.14,0,2.24-.03,3.28-.08,1.04-.05,1.87-.13,2.5-.23v-8.81c-.47-.1-1.17-.21-2.11-.31-.94-.1-1.79-.16-2.57-.16-1.09,0-2.12.07-3.08.2-.96.13-1.81.38-2.54.74-.73.36-1.3.86-1.72,1.48-.42.62-.62,1.4-.62,2.34,0,1.82.61,3.08,1.83,3.78,1.22.7,2.9,1.05,5.03,1.05Z" style="fill: #777;"/>
        <path d="M1757.81,361.87c-1.04.31-2.24.61-3.59.9-1.35.29-2.77.53-4.25.74-1.48.21-2.99.38-4.52.51-1.53.13-3,.19-4.41.19-3.38,0-6.4-.49-9.05-1.48s-4.89-2.41-6.71-4.25c-1.82-1.85-3.21-4.08-4.17-6.71-.96-2.62-1.44-5.58-1.44-8.85s.42-6.33,1.25-9.01c.83-2.68,2.03-4.95,3.59-6.83,1.56-1.87,3.47-3.3,5.73-4.29,2.26-.99,4.85-1.48,7.76-1.48,1.61,0,3.05.16,4.33.47,1.27.31,2.56.75,3.86,1.33v-18.56l11.62-1.87v59.2ZM1731.52,342.37c0,3.59.81,6.47,2.42,8.66,1.61,2.18,4,3.28,7.18,3.28,1.04,0,2-.04,2.89-.12.88-.08,1.61-.17,2.18-.27v-21.14c-.73-.47-1.68-.86-2.85-1.17-1.17-.31-2.35-.47-3.55-.47-5.51,0-8.27,3.74-8.27,11.23Z" style="fill: #777;"/>
        <path d="M1766.78,343c0-3.64.56-6.83,1.68-9.55,1.12-2.73,2.59-5,4.41-6.83,1.82-1.82,3.91-3.2,6.28-4.13,2.37-.94,4.8-1.4,7.29-1.4,5.82,0,10.42,1.78,13.81,5.34,3.38,3.56,5.07,8.8,5.07,15.72,0,.68-.03,1.42-.08,2.22-.05.81-.1,1.52-.16,2.14h-26.36c.26,2.39,1.38,4.29,3.35,5.69,1.98,1.4,4.63,2.11,7.96,2.11,2.13,0,4.22-.2,6.28-.58,2.05-.39,3.73-.87,5.03-1.44l1.56,9.44c-.62.31-1.46.62-2.5.94-1.04.31-2.2.58-3.47.82-1.28.23-2.64.43-4.1.58-1.46.16-2.91.23-4.37.23-3.69,0-6.9-.55-9.63-1.64-2.73-1.09-4.99-2.59-6.79-4.49-1.79-1.9-3.12-4.15-3.98-6.75-.86-2.6-1.29-5.41-1.29-8.42ZM1794.08,338.55c-.05-.99-.22-1.95-.51-2.89-.29-.94-.73-1.77-1.33-2.5-.6-.73-1.35-1.33-2.26-1.79-.91-.47-2.04-.7-3.39-.7s-2.42.22-3.35.66c-.94.44-1.72,1.03-2.34,1.75-.62.73-1.11,1.57-1.44,2.54-.34.96-.58,1.94-.74,2.92h15.37Z" style="fill: #777;"/>
        <path d="M1826.06,354.85c2.13,0,3.64-.21,4.52-.62.88-.42,1.33-1.22,1.33-2.42,0-.94-.57-1.75-1.72-2.46-1.14-.7-2.89-1.49-5.23-2.38-1.82-.68-3.47-1.38-4.95-2.11-1.48-.73-2.74-1.6-3.78-2.61-1.04-1.01-1.85-2.22-2.42-3.63-.57-1.4-.86-3.09-.86-5.07,0-3.85,1.43-6.89,4.29-9.13,2.86-2.24,6.79-3.35,11.78-3.35,2.5,0,4.89.22,7.18.66,2.29.44,4.11.92,5.46,1.44l-2.03,9.05c-1.35-.47-2.82-.88-4.41-1.25-1.59-.36-3.37-.55-5.34-.55-3.64,0-5.46,1.01-5.46,3.04,0,.47.08.88.23,1.25.16.36.47.71.94,1.05.47.34,1.1.7,1.91,1.1.81.39,1.83.83,3.08,1.3,2.55.94,4.65,1.88,6.32,2.79,1.66.92,2.98,1.91,3.94,2.97.96,1.06,1.64,2.25,2.03,3.54.39,1.3.58,2.8.58,4.51,0,4.05-1.52,7.11-4.56,9.18-3.04,2.07-7.35,3.11-12.91,3.11-3.64,0-6.67-.31-9.09-.94s-4.1-1.14-5.03-1.56l1.95-9.44c1.98.78,4,1.39,6.08,1.83,2.08.44,4.13.66,6.16.66Z" style="fill: #777;"/>
      </g>
      <g style="isolation: isolate;">
        <path d="M600.54,456.8v-54.05h36.5v10.22h-24.34v10.61h21.61v9.98h-21.61v13.03h26.13v10.22h-38.3Z" style="fill: #777;"/>
        <path d="M644.14,436.29c0-2.96.48-5.76,1.44-8.39.96-2.62,2.35-4.91,4.17-6.86,1.82-1.95,4.03-3.5,6.63-4.64,2.6-1.14,5.56-1.72,8.89-1.72,2.18,0,4.19.2,6.01.58,1.82.39,3.59.95,5.3,1.68l-2.42,9.28c-1.09-.42-2.29-.78-3.59-1.09-1.3-.31-2.76-.47-4.37-.47-3.43,0-5.99,1.07-7.68,3.2-1.69,2.13-2.53,4.94-2.53,8.42,0,3.69.79,6.55,2.38,8.58,1.59,2.03,4.35,3.04,8.31,3.04,1.4,0,2.91-.13,4.52-.39,1.61-.26,3.09-.67,4.45-1.25l1.64,9.52c-1.35.57-3.04,1.06-5.07,1.48-2.03.42-4.26.62-6.71.62-3.74,0-6.97-.56-9.67-1.68-2.7-1.12-4.93-2.64-6.67-4.56-1.74-1.92-3.02-4.2-3.82-6.82-.81-2.63-1.21-5.47-1.21-8.54Z" style="fill: #777;"/>
        <path d="M721.52,436.21c0,3.22-.47,6.17-1.4,8.85-.94,2.68-2.29,4.97-4.06,6.86-1.77,1.9-3.89,3.37-6.36,4.41-2.47,1.04-5.24,1.56-8.31,1.56s-5.76-.52-8.23-1.56c-2.47-1.04-4.59-2.51-6.36-4.41-1.77-1.9-3.15-4.19-4.13-6.86-.99-2.68-1.48-5.63-1.48-8.85s.51-6.16,1.52-8.81c1.01-2.65,2.42-4.91,4.21-6.79s3.93-3.33,6.4-4.37c2.47-1.04,5.16-1.56,8.07-1.56s5.68.52,8.15,1.56c2.47,1.04,4.59,2.5,6.36,4.37,1.77,1.87,3.15,4.13,4.13,6.79.99,2.65,1.48,5.59,1.48,8.81ZM709.66,436.21c0-3.59-.72-6.41-2.15-8.46-1.43-2.05-3.47-3.08-6.12-3.08s-4.71,1.03-6.16,3.08c-1.46,2.05-2.18,4.88-2.18,8.46s.73,6.43,2.18,8.54c1.46,2.11,3.51,3.16,6.16,3.16s4.69-1.05,6.12-3.16c1.43-2.11,2.15-4.95,2.15-8.54Z" style="fill: #777;"/>
        <path d="M742.27,448.45c2.13,0,3.64-.21,4.52-.62.88-.42,1.33-1.22,1.33-2.42,0-.94-.57-1.75-1.72-2.46-1.14-.7-2.89-1.49-5.23-2.38-1.82-.68-3.47-1.38-4.95-2.11-1.48-.73-2.74-1.6-3.78-2.61-1.04-1.01-1.85-2.22-2.42-3.63-.57-1.4-.86-3.09-.86-5.07,0-3.85,1.43-6.89,4.29-9.13,2.86-2.24,6.79-3.35,11.78-3.35,2.5,0,4.89.22,7.18.66,2.29.44,4.11.92,5.46,1.44l-2.03,9.05c-1.35-.47-2.82-.88-4.41-1.25-1.59-.36-3.37-.55-5.34-.55-3.64,0-5.46,1.01-5.46,3.04,0,.47.08.88.23,1.25.16.36.47.71.94,1.05.47.34,1.1.7,1.91,1.1.81.39,1.83.83,3.08,1.3,2.55.94,4.65,1.88,6.32,2.79,1.66.92,2.98,1.91,3.94,2.97.96,1.06,1.64,2.25,2.03,3.54.39,1.3.58,2.8.58,4.51,0,4.05-1.52,7.11-4.56,9.18-3.04,2.07-7.35,3.11-12.91,3.11-3.64,0-6.67-.31-9.09-.94-2.42-.62-4.1-1.14-5.03-1.56l1.95-9.44c1.98.78,4,1.39,6.08,1.83,2.08.44,4.13.66,6.16.66Z" style="fill: #777;"/>
        <path d="M804.82,415.77c-2.35,7.91-4.8,15.32-7.35,22.23-2.55,6.92-5.34,13.62-8.37,20.12-1.09,2.34-2.19,4.33-3.28,5.97-1.09,1.64-2.29,2.99-3.59,4.06-1.3,1.07-2.77,1.85-4.41,2.34-1.64.49-3.55.74-5.74.74-1.82,0-3.5-.17-5.04-.51-1.54-.34-2.8-.71-3.79-1.13l2.03-9.28c1.2.42,2.26.7,3.2.86s1.93.23,2.97.23c2.08,0,3.68-.56,4.8-1.68s2.07-2.67,2.85-4.64c-2.65-5.2-5.31-11.04-7.96-17.51-2.65-6.47-5.15-13.74-7.49-21.8h12.32c.52,2.03,1.14,4.23,1.84,6.59.7,2.37,1.45,4.76,2.23,7.18.78,2.42,1.58,4.77,2.39,7.06.81,2.29,1.58,4.37,2.31,6.24.68-1.87,1.38-3.95,2.11-6.24.73-2.29,1.45-4.64,2.15-7.06s1.38-4.81,2.04-7.18c.65-2.37,1.24-4.56,1.76-6.59h12.02Z" style="fill: #777;"/>
        <path d="M822.76,448.45c2.13,0,3.64-.21,4.52-.62.88-.42,1.33-1.22,1.33-2.42,0-.94-.57-1.75-1.72-2.46-1.14-.7-2.89-1.49-5.23-2.38-1.82-.68-3.47-1.38-4.95-2.11-1.48-.73-2.74-1.6-3.78-2.61-1.04-1.01-1.85-2.22-2.42-3.63-.57-1.4-.86-3.09-.86-5.07,0-3.85,1.43-6.89,4.29-9.13,2.86-2.24,6.79-3.35,11.78-3.35,2.5,0,4.89.22,7.18.66,2.29.44,4.11.92,5.46,1.44l-2.03,9.05c-1.35-.47-2.82-.88-4.41-1.25-1.59-.36-3.37-.55-5.34-.55-3.64,0-5.46,1.01-5.46,3.04,0,.47.08.88.23,1.25.16.36.47.71.94,1.05.47.34,1.1.7,1.91,1.1.81.39,1.83.83,3.08,1.3,2.55.94,4.65,1.88,6.32,2.79,1.66.92,2.98,1.91,3.94,2.97.96,1.06,1.64,2.25,2.03,3.54.39,1.3.58,2.8.58,4.51,0,4.05-1.52,7.11-4.56,9.18-3.04,2.07-7.35,3.11-12.91,3.11-3.64,0-6.67-.31-9.09-.94-2.42-.62-4.1-1.14-5.03-1.56l1.95-9.44c1.98.78,4,1.39,6.08,1.83,2.08.44,4.13.66,6.16.66Z" style="fill: #777;"/>
        <path d="M848.42,405.55l11.62-1.87v12.09h13.96v9.67h-13.96v14.43c0,2.44.43,4.39,1.29,5.85.86,1.46,2.59,2.18,5.19,2.18,1.25,0,2.54-.12,3.86-.35,1.33-.23,2.54-.56,3.63-.97l1.64,9.05c-1.4.57-2.96,1.07-4.68,1.48-1.72.42-3.82.62-6.32.62-3.17,0-5.8-.43-7.88-1.29-2.08-.86-3.74-2.05-4.99-3.59-1.25-1.53-2.12-3.39-2.61-5.58-.49-2.18-.74-4.6-.74-7.25v-34.48Z" style="fill: #777;"/>
        <path d="M879.93,436.6c0-3.64.56-6.83,1.68-9.55,1.12-2.73,2.59-5,4.41-6.83s3.91-3.2,6.28-4.13c2.37-.94,4.8-1.4,7.29-1.4,5.82,0,10.43,1.78,13.81,5.34,3.38,3.56,5.07,8.8,5.07,15.72,0,.68-.03,1.42-.08,2.22-.05.81-.1,1.52-.16,2.14h-26.36c.26,2.39,1.38,4.29,3.35,5.69,1.98,1.4,4.63,2.11,7.96,2.11,2.13,0,4.22-.2,6.28-.58,2.05-.39,3.73-.87,5.03-1.44l1.56,9.44c-.62.31-1.46.62-2.5.94-1.04.31-2.2.58-3.47.82-1.27.23-2.64.43-4.1.58-1.46.16-2.91.23-4.37.23-3.69,0-6.9-.55-9.63-1.64s-4.99-2.59-6.79-4.49c-1.79-1.9-3.12-4.15-3.98-6.75-.86-2.6-1.29-5.41-1.29-8.42ZM907.23,432.15c-.05-.99-.22-1.95-.51-2.89-.29-.94-.73-1.77-1.33-2.5-.6-.73-1.35-1.33-2.26-1.79-.91-.47-2.04-.7-3.39-.7s-2.42.22-3.35.66c-.94.44-1.72,1.03-2.34,1.75-.62.73-1.11,1.57-1.44,2.54-.34.96-.58,1.94-.74,2.92h15.37Z" style="fill: #777;"/>
        <path d="M949.98,435.04c0-3.74-.48-6.4-1.44-7.96-.96-1.56-2.61-2.34-4.95-2.34-.73,0-1.48.04-2.26.12-.78.08-1.54.17-2.26.27v31.67h-11.62v-39.62c.99-.26,2.14-.53,3.47-.82,1.33-.29,2.73-.55,4.21-.78,1.48-.23,3-.42,4.56-.55s3.09-.2,4.6-.2c2.96,0,5.37.38,7.21,1.13,1.85.75,3.37,1.65,4.56,2.69,1.66-1.2,3.58-2.13,5.73-2.81,2.16-.67,4.15-1.01,5.97-1.01,3.28,0,5.97.46,8.07,1.37,2.11.91,3.78,2.2,5.03,3.86,1.25,1.67,2.11,3.64,2.57,5.93.47,2.29.7,4.84.7,7.64v23.17h-11.62v-21.76c0-3.74-.48-6.4-1.44-7.96-.96-1.56-2.61-2.34-4.95-2.34-.62,0-1.49.16-2.61.47-1.12.31-2.04.7-2.77,1.17.36,1.2.6,2.46.7,3.78.1,1.33.16,2.74.16,4.25v22.39h-11.62v-21.76Z" style="fill: #777;"/>
        <path d="M1014.95,395.73h11.08v75.5h-11.08v-75.5Z" style="fill: #777;"/>
        <path d="M1073.84,402.12c8.11,0,14.33,1.44,18.64,4.33,4.32,2.89,6.47,7.37,6.47,13.46,0,3.8-.87,6.88-2.61,9.24-1.74,2.37-4.25,4.23-7.53,5.58,1.09,1.35,2.24,2.9,3.43,4.64,1.2,1.74,2.38,3.56,3.55,5.46,1.17,1.9,2.3,3.87,3.39,5.93,1.09,2.05,2.11,4.07,3.04,6.04h-13.6c-.99-1.77-2-3.56-3.01-5.38-1.02-1.82-2.06-3.59-3.13-5.3-1.07-1.72-2.13-3.34-3.17-4.88-1.04-1.53-2.09-2.93-3.13-4.17h-6.01v19.73h-12.17v-53.27c2.65-.52,5.39-.88,8.23-1.09,2.83-.21,5.37-.31,7.61-.31ZM1074.54,412.5c-.88,0-1.68.03-2.38.08-.7.05-1.37.1-1.99.16v14.66h3.43c4.58,0,7.85-.57,9.83-1.72,1.98-1.14,2.96-3.09,2.96-5.85s-1-4.54-3-5.66c-2-1.12-4.95-1.68-8.85-1.68Z" style="fill: #777;"/>
        <path d="M1105.35,436.6c0-3.64.56-6.83,1.68-9.55,1.12-2.73,2.59-5,4.41-6.83,1.82-1.82,3.91-3.2,6.28-4.13,2.37-.94,4.8-1.4,7.29-1.4,5.82,0,10.42,1.78,13.81,5.34,3.38,3.56,5.07,8.8,5.07,15.72,0,.68-.03,1.42-.08,2.22-.05.81-.1,1.52-.16,2.14h-26.36c.26,2.39,1.38,4.29,3.35,5.69,1.98,1.4,4.63,2.11,7.96,2.11,2.13,0,4.22-.2,6.28-.58,2.05-.39,3.73-.87,5.03-1.44l1.56,9.44c-.62.31-1.46.62-2.5.94-1.04.31-2.2.58-3.47.82-1.28.23-2.64.43-4.1.58-1.46.16-2.91.23-4.37.23-3.69,0-6.9-.55-9.63-1.64-2.73-1.09-4.99-2.59-6.79-4.49-1.79-1.9-3.12-4.15-3.98-6.75-.86-2.6-1.29-5.41-1.29-8.42ZM1132.65,432.15c-.05-.99-.22-1.95-.51-2.89-.29-.94-.73-1.77-1.33-2.5-.6-.73-1.35-1.33-2.26-1.79-.91-.47-2.04-.7-3.39-.7s-2.42.22-3.35.66c-.94.44-1.72,1.03-2.34,1.75-.62.73-1.11,1.57-1.44,2.54-.34.96-.58,1.94-.74,2.92h15.37Z" style="fill: #777;"/>
        <path d="M1164.63,448.45c2.13,0,3.64-.21,4.52-.62.88-.42,1.33-1.22,1.33-2.42,0-.94-.57-1.75-1.72-2.46-1.14-.7-2.89-1.49-5.23-2.38-1.82-.68-3.47-1.38-4.95-2.11-1.48-.73-2.74-1.6-3.78-2.61-1.04-1.01-1.85-2.22-2.42-3.63-.57-1.4-.86-3.09-.86-5.07,0-3.85,1.43-6.89,4.29-9.13,2.86-2.24,6.79-3.35,11.78-3.35,2.5,0,4.89.22,7.18.66,2.29.44,4.11.92,5.46,1.44l-2.03,9.05c-1.35-.47-2.82-.88-4.41-1.25-1.59-.36-3.37-.55-5.34-.55-3.64,0-5.46,1.01-5.46,3.04,0,.47.08.88.23,1.25.16.36.47.71.94,1.05.47.34,1.1.7,1.91,1.1.81.39,1.83.83,3.08,1.3,2.55.94,4.65,1.88,6.32,2.79,1.66.92,2.98,1.91,3.94,2.97.96,1.06,1.64,2.25,2.03,3.54.39,1.3.58,2.8.58,4.51,0,4.05-1.52,7.11-4.56,9.18-3.04,2.07-7.35,3.11-12.91,3.11-3.64,0-6.67-.31-9.09-.94s-4.1-1.14-5.03-1.56l1.95-9.44c1.98.78,4,1.39,6.08,1.83,2.08.44,4.13.66,6.16.66Z" style="fill: #777;"/>
        <path d="M1229.06,436.21c0,3.22-.47,6.17-1.4,8.85-.94,2.68-2.29,4.97-4.06,6.86-1.77,1.9-3.89,3.37-6.36,4.41-2.47,1.04-5.24,1.56-8.31,1.56s-5.76-.52-8.23-1.56c-2.47-1.04-4.59-2.51-6.36-4.41-1.77-1.9-3.15-4.19-4.13-6.86-.99-2.68-1.48-5.63-1.48-8.85s.51-6.16,1.52-8.81c1.01-2.65,2.42-4.91,4.21-6.79s3.93-3.33,6.4-4.37,5.16-1.56,8.07-1.56,5.68.52,8.15,1.56c2.47,1.04,4.59,2.5,6.36,4.37,1.77,1.87,3.15,4.13,4.13,6.79.99,2.65,1.48,5.59,1.48,8.81ZM1217.2,436.21c0-3.59-.72-6.41-2.15-8.46-1.43-2.05-3.47-3.08-6.12-3.08s-4.71,1.03-6.16,3.08c-1.46,2.05-2.18,4.88-2.18,8.46s.73,6.43,2.18,8.54c1.46,2.11,3.51,3.16,6.16,3.16s4.69-1.05,6.12-3.16c1.43-2.11,2.15-4.95,2.15-8.54Z" style="fill: #777;"/>
        <path d="M1273.05,455.4c-1.98.57-4.52,1.11-7.64,1.6-3.12.49-6.4.74-9.83.74s-6.38-.47-8.7-1.4c-2.31-.94-4.15-2.25-5.5-3.94-1.35-1.69-2.31-3.71-2.89-6.04s-.86-4.91-.86-7.72v-22.85h11.62v21.45c0,3.74.49,6.45,1.48,8.11.99,1.67,2.83,2.5,5.54,2.5.83,0,1.72-.04,2.65-.12.94-.08,1.77-.17,2.5-.27v-31.67h11.62v39.62Z" style="fill: #777;"/>
        <path d="M1308.69,426.07c-1.04-.26-2.26-.53-3.67-.82-1.4-.29-2.91-.43-4.52-.43-.73,0-1.6.07-2.61.2-1.01.13-1.78.27-2.3.43v31.36h-11.62v-38.84c2.08-.73,4.54-1.42,7.37-2.07,2.83-.65,5.99-.97,9.48-.97.62,0,1.38.04,2.26.12.88.08,1.77.18,2.65.31.88.13,1.77.29,2.65.47.88.18,1.64.4,2.26.66l-1.95,9.59Z" style="fill: #777;"/>
        <path d="M1314.15,436.29c0-2.96.48-5.76,1.44-8.39.96-2.62,2.35-4.91,4.17-6.86,1.82-1.95,4.03-3.5,6.63-4.64,2.6-1.14,5.56-1.72,8.89-1.72,2.18,0,4.18.2,6.01.58,1.82.39,3.59.95,5.3,1.68l-2.42,9.28c-1.09-.42-2.29-.78-3.59-1.09-1.3-.31-2.76-.47-4.37-.47-3.43,0-5.99,1.07-7.68,3.2-1.69,2.13-2.54,4.94-2.54,8.42,0,3.69.79,6.55,2.38,8.58,1.59,2.03,4.35,3.04,8.31,3.04,1.4,0,2.91-.13,4.52-.39,1.61-.26,3.09-.67,4.45-1.25l1.64,9.52c-1.35.57-3.04,1.06-5.07,1.48-2.03.42-4.26.62-6.71.62-3.74,0-6.97-.56-9.67-1.68-2.7-1.12-4.93-2.64-6.67-4.56-1.74-1.92-3.02-4.2-3.82-6.82-.81-2.63-1.21-5.47-1.21-8.54Z" style="fill: #777;"/>
        <path d="M1351.2,436.6c0-3.64.56-6.83,1.68-9.55,1.12-2.73,2.59-5,4.41-6.83,1.82-1.82,3.91-3.2,6.28-4.13,2.37-.94,4.8-1.4,7.29-1.4,5.82,0,10.42,1.78,13.81,5.34,3.38,3.56,5.07,8.8,5.07,15.72,0,.68-.03,1.42-.08,2.22-.05.81-.1,1.52-.16,2.14h-26.36c.26,2.39,1.38,4.29,3.35,5.69,1.98,1.4,4.63,2.11,7.96,2.11,2.13,0,4.22-.2,6.28-.58,2.05-.39,3.73-.87,5.03-1.44l1.56,9.44c-.62.31-1.46.62-2.5.94-1.04.31-2.2.58-3.47.82-1.28.23-2.64.43-4.1.58-1.46.16-2.91.23-4.37.23-3.69,0-6.9-.55-9.63-1.64-2.73-1.09-4.99-2.59-6.79-4.49-1.79-1.9-3.12-4.15-3.98-6.75-.86-2.6-1.29-5.41-1.29-8.42ZM1378.5,432.15c-.05-.99-.22-1.95-.51-2.89-.29-.94-.73-1.77-1.33-2.5-.6-.73-1.35-1.33-2.26-1.79-.91-.47-2.04-.7-3.39-.7s-2.42.22-3.35.66c-.94.44-1.72,1.03-2.34,1.75-.62.73-1.11,1.57-1.44,2.54-.34.96-.58,1.94-.74,2.92h15.37Z" style="fill: #777;"/>
        <path d="M1410.48,448.45c2.13,0,3.64-.21,4.52-.62.88-.42,1.33-1.22,1.33-2.42,0-.94-.57-1.75-1.72-2.46-1.14-.7-2.89-1.49-5.23-2.38-1.82-.68-3.47-1.38-4.95-2.11-1.48-.73-2.74-1.6-3.78-2.61-1.04-1.01-1.85-2.22-2.42-3.63-.57-1.4-.86-3.09-.86-5.07,0-3.85,1.43-6.89,4.29-9.13,2.86-2.24,6.79-3.35,11.78-3.35,2.5,0,4.89.22,7.18.66,2.29.44,4.11.92,5.46,1.44l-2.03,9.05c-1.35-.47-2.82-.88-4.41-1.25-1.59-.36-3.37-.55-5.34-.55-3.64,0-5.46,1.01-5.46,3.04,0,.47.08.88.23,1.25.16.36.47.71.94,1.05.47.34,1.1.7,1.91,1.1.81.39,1.83.83,3.08,1.3,2.55.94,4.65,1.88,6.32,2.79,1.66.92,2.98,1.91,3.94,2.97.96,1.06,1.64,2.25,2.03,3.54.39,1.3.58,2.8.58,4.51,0,4.05-1.52,7.11-4.56,9.18-3.04,2.07-7.35,3.11-12.91,3.11-3.64,0-6.67-.31-9.09-.94s-4.1-1.14-5.03-1.56l1.95-9.44c1.98.78,4,1.39,6.08,1.83,2.08.44,4.13.66,6.16.66Z" style="fill: #777;"/>
        <path d="M1456.81,395.73h11.08v75.5h-11.08v-75.5Z" style="fill: #777;"/>
        <path d="M1499.87,456.8v-54.05h36.19v10.22h-24.02v11.31h21.37v10.22h-21.37v22.31h-12.17Z" style="fill: #777;"/>
        <path d="M1581.46,436.21c0,3.22-.47,6.17-1.4,8.85-.94,2.68-2.29,4.97-4.06,6.86-1.77,1.9-3.89,3.37-6.36,4.41-2.47,1.04-5.24,1.56-8.31,1.56s-5.76-.52-8.23-1.56c-2.47-1.04-4.59-2.51-6.36-4.41-1.77-1.9-3.15-4.19-4.13-6.86-.99-2.68-1.48-5.63-1.48-8.85s.51-6.16,1.52-8.81c1.01-2.65,2.42-4.91,4.21-6.79s3.93-3.33,6.4-4.37,5.16-1.56,8.07-1.56,5.68.52,8.15,1.56c2.47,1.04,4.59,2.5,6.36,4.37,1.77,1.87,3.15,4.13,4.13,6.79.99,2.65,1.48,5.59,1.48,8.81ZM1569.6,436.21c0-3.59-.72-6.41-2.15-8.46-1.43-2.05-3.47-3.08-6.12-3.08s-4.71,1.03-6.16,3.08c-1.46,2.05-2.18,4.88-2.18,8.46s.73,6.43,2.18,8.54c1.46,2.11,3.51,3.16,6.16,3.16s4.69-1.05,6.12-3.16c1.43-2.11,2.15-4.95,2.15-8.54Z" style="fill: #777;"/>
        <path d="M1615.15,426.07c-1.04-.26-2.26-.53-3.67-.82-1.4-.29-2.91-.43-4.52-.43-.73,0-1.6.07-2.61.2-1.01.13-1.78.27-2.3.43v31.36h-11.62v-38.84c2.08-.73,4.54-1.42,7.37-2.07,2.83-.65,5.99-.97,9.48-.97.62,0,1.38.04,2.26.12.88.08,1.77.18,2.65.31.88.13,1.77.29,2.65.47.88.18,1.64.4,2.26.66l-1.95,9.59Z" style="fill: #777;"/>
        <path d="M1634.96,430.5c1.14-1.24,2.32-2.53,3.54-3.88,1.22-1.34,2.4-2.68,3.55-3.99,1.14-1.32,2.22-2.57,3.23-3.76,1.01-1.19,1.88-2.22,2.61-3.1h13.82c-2.76,3.17-5.45,6.19-8.07,9.07-2.63,2.88-5.5,5.85-8.62,8.91,1.56,1.41,3.17,3.09,4.84,5.04,1.66,1.95,3.28,3.97,4.84,6.06,1.56,2.08,2.99,4.17,4.29,6.25,1.3,2.08,2.39,3.99,3.28,5.7h-13.36c-.83-1.36-1.78-2.85-2.84-4.5-1.06-1.64-2.19-3.28-3.39-4.92s-2.45-3.22-3.78-4.73c-1.32-1.51-2.63-2.79-3.93-3.83v17.98h-11.62v-58.66l11.62-1.87v34.23Z" style="fill: #777;"/>
        <path d="M1691.05,435.04c0-3.74-.48-6.4-1.44-7.96-.96-1.56-2.61-2.34-4.95-2.34-.73,0-1.48.04-2.26.12-.78.08-1.53.17-2.26.27v31.67h-11.62v-39.62c.99-.26,2.15-.53,3.47-.82,1.33-.29,2.73-.55,4.21-.78,1.48-.23,3-.42,4.56-.55s3.09-.2,4.6-.2c2.96,0,5.37.38,7.22,1.13,1.84.75,3.37,1.65,4.56,2.69,1.66-1.2,3.57-2.13,5.73-2.81,2.16-.67,4.15-1.01,5.97-1.01,3.28,0,5.97.46,8.07,1.37,2.11.91,3.78,2.2,5.03,3.86,1.25,1.67,2.11,3.64,2.57,5.93s.7,4.84.7,7.64v23.17h-11.62v-21.76c0-3.74-.48-6.4-1.44-7.96-.96-1.56-2.61-2.34-4.95-2.34-.62,0-1.5.16-2.61.47-1.12.31-2.04.7-2.77,1.17.36,1.2.6,2.46.7,3.78.1,1.33.16,2.74.16,4.25v22.39h-11.62v-21.76Z" style="fill: #777;"/>
        <path d="M1750.48,414.68c3.43,0,6.29.39,8.58,1.17,2.29.78,4.12,1.9,5.5,3.35,1.38,1.46,2.35,3.22,2.92,5.3.57,2.08.86,4.39.86,6.94v24.18c-1.67.36-3.98.79-6.94,1.29-2.96.49-6.55.74-10.76.74-2.65,0-5.06-.23-7.22-.7-2.16-.47-4.02-1.23-5.58-2.3-1.56-1.07-2.76-2.46-3.59-4.17-.83-1.72-1.25-3.82-1.25-6.32s.48-4.42,1.44-6.08c.96-1.66,2.25-2.99,3.86-3.98,1.61-.99,3.46-1.7,5.54-2.14,2.08-.44,4.24-.66,6.47-.66,1.51,0,2.85.07,4.02.2,1.17.13,2.12.3,2.85.51v-1.09c0-1.98-.6-3.56-1.79-4.76-1.2-1.2-3.28-1.79-6.24-1.79-1.98,0-3.93.14-5.85.43-1.92.29-3.59.69-4.99,1.21l-1.48-9.36c.68-.21,1.52-.43,2.54-.66s2.12-.44,3.32-.62c1.2-.18,2.46-.34,3.78-.47,1.33-.13,2.67-.2,4.02-.2ZM1751.42,448.69c1.14,0,2.24-.03,3.28-.08,1.04-.05,1.87-.13,2.5-.23v-8.81c-.47-.1-1.17-.21-2.11-.31-.94-.1-1.79-.16-2.57-.16-1.09,0-2.12.07-3.08.2-.96.13-1.81.38-2.54.74-.73.36-1.3.86-1.72,1.48-.42.62-.62,1.4-.62,2.34,0,1.82.61,3.08,1.83,3.78,1.22.7,2.9,1.05,5.03,1.05Z" style="fill: #777;"/>
        <path d="M1817.01,436.29c0,3.17-.39,6.06-1.17,8.66-.78,2.6-1.92,4.84-3.43,6.71-1.51,1.87-3.38,3.33-5.62,4.37-2.24,1.04-4.81,1.56-7.72,1.56-1.61,0-3.12-.16-4.52-.47-1.4-.31-2.76-.75-4.06-1.33v15.44h-11.62v-54.05c1.04-.31,2.24-.61,3.59-.9,1.35-.29,2.77-.53,4.25-.74,1.48-.21,2.99-.38,4.52-.51,1.53-.13,3-.2,4.41-.2,3.38,0,6.4.51,9.05,1.52,2.65,1.01,4.89,2.45,6.71,4.29,1.82,1.85,3.21,4.1,4.17,6.75.96,2.65,1.44,5.62,1.44,8.89ZM1805.16,436.6c0-3.59-.81-6.46-2.42-8.62-1.61-2.16-4-3.24-7.18-3.24-1.04,0-2,.04-2.89.12-.88.08-1.61.17-2.18.27v20.98c.73.47,1.68.86,2.85,1.17,1.17.31,2.35.47,3.55.47,5.51,0,8.27-3.72,8.27-11.15Z" style="fill: #777;"/>
      </g>
    </g>
  </g>
</svg>