<?xml version="1.0" encoding="UTF-8"?>
<svg id="SvgjsSvg1004" xmlns="http://www.w3.org/2000/svg" xmlns:xlink="http://www.w3.org/1999/xlink" xmlns:svgjs="http://svgjs.dev/svgjs" version="1.1" viewBox="0 0 1852.1 550">
  <!-- Generator: Adobe Illustrator 29.3.1, SVG Export Plug-In . SVG Version: 2.1.0 Build 151)  -->
  <defs>
    <style>
      .st0, .st1 {
        fill: #777;
      }

      .st1 {
        font-size: 78px;
      }

      .st1, .st2 {
        font-family: Ubuntu-Bold, Ubuntu;
        font-weight: 700;
      }

      .st2 {
        font-size: 160px;
      }

      .st2, .st3 {
        fill: #0ac18e;
      }
    </style>
  </defs>
  <rect class="st3" x="-.3" y="500" width="125" height="50"/>
  <rect class="st3" x="-.3" width="50" height="550"/>
  <rect class="st3" x="500" width="50" height="550"/>
  <rect class="st3" x="149.7" y="500" width="400.3" height="50"/>
  <rect class="st0" x="149.7" y="425" width="325.2" height="50"/>
  <rect class="st0" x="149.7" y="470.9" width="50" height="29.1"/>
  <rect class="st3" x="3.8" width="546.2" height="50"/>
  <rect class="st0" x="424.9" y="299" width="50" height="133.2"/>
  <rect class="st0" x="149.7" y="75" width="325.2" height="50"/>
  <rect class="st0" x="149.7" y="258.3" width="325.2" height="50"/>
  <rect class="st0" x="149.7" y="123" width="50" height="139.6"/>
  <rect class="st3" x="74.7" y="100" width="50" height="409.8"/>
  <rect class="st3" x="399.9" y="100" width="50" height="349.2"/>
  <rect class="st3" x="160.7" y="85.2" width="50" height="222" transform="translate(-84.3 188.8) rotate(-45)"/>
  <rect class="st3" x="209" y="179.2" width="244.6" height="50" transform="translate(-47.3 294.1) rotate(-45)"/>
  <g>
    <text class="st2" transform="translate(596 211.4)"><tspan x="0" y="0">minisatoshi.cash</tspan></text>
    <text class="st1" transform="translate(594 363.2)"><tspan x="0" y="0">What is BCH? | Network Upgrades</tspan><tspan x="0" y="93.6">Ecosystem | Resources | Forkmap</tspan></text>
  </g>
</svg>