<?xml version="1.0" encoding="utf-8"?>
<!-- Generator: Adobe Illustrator 24.2.3, SVG Export Plug-In . SVG Version: 6.00 Build 0)  -->
<svg version="1.1" id="Layer_1" xmlns="http://www.w3.org/2000/svg" xmlns:xlink="http://www.w3.org/1999/xlink" x="0px" y="0px"
	 viewBox="0 0 3713 504.79999" style="enable-background:new 0 0 3713 504.79999;" xml:space="preserve">
<style type="text/css">
	.st0{fill:#FFFFFF;}
</style>
<g>
	<path class="st0" d="M724.39978,498.70001c-24.09998,0-48.29999-0.70001-72.09998-2.29999
		c-25.09998-1.70001-50.09998-5.20001-74.70001-10.39999V59c20.20001-3.9,42.70001-6.5,66.90002-8.5
		c24.09998-2,46.59998-2.9,67.5-2.9c28.09998,0,53.79999,2,77.29999,6.2c23.5,3.9,43.70001,10.8,60.70001,20.5
		c17,9.8,30.29999,22.5,39.79999,38.5s14.40002,35.59999,14.40002,58.7c0,35.2-17,62.89999-50.90002,83.2
		c28.09998,10.40001,47,25.09999,57.09998,43.09999c10.09998,18.29999,15.29999,38.79999,15.29999,61.60001
		c0,46.29999-17,80.89999-50.59998,104.10001C840.89978,487.29999,790.99976,498.70001,724.39978,498.70001z M674.19977,225.7
		h48.29999c30.70001,0,52.20001-3.89999,65.59998-11.7c13-7.8,19.59998-20.5,19.59998-37.8c0-17.89999-6.79999-30.3-20.20001-37.5
		c-13.70001-7.2-33.59998-10.8-59.70001-10.8c-8.5,0-17.59998,0-27.40002,0.3s-18.29999,0.7-26.09998,1.60001
		C674.19977,129.8,674.19977,225.7,674.19977,225.7L674.19977,225.7z M674.19977,301.39999v113.80002c7.20001,1,15,1.60001,23.5,2
		s17.90002,0.70001,28.09998,0.70001c29.70001,0,53.5-4.20001,71.79999-12.70001s27.40002-24.10001,27.40002-47
		c0-20.20001-7.5-34.89999-22.79999-43.39999c-15.29999-8.79999-37.20001-13-65.59998-13H674.2998v-0.39999L674.19977,301.39999
		L674.19977,301.39999z"/>
	<path class="st0" d="M1066.89978,62.3c0,17.3-5.5,31-17,41.09999c-11.09998,10.1-24.5,15-39.79999,15
		c-14.70001,0.2-28.90002-5.1-39.79999-15c-11.09998-10.1-17-23.5-17-41.1c0-17.3,5.5-31,17-41.1
		c10.90002-9.8,25.09998-15.2,39.79999-15c14.70001-0.2,28.89996,5.1,39.79999,15C1061.2998,31.3,1066.89978,45,1066.89978,62.3z
		 M1057.7998,493.20001h-94.59998V158.8h94.59998V493.20001z"/>
	<path class="st0" d="M1108.69971,75.6l94.59998-15.3v98.5h113.80005v78.90001h-113.80005v117.39999
		c0,19.89999,3.59998,35.89999,10.40002,47.60001s21.19995,17.89999,42.40002,17.89999c10.5-0.10001,21-1,31.30005-2.89999
		c10.09998-1.79999,20-4.39999,29.69995-7.79999l13.40002,73.70001c-12.40002,5-25.19995,9.10001-38.19995,12.10001
		c-14,3.29999-31,5.20001-51.5,5.20001c-25.80005,0-47.30005-3.60001-64.30005-10.39999s-30.69995-16.60001-40.80005-29.39999
		c-10.09998-12.39999-17.30005-27.70001-21.19995-45.29999c-4.19995-19.39999-6.30005-39.20001-6.19995-59V75.6H1108.69971z"/>
	<path class="st0" d="M1330.49976,326.10001c-0.19995-23.20001,3.80005-46.29999,11.69995-68.19998
		c7.40002-20.7,18.90002-39.7,33.90002-55.8c14.69995-16,32.90002-28.39999,54.09998-37.8c21.19995-9.5,45.30005-14,72.40002-14
		c17.90002,0,34.19995,1.60001,48.90002,4.89999c14.80005,3.2,29.19995,7.8,43.09998,13.7l-19.59998,75.7
		c-9.59998-3.5-19.40002-6.5-29.40002-8.8c-11.69995-2.7-23.59998-4-35.59998-3.89999c-28.09998,0-48.90002,8.8-62.59998,26.09999
		s-20.5,40.10001-20.5,68.5c0,30,6.5,53.5,19.19995,69.79999c13,16.60001,35.59998,24.79999,67.5,24.79999
		c12.40002,0,24.69995-1.10001,36.90002-3.29999c12.40002-1.89999,24.59998-5.29999,36.19995-10.10001l13.40002,77.60001
		c-13.40002,5.39999-27.19995,9.39999-41.40002,12.10001c-18.09998,3.5-36.40002,5.29999-54.80005,5.20001
		c-30.69995,0-56.80005-4.60001-78.90002-13.70001c-22.19995-9.10001-40.09998-21.5-54.5-37.20001s-24.5-34.20001-31-55.5
		C1333.59973,373.29999,1330.59973,349.79999,1330.49976,326.10001z"/>
	<path class="st0" d="M1926.09973,325.5c0,26.39999-3.90002,50.20001-11.40002,72.10001S1896.09973,438,1881.79968,453.39999
		c-14.59998,15.5-32.30005,27.70001-51.90002,35.89999c-20.30005,8.5-42.69995,12.70001-67.5,12.70001
		c-24.5,0-47-4.20001-67.19995-12.70001c-19.69995-8.10001-37.30005-20.39999-51.90002-35.89999
		c-14.40002-15.29999-25.80005-34.20001-33.59998-55.79999c-8.19995-21.89999-12.09998-46-12.09998-72.10001
		c0-26.39999,4.19995-50.20001,12.40002-71.8c8.19995-21.5,19.59998-40.09999,34.19995-55.09999
		c14.80005-15.3,32.5-27.5,52.19995-35.60001c20.19995-8.5,42.09998-12.7,65.90002-12.7c24.09998,0,46.30005,4.2,66.5,12.7
		s37.5,20.2,51.90002,35.60001c14.80005,15.89999,26.30005,34.60001,33.59998,55.10001
		C1921.89978,275.29999,1926.09973,299.10001,1926.09973,325.5z M1829.59973,325.5c0-29.39999-5.90002-52.20001-17.59998-68.79999
		s-28.40002-25.10001-49.90002-25.10001s-38.5,8.5-50.19995,25.10001S1693.99976,296.5,1693.99976,325.5
		c0,29.39999,5.90002,52.5,17.90002,69.5c11.69995,17.29999,28.69995,25.79999,50.19995,25.79999s38.19995-8.5,49.90002-25.79999
		S1829.59973,354.5,1829.59973,325.5z"/>
	<path class="st0" d="M2067.69971,62.3c0,17.3-5.5,31-17,41.09999c-11.09998,10.1-24.5,15-39.80005,15
		c-14.69995,0.2-28.90002-5.1-39.80005-15c-11.09998-10.1-17-23.5-17-41.1c0-17.3,5.5-31,17-41.1
		c10.90002-9.8,25.09998-15.2,39.80005-15c14.69995-0.2,28.90002,5.1,39.80005,15C2062.09985,31.3,2067.69971,45,2067.69971,62.3z
		 M2058.89966,493.20001h-94.59998V158.8h94.59998V493.20001z"/>
	<path class="st0" d="M2112.69971,170.2c16-4.60001,36.8999-9.10001,62.30005-13c26.3999-4.10001,53.1001-6.2,79.8999-6.2
		c28.3999,0,51.8999,3.60001,70.80005,11.10001s33.8999,17.89999,44.69995,31.3c11.1001,13.7,18.8999,29.7,23.5,48.3
		s6.80005,39.5,6.80005,62.29999v188.89999h-94.6001v-177.5c0-30.70001-3.8999-52.20001-12.1001-64.89999
		s-23.19995-18.89999-45-18.89999c-6.80005,0-14,0.3-21.5,1s-14.3999,1.3-20.19995,2.3v258h-94.6001L2112.69971,170.2
		L2112.69971,170.2z"/>
	<path class="st0" d="M2659.39966,502c-71.80005,0-126.19995-19.89999-163.69995-59.70001s-56.1001-96.20001-56.1001-169.60001
		c0-36.5,5.8999-68.8,17.30005-97.5s27.1001-52.8,47-72.4c20.19995-19.8,44.5-35.1,71.1001-44.7
		c27.3999-10.1,57.3999-15.3,89.69995-15.3c18.6001,0,35.6001,1.3,50.8999,4.2c13.6001,2.2,27,5.4,40.1001,9.5
		c9.80005,3,19.3999,6.7,28.69995,11.1c7.5,3.9,13,6.8,16.6001,8.8l-28.69995,79.9c-15.1001-7.8-30.8999-13.89999-47.30005-18.3
		c-17.8999-5.2-38.5-7.5-61.30005-7.5c-15.19995,0-30.30005,2.60001-44.69995,7.5c-14.6001,5.2-27.80005,13.60001-38.80005,24.5
		c-11.1001,11.10001-20.19995,25.8-27.1001,43.40001c-6.80005,17.89999-10.1001,39.5-10.1001,64.89999
		c-0.1001,19.10001,2.1001,38.20001,6.5,56.79999c4.6001,17.60001,11.69995,32.60001,21.5,45.29999
		c10.3999,13.10001,23.80005,23.5,39.1001,30.29999c16,7.5,35.6001,11.10001,58.3999,11.10001
		c13,0,25.8999-0.79999,38.80005-2.60001c10.3999-1.39999,20.6001-3.39999,30.69995-6.20001c8-2,15.8999-4.60001,23.5-7.79999
		c6.80005-2.89999,13-5.89999,18.30005-8.20001l27.3999,79.60001c-14,8.5-33.6001,16-59,22.79999
		C2722.2998,498.70001,2692.69971,502,2659.39966,502z"/>
	<path class="st0" d="M2955.59985,150c28.1001,0,51.19995,3.3,69.80005,9.5s33.6001,15.3,44.69995,27.39999
		c11.3999,12.2,19.5,27,23.80005,43.10001c4.6001,17,6.80005,35.89999,6.80005,56.39999v197
		c-13.69995,2.89999-32.30005,6.5-56.3999,10.39999S2990.80005,500,2956.6001,500c-21.5,0-41.1001-2-58.69995-5.89999
		c-17.6001-3.89999-32.6001-10.10001-45.30005-18.60001c-12.6001-8.60001-22.69995-20.20001-29.3999-33.89999
		c-6.80005-14-10.1001-31-10.1001-51.5c0-19.60001,3.8999-35.89999,11.69995-49.60001
		c7.3999-13.29999,18.19995-24.39999,31.30005-32.29999c13-8.20001,28.1001-14,45-17.60001
		c17.3999-3.70001,35.1001-5.5,52.80005-5.5c12.3999,0,23.19995,0.70001,32.6001,1.60001c9.5,1,17.30005,2.29999,23.19995,4.20001
		v-8.79999c0-16-4.8999-29-14.69995-38.8s-26.69995-14.7-50.8999-14.7c-15.8999,0-31.80005,1.2-47.6001,3.60001
		c-15.69995,2.3-29.3999,5.5-40.80005,9.8l-12.1001-76.3c5.5-1.60001,12.3999-3.60001,20.5-5.5
		c8.19995-2,17.30005-3.60001,27.1001-5.2s19.8999-2.60001,30.69995-3.89999C2933.39966,150.7,2944.49976,150,2955.59985,150z
		 M2963.09985,426.89999c9.5,0,18.30005-0.29999,26.69995-0.70001c6.80005-0.10001,13.5-0.79999,20.19995-2v-71.80002
		c-3.8999-1-9.5-1.60001-17.30005-2.60001c-6.8999-0.89999-13.8999-1.29999-20.8999-1.29999
		c-8.3999,0.10001-16.80005,0.60001-25.1001,1.60001c-7.80005,1-14.69995,2.89999-20.5,6.20001
		c-5.69995,2.70001-10.5,6.89999-14,12.10001c-3.5,5.70001-5.30005,12.20001-5.19995,18.89999
		c0,14.70001,4.8999,25.10001,15,30.70001C2932.09985,424.29999,2945.7998,426.89999,2963.09985,426.89999z"/>
	<path class="st0" d="M3247.7998,425.29999c17.30005,0,29.69995-1.60001,36.8999-5.20001
		c7.19995-3.29999,10.80005-10.10001,10.80005-19.60001c0-7.5-4.6001-14.39999-14-19.89999
		c-9.5-5.89999-23.5-12.10001-42.69995-19.20001c-14.69995-5.5-28.3999-11.10001-40.3999-17.29999
		c-12.1001-5.89999-22.5-13-30.69995-21.20001c-8.6001-8.39999-15.19995-18.5-19.6001-29.70001
		c-4.6001-11.39999-6.80005-25.10001-6.80005-41.39999c0-31.3,11.69995-56.10001,34.8999-74.39999
		s55.1001-27.39999,95.8999-27.39999c19.6001,0,39.1001,1.89999,58.3999,5.5c18.6001,3.60001,33.6001,7.5,44.3999,11.7
		l-16.6001,73.7c-11.80005-4.10001-23.69995-7.5-35.8999-10.10001c-14.30005-3.10001-28.80005-4.7-43.3999-4.60001
		c-29.69995,0-44.3999,8.2-44.3999,24.8c-0.1001,3.5,0.6001,6.90001,2,10.09999c1.69995,3.39999,4.30005,6.39999,7.5,8.5
		c5,3.39999,10.19995,6.29999,15.69995,8.79999c8.1001,4,16.5,7.39999,25.1001,10.39999
		c20.8999,7.79999,37.80005,15.29999,51.5,22.79999s24.1001,15.70001,32,24.10001c7.5,8.29999,13.19995,18,16.6001,28.70001
		c3.30005,10.39999,4.8999,22.79999,4.8999,36.89999c0,32.89999-12.3999,58.10001-37.19995,74.70001
		c-24.80005,17-59.69995,25.39999-105,25.39999c-29.69995,0-54.5-2.60001-74-7.5c-19.6001-5.20001-33.30005-9.5-41.1001-12.70001
		l16-77c16.1001,6.29999,32.69995,11.29999,49.6001,15C3214.49976,423.29999,3231.09985,425.29999,3247.7998,425.29999z"/>
	<path class="st0" d="M3424.99976,493.20001V15.3l94.6001-15.3v160.2c8-2.5,16.19995-4.60001,24.5-6.2
		c9.5-1.89999,19.30005-2.89999,29-2.89999c27.1001,0,49.6001,3.60001,67.5,11.10001s32.30005,17.89999,43.1001,31.3
		c10.80005,13.7,18.30005,29.7,22.80005,48.3c4.6001,18.60001,6.5,39.5,6.5,62.29999V493h-94.6001V315.39999
		c0-30.70001-3.8999-52.20001-11.69995-64.89999s-22.5-18.89999-43.3999-18.89999c-8-0.10001-16,0.7-23.80005,2.3
		c-7.5,1.60001-14,2.89999-19.8999,4.89999v254.10002h-94.60034V493.20001L3424.99976,493.20001z"/>
</g>
<g>
	<path class="st0" d="M281.30002,196.39999c-11.39999-32.2-55.10001-14.3-70.2-10.39999l14.2,53.2
		C240.40001,235.3,286.89999,231.2,281.30002,196.39999z"/>
	<path class="st0" d="M231.20001,266.29999l15.7,58.60001c18.09999-4.70001,72.49998-9.5,67.2-48.70001
		C305.20001,241.60001,249.40001,261.5,231.20001,266.29999z"/>
	<path class="st0" d="M249.20001,6C111.6,6,0,117.6,0,255.2s111.6,249.2,249.20001,249.2s249.19998-111.60001,249.19998-249.2
		S386.80002,6,249.20001,6z M302.70001,344.60001l11.39999,44.20001l-26.70001,6.89999L276,351.30002
		c-7,1.79999-14,3.60001-21.39999,5.29999L266,401.20001l-26.60001,6.89999l-11.5-44.29999c-6.3,1.5-53.8,13.70001-53.8,13.70001
		L171.2,344.30002c0,0,19.8-4.79999,19.39999-5c7.5-1.89999,8.10001-7.89999,7.7-11.39999l-31-120
		c-2.5-5.10001-7.60001-10.5-18.39999-7.7c0.2-0.5-19.39999,5-19.39999,5l-7.40001-28.5c0,0,48.00002-12.39999,53.70001-14
		l-11.3-43.8l26.7-6.9l11.2,43.4c7.10001-2,14.3-3.5,21.3-5.3L212.60001,106.4l26.7-6.9l11.3,43.8
		C285.80002,137.5,314.5,143.40001,327,171.8c8.20001,22.5,1.39999,39.8-11.79999,51.8c21.70001,2.2,47.70001,21.8,51.5,45.60001
		C372.70001,308.79999,343.70001,334.60001,302.70001,344.60001z"/>
</g>
</svg>
