<?xml version="1.0" encoding="utf-8"?>
<!-- Generator: Adobe Illustrator 24.2.3, SVG Export Plug-In . SVG Version: 6.00 Build 0)  -->
<svg version="1.1" id="Layer_1" xmlns="http://www.w3.org/2000/svg" xmlns:xlink="http://www.w3.org/1999/xlink" x="0px" y="0px"
	 viewBox="0 0 691 258" style="enable-background:new 0 0 691 258;" xml:space="preserve">
<style type="text/css">
	.st0{fill:#0AC18E;}
</style>
<g>
	<path class="st0" d="M288.17038,183.50002c-0.39999-2.8-0.89999-5.60001-1.29999-8.3s-0.89999-5.2-1.39999-7.39999h-6.5
		c-1.60001,2.3-3.10001,4.60001-4.70001,6.89999s-3.10001,4.8-4.79999,7.39999s-3.29999,5.39999-5.10001,8.3
		c-1.70001,2.89999-3.60001,6.10001-5.60001,9.60001h7.5c0.70001-1.3,1.29999-2.39999,2-3.60001s1.39999-2.39999,2-3.5h12.10001
		c0.10001,1.2,0.20001,2.3,0.29999,3.5s0.10001,2.39999,0.20001,3.60001h7.29999c-0.29999-2.5-0.60001-5.2-0.89999-8
		C288.87036,189.20001,288.57037,186.30002,288.17038,183.50002z M273.27036,187.30002c1.10001-2.2,2.29999-4.3,3.60001-6.3
		c1.20001-2.10001,2.5-4.10001,3.79999-6.2c0.29999,2.2,0.60001,4.3,0.79999,6.5c0.20001,2.10001,0.29999,4.10001,0.5,6H273.27036z"
		/>
	<path class="st0" d="M304.87036,177.10001c1-1.2,2.20001-2.2,3.60001-2.89999c1.5-0.7,3.10001-1.10001,4.79999-1.10001
		c1.10001,0,2.20001,0.2,3.29999,0.39999c1.20001,0.3,2.39999,0.8,3.5,1.39999l2.60001-5.60001
		c-1.39999-0.8-2.89999-1.39999-4.5-1.8c-1.39999-0.3-2.89999-0.5-4.39999-0.5c-2.89999-0.10001-5.70001,0.60001-8.29999,1.8
		c-2.29999,1.10001-4.39999,2.7-6.10001,4.60001c-1.70001,1.89999-3,4-3.79999,6.39999c-0.89999,2.3-1.29999,4.7-1.29999,7.2
		c0,1.89999,0.29999,3.89999,0.89999,5.7c0.60001,1.60001,1.39999,3.10001,2.60001,4.3c1.10001,1.2,2.5,2.10001,4.10001,2.7
		c1.70001,0.7,3.5,1,5.29999,1c1.89999,0,3.79999-0.2,5.70001-0.60001c1.39999-0.39999,2.79999-0.89999,4.20001-1.5
		l-0.79999-5.89999c-1.10001,0.5-2.29999,0.89999-3.5,1.2c-1.29999,0.3-2.70001,0.5-4.10001,0.5
		c-1.89999,0.10001-3.79999-0.60001-5.10001-1.89999c-1.20001-1.3-1.79999-3.3-1.79999-6c0-1.7,0.29999-3.5,0.79999-5.10001
		C303.07037,179.80002,303.77036,178.40001,304.87036,177.10001z"/>
	<path class="st0" d="M332.97037,177.10001c1-1.2,2.20001-2.2,3.60001-2.89999c1.5-0.7,3.10001-1.10001,4.79999-1.10001
		c1.10001,0,2.20001,0.2,3.29999,0.39999c1.20001,0.3,2.39999,0.8,3.5,1.39999l2.60001-5.60001
		c-1.39999-0.8-2.89999-1.39999-4.5-1.8c-1.39999-0.3-2.89999-0.5-4.39999-0.5c-2.89999-0.10001-5.70001,0.60001-8.29999,1.8
		c-2.29999,1.10001-4.39999,2.7-6.10001,4.60001c-1.70001,1.89999-3,4-3.79999,6.39999c-0.89999,2.3-1.29999,4.7-1.29999,7.2
		c0,1.89999,0.29999,3.89999,0.89999,5.7c0.60001,1.60001,1.39999,3.10001,2.60001,4.3c1.10001,1.2,2.5,2.10001,4.10001,2.7
		c1.70001,0.7,3.5,1,5.29999,1c1.89999,0,3.79999-0.2,5.70001-0.60001c1.39999-0.39999,2.79999-0.89999,4.20001-1.5
		l-0.79999-5.89999c-1.10001,0.5-2.29999,0.89999-3.5,1.2c-1.29999,0.3-2.70001,0.5-4.10001,0.5
		c-1.89999,0.10001-3.79999-0.60001-5.10001-1.89999c-1.20001-1.3-1.79999-3.3-1.79999-6c0-1.7,0.29999-3.5,0.79999-5.10001
		C331.17038,179.80002,331.87036,178.40001,332.97037,177.10001z"/>
	<polygon class="st0" points="371.97037,186.20001 373.37036,180.30002 361.17038,180.30002 362.67038,173.80002 
		376.47037,173.80002 377.97037,167.80002 356.87036,167.80002 349.17038,200.00002 349.17038,200.10001 371.27036,200.10001 
		372.77036,194.10001 357.87036,194.10001 359.77036,186.20001 	"/>
	<path class="st0" d="M401.97037,169.80002c-1.20001-0.89999-2.60001-1.5-4-1.8c-1.70001-0.39999-3.5-0.60001-5.29999-0.60001
		c-1.29999,0-2.70001,0.10001-4.10001,0.10001c-1.5,0.2-3.10001,0.39999-4.79999,0.7l-7.60001,31.8h7.20001l2.60001-10.8h1.79999
		c2.39999,0,4.70001-0.2,7-0.7c2-0.3,3.89999-1,5.60001-2.10001c1.5-1,2.79999-2.3,3.70001-3.89999
		c0.89999-1.8,1.29999-3.89999,1.29999-5.89999c0-1.39999-0.29999-2.7-0.89999-3.89999
		C403.87036,171.60001,402.97037,170.60001,401.97037,169.80002z M397.97037,177.30002c0,0.89999-0.20001,1.89999-0.60001,2.7
		c-0.5,0.7-1.10001,1.3-1.79999,1.8c-0.79999,0.5-1.70001,0.89999-2.70001,1c-1.20001,0.2-2.39999,0.3-3.60001,0.3h-1.79999
		l2.20001-9.5c0.39999,0,0.70001-0.10001,1.10001-0.10001h1.29999c1.5-0.10001,3,0.2,4.39999,0.8
		C397.47037,174.90001,398.07037,176.10001,397.97037,177.30002z"/>
	<polygon class="st0" points="435.97037,167.80002 409.87036,167.80002 408.37036,173.90001 417.77036,173.90001 
		411.47037,200.00002 418.77036,200.00002 425.07037,173.90001 434.47037,173.90001 	"/>
	<polygon class="st0" points="454.87036,186.20001 456.27036,180.30002 444.07037,180.30002 445.57037,173.80002 
		459.37036,173.80002 460.87036,167.80002 439.77036,167.80002 432.07037,200.00002 432.07037,200.10001 454.17038,200.10001 
		455.67038,194.10001 440.77036,194.10001 442.67038,186.20001 	"/>
	<path class="st0" d="M486.87036,171.10001c-1.29999-1.2-2.89999-2.10001-4.60001-2.7c-2-0.60001-4.10001-0.89999-6.20001-0.89999
		c-1.29999,0-2.79999,0.10001-4.39999,0.2s-3.29999,0.39999-5.10001,0.7l-7.5,31.10001c1.60001,0.3,3.20001,0.5,4.89999,0.7
		c1.70001,0.10001,3.20001,0.2,4.5,0.2c3.20001,0,6.29999-0.39999,9.29999-1.39999c2.60001-0.89999,5-2.2,7-4
		c1.89999-1.7,3.39999-3.89999,4.39999-6.3c1-2.7,1.5-5.5,1.5-8.39999c0-1.7-0.29999-3.5-0.89999-5.10001
		C489.17038,173.60001,488.17038,172.20001,486.87036,171.10001z M482.27036,186.40001
		c-0.60001,1.60001-1.39999,3.10001-2.60001,4.3c-1.10001,1.2-2.5,2.10001-4.10001,2.7
		c-1.79999,0.60001-3.60001,0.89999-5.5,0.89999h-1.5c-0.29999,0-0.70001-0.10001-1-0.10001l4.89999-20.7
		c0.89999-0.10001,1.89999-0.10001,2.79999-0.10001c1.20001,0,2.39999,0.2,3.60001,0.5c0.89999,0.3,1.79999,0.8,2.5,1.5
		c0.70001,0.60001,1.10001,1.39999,1.39999,2.3c0.29999,1,0.39999,2,0.39999,3
		C483.17038,182.60001,482.87036,184.60001,482.27036,186.40001z"/>
	<polygon class="st0" points="528.77039,167.80002 525.77039,180.20001 514.27039,180.20001 517.27039,167.80002 
		509.97037,167.80002 502.27036,200.00002 509.47037,200.00002 512.77039,186.30002 524.27039,186.30002 520.9704,200.00002 
		528.27039,200.00002 536.07037,167.80002 	"/>
	<polygon class="st0" points="557.67041,186.20001 559.07037,180.30002 546.87042,180.30002 548.37042,173.80002 
		562.17041,173.80002 563.67041,167.80002 542.57037,167.80002 534.87042,200.00002 534.87042,200.10001 556.9704,200.10001 
		558.4704,194.10001 543.57037,194.10001 545.4704,186.20001 	"/>
	<path class="st0" d="M587.87042,170.10001c-1.20001-0.89999-2.5-1.60001-3.90002-2c-1.79999-0.5-3.59998-0.8-5.40002-0.7
		c-1.29999,0-2.70001,0.10001-4.20001,0.2c-1.59998,0.2-3.20001,0.39999-4.90002,0.7l-7.59998,31.8h7.20001l2.79999-11.8h3.59998
		c1,1.7,1.79999,3.5,2.40002,5.39999c0.79999,2,1.5,4.2,2.20001,6.3h7.79999c-0.79999-2.5-1.70001-4.89999-2.59998-7.2
		c-0.79999-2-1.70001-4-2.70001-5.89999c1.5-0.39999,2.90002-1,4.09998-1.89999c1-0.7,1.90002-1.5,2.59998-2.5
		c0.59998-0.8,1.09998-1.8,1.29999-2.8s0.29999-2,0.29999-3c0-1.2-0.20001-2.5-0.70001-3.60001
		C589.67041,171.90001,588.87042,170.90001,587.87042,170.10001z M583.37042,179.30002
		c-0.29999,0.60001-0.70001,1.2-1.29999,1.60001c-0.79999,0.5-1.59998,0.89999-2.5,1.10001
		c-1.20001,0.3-2.5,0.39999-3.79999,0.39999h-2.5l2.09998-8.8c0.40002,0,0.79999-0.10001,1.40002-0.10001h1.59998
		c0.90002,0,1.90002,0.10001,2.79999,0.3c1.09998,0.3,2,1.10001,2.40002,2.2c0.09998,0.5,0.20001,1,0.20001,1.5
		C583.77039,178.10001,583.67041,178.70001,583.37042,179.30002z"/>
	<polygon class="st0" points="618.9704,173.80002 620.4704,167.80002 599.37042,167.80002 591.67041,200.00002 591.67041,200.10001 
		613.77039,200.10001 615.27039,194.10001 600.37042,194.10001 602.27039,186.20001 614.4704,186.20001 615.87042,180.30002 
		603.67041,180.30002 605.17041,173.80002 	"/>
	<path class="st0" d="M181.47037,99.10002c5.5-3.40001,8.3-7.90001,8.3-13.60001c0.10001-3.39999-0.8-6.7-2.39999-9.59999
		c-1.60001-2.60001-3.8-4.90001-6.5-6.3c-3.10001-1.7-6.5-2.8-9.89999-3.40001c-4.2-0.8-8.39999-1.09999-12.60001-1
		c-3.5,0-7.10001,0.10001-11,0.40001c-3.7,0.2-7.39999,0.8-10.89999,1.39999v70.09999c4,0.89999,8.10001,1.39999,12.2,1.7
		c3.89999,0.2,7.89999,0.3,11.8,0.3c10.89999,0,19.10001-1.8,24.8-5.7c5.5-3.8,8.3-9.5,8.3-17.09999
		c0-3.60001-0.89999-7-2.5-10.10001C189.17036,103.20001,186.17036,100.80002,181.47037,99.10002z M152.07037,94.30002v-15.7
		c1.3-0.10001,2.7-0.2,4.3-0.2s3.10001,0,4.5,0c4.3,0,7.60001,0.5,9.8,1.7s3.39999,3.2,3.39999,6.2c0.2,2.5-1.10001,4.89999-3.2,6.2
		c-2.2,1.3-5.7,1.89999-10.7,1.89999L152.07037,94.30002z M172.37036,123.80002c-3.7,1.5-7.8,2.3-11.8,2.09999
		c-1.60001,0-3.2,0-4.60001-0.09999c-1.39999-0.10001-2.7-0.10001-3.89999-0.3V106.8l0,0v0.10001h10.2
		c4.60001,0,8.2,0.59999,10.7,2.2c2.5,1.39999,3.8,3.8,3.8,7.09999C176.87036,119.80002,175.37036,122.40001,172.37036,123.80002
		L172.37036,123.80002z"/>
	<path class="st0" d="M207.27037,58.40002c-2.39999,0-4.8,0.9-6.5,2.5c-1.89999,1.7-2.89999,4.2-2.8,6.7
		c-0.10001,2.59999,0.89999,5,2.8,6.7c3.8,3.2,9.3,3.2,13.10001,0c1.89999-1.7,2.89999-4.2,2.8-6.7
		c0.10001-2.60001-0.89999-5-2.8-6.7S209.57037,58.30001,207.27037,58.40002z"/>
	<rect x="199.57037" y="83.40001" class="st0" width="15.5" height="54.8"/>
	<path class="st0" d="M252.67036,125.90001c-1.7,0.3-3.5,0.40001-5.10001,0.40001c-3.5,0-5.8-1-6.89999-2.90001
		c-1.2-2.39999-1.8-5.09999-1.7-7.8v-19.2h18.70001v-13h-18.7V67.30002l-15.60001,2.5h-0.10001v46.2c0,3.2,0.3,6.5,1,9.60001
		c0.5,2.7,1.7,5.29999,3.5,7.49998c1.7,2.2,4.10001,3.8,6.7,4.89999c3.39999,1.2,6.89999,1.8,10.60001,1.7
		c2.8,0,5.60001-0.2,8.39999-0.89999c2.20001-0.5,4.20001-1.2,6.29999-1.89999l-2.20001-12.09999
		C255.97037,125.10002,254.37036,125.60002,252.67036,125.90001z"/>
	<path class="st0" d="M295.77036,125.90001c-1.89999,0.3-4,0.5-6.10001,0.5c-5.20001,0-9-1.3-11-4.09999
		c-2.10001-2.7-3.10001-6.5-3.10001-11.5c0-4.60001,1.10001-8.40001,3.39999-11.2c2.29999-2.8,5.60001-4.3,10.29999-4.3
		c1.89999,0,3.89999,0.2,5.79999,0.59999c1.60001,0.40001,3.20001,0.90001,4.89999,1.40001l3.20001-12.40001
		c-2.29999-1-4.60001-1.7-7-2.3c-2.60001-0.5-5.29999-0.89999-8-0.8c-4.10001-0.09999-8.10001,0.60001-11.89999,2.3
		c-6.70001,2.8-12,8.40001-14.39999,15.40001c-1.29999,3.59999-1.89999,7.39999-1.89999,11.09999c0,3.90001,0.5,7.8,1.5,11.5
		c1,3.40001,2.70001,6.5,5.10001,9.10001c2.5,2.7,5.5,4.8,9,6.10001c4.10001,1.60001,8.5,2.39999,13,2.3c3,0,6.10001-0.3,9-0.89999
		c2.29999-0.39999,4.60001-1.10001,6.79999-1.89999l-2.20001-12.8C299.87036,125.00002,297.87036,125.60002,295.77036,125.90001z"/>
	<path class="st0" d="M349.97037,89.90001c-2.39999-2.5-5.29999-4.5-8.5-5.8c-3.5-1.39999-7.10001-2.2-10.89999-2.09999
		c-3.70001,0-7.39999,0.59999-10.79999,2.09999c-3.20001,1.3-6.20001,3.40001-8.5,5.8c-2.5,2.60001-4.29999,5.60001-5.60001,9.10001
		c-1.39999,3.8-2.10001,7.8-2.10001,11.8c-0.10001,4,0.60001,8,1.89999,11.8c1.20001,3.39999,3,6.49998,5.5,9.2
		c2.39999,2.60001,5.29999,4.5,8.5,5.8c7.10001,2.8,15,2.8,22.10001,0c3.20001-1.3,6.20001-3.39999,8.5-5.8
		c2.39999-2.60001,4.20001-5.7,5.39999-9.2c1.29999-3.8,1.89999-7.8,1.79999-11.8c0-4-0.60001-8-1.89999-11.8
		C354.27036,95.60002,352.47037,92.50002,349.97037,89.90001z M338.67038,122.10002c-3.20001,4.5-9.5,5.59999-14.10001,2.39999
		c-0.89999-0.59999-1.70001-1.39999-2.39999-2.39999c-1.89999-2.8-2.89999-6.60001-2.89999-11.40001s1-8.5,2.89999-11.2
		c3.39999-4.5,9.79999-5.5,14.39999-2.09999c0.79999,0.5,1.5,1.3,2.10001,2.09999c1.89999,2.7,2.89999,6.5,2.89999,11.2
		C341.57037,115.50002,340.67038,119.30002,338.67038,122.10002z"/>
	<path class="st0" d="M371.37036,58.40002c-2.39999,0-4.79999,0.9-6.5,2.5c-1.89999,1.7-2.89999,4.2-2.79999,6.7
		c-0.10001,2.59999,0.89999,5,2.79999,6.7c3.79999,3.2,9.29999,3.2,13.10001,0c1.89999-1.7,2.89999-4.2,2.79999-6.7
		c0.10001-2.60001-0.89999-5-2.79999-6.7S373.77036,58.30001,371.37036,58.40002z"/>
	<rect x="363.67038" y="83.40001" class="st0" width="15.5" height="54.8"/>
	<path class="st0" d="M434.17038,97.00002c-0.60001-2.89999-1.89999-5.59999-3.89999-7.89999
		c-1.89999-2.3-4.39999-4.10001-7.39999-5.10001c-3.70001-1.3-7.70001-1.89999-11.60001-1.8c-4.39999,0-8.79999,0.3-13.10001,1
		c-3.5,0.5-6.79999,1.2-10.20001,2.2v52.90001h15.5v-42.5c1-0.10001,2.10001-0.2,3.39999-0.3s2.39999-0.2,3.60001-0.2
		c3.60001,0,6.10001,1,7.39999,3.09999c1.29999,2.2,1.89999,5.60001,1.89999,10.60001v29.09999h15.60001v-31
		C435.27036,103.70001,434.97037,100.40001,434.17038,97.00002z"/>
	<path class="st0" d="M494.37036,122.50002c-1.29999,0.5-2.60001,1-3.89999,1.3c-1.60001,0.40001-3.39999,0.8-5.10001,1
		c-2.20001,0.3-4.20001,0.40001-6.39999,0.40001c-3.20001,0.09999-6.60001-0.5-9.60001-1.8c-2.5-1.10001-4.60001-2.8-6.39999-5
		c-1.60001-2.2-2.89999-4.8-3.60001-7.5c-0.79999-3-1.10001-6.2-1.10001-9.3c-0.10001-3.60001,0.39999-7.2,1.60001-10.60001
		c1-2.7,2.5-5.09999,4.39999-7.09999c1.79999-1.8,4-3.10001,6.39999-4c2.39999-0.8,4.89999-1.2,7.39999-1.2
		c3.39999-0.10001,6.79999,0.3,10.10001,1.2c2.70001,0.8,5.29999,1.7,7.79999,3l4.79999-13.10001c-0.5-0.3-1.5-0.8-2.70001-1.39999
		c-1.5-0.8-3.10001-1.3-4.79999-1.8c-2.20001-0.60001-4.29999-1.2-6.60001-1.5c-2.70001-0.5-5.5-0.8-8.29999-0.60001
		c-5,0-9.89999,0.8-14.70001,2.5c-4.29999,1.60001-8.29999,4.10001-11.70001,7.40001c-3.39999,3.39999-5.89999,7.5-7.70001,11.89999
		c-1.89999,5.10001-2.89999,10.5-2.79999,16c0,12,3,21.3,9.20001,27.8s15,9.8,26.79999,9.8
		c4.89999,0.10001,9.79999-0.5,14.60001-1.60001c3.39999-0.8,6.60001-2.10001,9.60001-3.8l-4.5-13.09999
		C496.57037,121.50002,495.47037,122.10002,494.37036,122.50002z"/>
	<path class="st0" d="M544.9704,88.00002c-2.09998-2.09999-4.5-3.7-7.40002-4.5c-3.70001-1.09999-7.59998-1.59999-11.5-1.5
		c-1.79999,0-3.70001,0.10001-5.5,0.2c-1.70001,0.2-3.5,0.3-5.09998,0.60001s-3.09998,0.5-4.40005,0.89999
		c-1.29999,0.3-2.5,0.60001-3.39999,0.90001l2.10001,12.5c2.20001-0.8,4.40005-1.3,6.70004-1.60001
		c2.59998-0.39999,5.20001-0.5,7.79999-0.5c4,0,6.70001,0.8,8.29999,2.40001c1.59998,1.7,2.5,4,2.40002,6.39999v1.40001
		c-1.20001-0.3-2.5-0.5-3.79999-0.60001c-1.5-0.09999-3.40002-0.2-5.29999-0.2c-2.90002,0-5.79999,0.3-8.59998,0.90001
		c-2.59998,0.5-5.09998,1.5-7.40002,2.89999c-2.20001,1.3-3.89999,3.10001-5.10001,5.3c-1.29999,2.5-2.10001,5.3-1.89999,8.10001
		c-0.10001,2.89999,0.39999,5.79999,1.60001,8.39999c1.10001,2.3,2.79999,4.10001,4.89999,5.5c2.30002,1.5,4.80005,2.5,7.5,3
		c3.09998,0.60001,6.40002,1,9.59998,1c4.90002,0,9.59998-0.3,14.40002-1c4-0.60001,7-1.2,9.29999-1.7v-32.3
		c0-3.09999-0.29999-6.3-1.09998-9.3C548.27039,92.50002,546.77039,90.00002,544.9704,88.00002z M535.17041,127.00002
		c-1.09998,0.2-2.20001,0.3-3.40002,0.3c-1.40002,0.10001-2.79999,0.10001-4.29999,0.10001l0,0
		c-2.40002,0.10001-4.59998-0.3-6.70001-1.39999c-1.59998-0.90001-2.5-2.60001-2.5-5.10001c0-1.09999,0.29999-2.2,0.90002-3.09999
		c0.5-0.90001,1.40002-1.5,2.29999-1.90001c1.09998-0.5,2.20001-0.89999,3.40002-1c1.40002-0.2,2.70001-0.2,4.09998-0.2
		c1.20001,0,2.29999,0.10001,3.5,0.2c1,0.10001,1.90002,0.2,2.79999,0.40001L535.17041,127.00002z"/>
	<path class="st0" d="M593.9704,112.40001c-1.5-1.59999-3.40002-2.89999-5.29999-4c-2.70001-1.39999-5.5-2.7-8.40002-3.8
		c-1.40002-0.39999-2.79999-1.09999-4.09998-1.7c-0.90002-0.39999-1.70001-0.89999-2.59998-1.39999
		c-0.5-0.3-1-0.90001-1.20001-1.40001s-0.29999-1.09999-0.29999-1.59999c0-2.7,2.40002-4.10001,7.20001-4.10001
		c2.40002,0,4.79999,0.2,7.09998,0.8c1.90002,0.40001,4,1,5.79999,1.60001l2.70001-12.10001
		c-2.40002-0.89999-4.79999-1.5-7.20001-1.89999c-3.09998-0.60001-6.40002-0.90001-9.59998-0.90001
		c-6.70001,0-11.90002,1.5-15.70001,4.5c-3.79999,2.90001-5.90002,7.5-5.70001,12.2c-0.09998,2.3,0.29999,4.60001,1.09998,6.8
		c0.79999,1.8,1.79999,3.5,3.20001,4.90001c1.5,1.39999,3.09998,2.59999,5.09998,3.5c2.20001,1.09999,4.29999,2.09999,6.59998,2.8
		c2.40002,0.89999,4.79999,1.8,7,3.09999c1.29999,0.5,2.20001,1.8,2.29999,3.2c0.09998,1.3-0.5,2.60001-1.70001,3.2
		c-1.90002,0.60001-4,1-6.09998,0.89999c-2.70001,0-5.5-0.3-8.09998-1c-2.79999-0.59999-5.5-1.39999-8.09998-2.5l-2.59998,12.60001
		c2.20001,0.89999,4.40002,1.5,6.70001,2.10001c4,0.89999,8.09998,1.3,12.09998,1.2c7.5,0,13.20001-1.39999,17.20001-4.2
		c4.09998-2.7,6.09998-6.8,6.09998-12.2c0-2.09999-0.20001-4.09999-0.79999-6.09999
		C596.07037,115.40001,595.17041,113.80002,593.9704,112.40001z"/>
	<path class="st0" d="M649.27039,97.00002c-0.59998-2.89999-1.90002-5.59999-3.79999-7.89999c-1.79999-2.3-4.29999-4-7-5.10001
		c-3.59998-1.3-7.20001-1.89999-11-1.8c-1.59998,0-3.20001,0.10001-4.79999,0.40001c-1.40002,0.2-2.70001,0.59999-4,1V57.30001
		l-15.5,2.5v78.29999h15.5V96.50002c1.09998-0.3,2.20001-0.59999,3.20001-0.8c1.29999-0.2,2.59998-0.39999,3.90002-0.3
		c3.5,0,5.79999,1,7.09998,3.10001c1.29999,2.09999,1.90002,5.59999,1.90002,10.59999v29.10001h15.5v-31
		C650.4704,103.80002,650.17041,100.40001,649.27039,97.00002z"/>
	<g>
		<path class="st0" d="M87.27038,89.90001c-2-5.39999-9.2-2.39999-11.7-1.8l2.4,8.90001
			C80.47038,96.40001,88.27038,95.70001,87.27038,89.90001z"/>
		<path class="st0" d="M78.97038,101.50002l2.6,9.7c3-0.7,12-1.59999,11.1-8.09999
			C91.17037,97.30002,81.97038,100.70001,78.97038,101.50002z"/>
		<path class="st0" d="M81.97038,58.30001c-22.8,0-41.3,18.5-41.3,41.29999s18.5,41.3,41.3,41.3s41.3-18.5,41.3-41.3
			S104.77038,58.30001,81.97038,58.30001z M90.57037,114.30002l1.9,7.39999l-4.4,1.2l-1.8-7.39999
			c-1.2,0.39999-2.4,0.59999-3.6,0.89999l1.9,7.5l-4.4,1.2l-1.9-7.39999c-1.1,0.2-9,2.3-9,2.3l-0.4-5.5c0,0,3.3-0.90001,3.2-0.90001
			c1.3-0.3,1.4-1.39999,1.3-1.89999l-5.2-19.90001c-0.4-0.89999-1.2-1.7-3-1.3l-3.2,0.90001l-1.2-4.8c0,0,8-2.10001,9-2.3l-1.8-7.2
			l4.4-1.2l1.8,7.2c1.2-0.40001,2.4-0.60001,3.6-0.90001l-1.8-7.2l4.4-1.2l1.8,7.2c5.8-0.89999,10.5,0,12.6,4.8
			c1.4,3.60001,0.3,6.60001-2.1,8.40001c3.5,0.39999,7.9,3.59999,8.5,7.59999
			C102.27038,108.40001,97.37038,112.70001,90.57037,114.30002z"/>
	</g>
</g>
<g>
	<path class="st0" d="M641,4c25.36444,0,46,20.63554,46,46v158c0,25.36446-20.63556,46-46,46H50c-25.36445,0-46-20.63554-46-46V50
		C4,24.63554,24.63555,4,50,4H641 M641,0H50C22.38573,0,0,22.38573,0,50v158c0,27.61427,22.38573,50,50,50h591
		c27.61426,0,50-22.38573,50-50V50C691,22.38573,668.61426,0,641,0L641,0z"/>
</g>
</svg>
