<?xml version="1.0" encoding="utf-8"?>
<!-- Generator: Adobe Illustrator 24.2.3, SVG Export Plug-In . SVG Version: 6.00 Build 0)  -->
<svg version="1.1" id="Layer_1" xmlns="http://www.w3.org/2000/svg" xmlns:xlink="http://www.w3.org/1999/xlink" x="0px" y="0px"
	 viewBox="0 0 691 258" style="enable-background:new 0 0 691 258;" xml:space="preserve">
<style type="text/css">
	.st0{fill:#0AC18E;}
	.st1{fill:#FFFFFF;}
</style>
<path class="st0" d="M641,258H50c-27.61424,0-50-22.38576-50-50V50C0,22.38576,22.38576,0,50,0h591c27.61426,0,50,22.38576,50,50
	v158C691,235.61424,668.61426,258,641,258z"/>
<path class="st1" d="M288.14999,183.5c-0.39999-2.8-0.89999-5.60001-1.29999-8.3s-0.89999-5.2-1.39999-7.39999h-6.5
	c-1.60001,2.3-3.10001,4.60001-4.70001,6.89999s-3.10001,4.8-4.79999,7.39999s-3.29999,5.39999-5.10001,8.3
	C262.64999,193.29999,260.75,196.5,258.75,200h7.5c0.70001-1.3,1.29999-2.39999,2-3.60001s1.39999-2.39999,2-3.5h12.10001
	c0.10001,1.2,0.20001,2.3,0.29999,3.5S282.75,198.79999,282.85001,200h7.29999c-0.29999-2.5-0.60001-5.2-0.89999-8
	C288.85001,189.2,288.54999,186.3,288.14999,183.5z M273.25,187.3c1.10001-2.2,2.29999-4.3,3.60001-6.3
	c1.20001-2.10001,2.5-4.10001,3.79999-6.2c0.29999,2.2,0.60001,4.3,0.79999,6.5c0.20001,2.10001,0.29999,4.10001,0.5,6H273.25z"/>
<path class="st1" d="M304.85001,177.10001c1-1.2,2.20001-2.2,3.60001-2.89999c1.5-0.7,3.10001-1.10001,4.79999-1.10001
	c1.10001,0,2.20001,0.2,3.29999,0.39999c1.20001,0.3,2.39999,0.8,3.5,1.39999l2.60001-5.60001c-1.39999-0.8-2.89999-1.39999-4.5-1.8
	c-1.39999-0.3-2.89999-0.5-4.39999-0.5c-2.89999-0.10001-5.70001,0.60001-8.29999,1.8c-2.29999,1.10001-4.39999,2.7-6.10001,4.60001
	c-1.70001,1.89999-3,4-3.79999,6.39999c-0.89999,2.3-1.29999,4.7-1.29999,7.2c0,1.89999,0.29999,3.89999,0.89999,5.7
	c0.60001,1.60001,1.39999,3.10001,2.60001,4.3c1.10001,1.2,2.5,2.10001,4.10001,2.7c1.70001,0.7,3.5,1,5.29999,1
	c1.89999,0,3.79999-0.2,5.70001-0.60001c1.39999-0.39999,2.79999-0.89999,4.20001-1.5l-0.79999-5.89999
	c-1.10001,0.5-2.29999,0.89999-3.5,1.2c-1.29999,0.3-2.70001,0.5-4.10001,0.5c-1.89999,0.10001-3.79999-0.60001-5.10001-1.89999
	c-1.20001-1.3-1.79999-3.3-1.79999-6c0-1.7,0.29999-3.5,0.79999-5.10001C303.04999,179.8,303.75,178.39999,304.85001,177.10001z"/>
<path class="st1" d="M332.95001,177.10001c1-1.2,2.20001-2.2,3.60001-2.89999c1.5-0.7,3.10001-1.10001,4.79999-1.10001
	c1.10001,0,2.20001,0.2,3.29999,0.39999c1.20001,0.3,2.39999,0.8,3.5,1.39999l2.60001-5.60001c-1.39999-0.8-2.89999-1.39999-4.5-1.8
	c-1.39999-0.3-2.89999-0.5-4.39999-0.5c-2.89999-0.10001-5.70001,0.60001-8.29999,1.8c-2.29999,1.10001-4.39999,2.7-6.10001,4.60001
	c-1.70001,1.89999-3,4-3.79999,6.39999c-0.89999,2.3-1.29999,4.7-1.29999,7.2c0,1.89999,0.29999,3.89999,0.89999,5.7
	c0.60001,1.60001,1.39999,3.10001,2.60001,4.3c1.10001,1.2,2.5,2.10001,4.10001,2.7c1.70001,0.7,3.5,1,5.29999,1
	c1.89999,0,3.79999-0.2,5.70001-0.60001c1.39999-0.39999,2.79999-0.89999,4.20001-1.5l-0.79999-5.89999
	c-1.10001,0.5-2.29999,0.89999-3.5,1.2c-1.29999,0.3-2.70001,0.5-4.10001,0.5c-1.89999,0.10001-3.79999-0.60001-5.10001-1.89999
	c-1.20001-1.3-1.79999-3.3-1.79999-6c0-1.7,0.29999-3.5,0.79999-5.10001C331.14999,179.8,331.85001,178.39999,332.95001,177.10001z"
	/>
<polygon class="st1" points="371.95001,186.2 373.35001,180.3 361.14999,180.3 362.64999,173.8 376.45001,173.8 377.95001,167.8 
	356.85001,167.8 349.14999,200 349.14999,200.10001 371.25,200.10001 372.75,194.10001 357.85001,194.10001 359.75,186.2 "/>
<path class="st1" d="M401.95001,169.8c-1.20001-0.89999-2.60001-1.5-4-1.8c-1.70001-0.39999-3.5-0.60001-5.29999-0.60001
	c-1.29999,0-2.70001,0.10001-4.10001,0.10001c-1.5,0.2-3.10001,0.39999-4.79999,0.7l-7.60001,31.8h7.20001l2.60001-10.8h1.79999
	c2.39999,0,4.70001-0.2,7-0.7c2-0.3,3.89999-1,5.60001-2.10001c1.5-1,2.79999-2.3,3.70001-3.89999
	c0.89999-1.8,1.29999-3.89999,1.29999-5.89999c0-1.39999-0.29999-2.7-0.89999-3.89999
	C403.85001,171.60001,402.95001,170.60001,401.95001,169.8z M397.95001,177.3c0,0.89999-0.20001,1.89999-0.60001,2.7
	c-0.5,0.7-1.10001,1.3-1.79999,1.8c-0.79999,0.5-1.70001,0.89999-2.70001,1c-1.20001,0.2-2.39999,0.3-3.60001,0.3h-1.79999
	l2.20001-9.5c0.39999,0,0.70001-0.10001,1.10001-0.10001h1.29999c1.5-0.10001,3,0.2,4.39999,0.8
	C397.45001,174.89999,398.04999,176.10001,397.95001,177.3z"/>
<polygon class="st1" points="435.95001,167.8 409.85001,167.8 408.35001,173.89999 417.75,173.89999 411.45001,200 418.75,200 
	425.04999,173.89999 434.45001,173.89999 "/>
<polygon class="st1" points="454.85001,186.2 456.25,180.3 444.04999,180.3 445.54999,173.8 459.35001,173.8 460.85001,167.8 
	439.75,167.8 432.04999,200 432.04999,200.10001 454.14999,200.10001 455.64999,194.10001 440.75,194.10001 442.64999,186.2 "/>
<path class="st1" d="M486.85001,171.10001c-1.29999-1.2-2.89999-2.10001-4.60001-2.7c-2-0.60001-4.10001-0.89999-6.20001-0.89999
	c-1.29999,0-2.79999,0.10001-4.39999,0.2s-3.29999,0.39999-5.10001,0.7l-7.5,31.10001c1.60001,0.3,3.20001,0.5,4.89999,0.7
	c1.70001,0.10001,3.20001,0.2,4.5,0.2c3.20001,0,6.29999-0.39999,9.29999-1.39999c2.60001-0.89999,5-2.2,7-4
	c1.89999-1.7,3.39999-3.89999,4.39999-6.3c1-2.7,1.5-5.5,1.5-8.39999c0-1.7-0.29999-3.5-0.89999-5.10001
	C489.14999,173.60001,488.14999,172.2,486.85001,171.10001z M482.25,186.39999c-0.60001,1.60001-1.39999,3.10001-2.60001,4.3
	c-1.10001,1.2-2.5,2.10001-4.10001,2.7c-1.79999,0.60001-3.60001,0.89999-5.5,0.89999h-1.5c-0.29999,0-0.70001-0.10001-1-0.10001
	l4.89999-20.7c0.89999-0.10001,1.89999-0.10001,2.79999-0.10001c1.20001,0,2.39999,0.2,3.60001,0.5c0.89999,0.3,1.79999,0.8,2.5,1.5
	c0.70001,0.60001,1.10001,1.39999,1.39999,2.3c0.29999,1,0.39999,2,0.39999,3
	C483.14999,182.60001,482.85001,184.60001,482.25,186.39999z"/>
<polygon class="st1" points="528.75,167.8 525.75,180.2 514.25,180.2 517.25,167.8 509.95001,167.8 502.25,200 509.45001,200 
	512.75,186.3 524.25,186.3 520.95001,200 528.25,200 536.04999,167.8 "/>
<polygon class="st1" points="557.65002,186.2 559.04999,180.3 546.84998,180.3 548.34998,173.8 562.15002,173.8 563.65002,167.8 
	542.54999,167.8 534.84998,200 534.84998,200.10001 556.95001,200.10001 558.45001,194.10001 543.54999,194.10001 545.45001,186.2 
	"/>
<path class="st1" d="M587.84998,170.10001c-1.20001-0.89999-2.5-1.60001-3.90002-2c-1.79999-0.5-3.59998-0.8-5.40002-0.7
	c-1.29999,0-2.70001,0.10001-4.20001,0.2c-1.59998,0.2-3.20001,0.39999-4.90002,0.7l-7.59998,31.8h7.20001l2.79999-11.8h3.59998
	c1,1.7,1.79999,3.5,2.40002,5.39999c0.79999,2,1.5,4.2,2.20001,6.3h7.79999c-0.79999-2.5-1.70001-4.89999-2.59998-7.2
	c-0.79999-2-1.70001-4-2.70001-5.89999c1.5-0.39999,2.90002-1,4.09998-1.89999c1-0.7,1.90002-1.5,2.59998-2.5
	c0.59998-0.8,1.09998-1.8,1.29999-2.8s0.29999-2,0.29999-3c0-1.2-0.20001-2.5-0.70001-3.60001
	C589.65002,171.89999,588.84998,170.89999,587.84998,170.10001z M583.34998,179.3c-0.29999,0.60001-0.70001,1.2-1.29999,1.60001
	c-0.79999,0.5-1.59998,0.89999-2.5,1.10001c-1.20001,0.3-2.5,0.39999-3.79999,0.39999h-2.5l2.09998-8.8
	c0.40002,0,0.79999-0.10001,1.40002-0.10001h1.59998c0.90002,0,1.90002,0.10001,2.79999,0.3c1.09998,0.3,2,1.10001,2.40002,2.2
	c0.09998,0.5,0.20001,1,0.20001,1.5C583.75,178.10001,583.65002,178.7,583.34998,179.3z"/>
<polygon class="st1" points="618.95001,173.8 620.45001,167.8 599.34998,167.8 591.65002,200 591.65002,200.10001 613.75,200.10001 
	615.25,194.10001 600.34998,194.10001 602.25,186.2 614.45001,186.2 615.84998,180.3 603.65002,180.3 605.15002,173.8 "/>
<path class="st1" d="M181.45,99.1c5.5-3.4,8.3-7.9,8.3-13.6c0.10001-3.4-0.8-6.7-2.39999-9.6c-1.60001-2.6-3.8-4.9-6.5-6.3
	c-3.10001-1.7-6.5-2.8-9.89999-3.4c-4.2-0.8-8.39999-1.1-12.60001-1c-3.5,0-7.10001,0.1-11,0.4c-3.7,0.2-7.39999,0.8-10.89999,1.4
	v70.10001c4,0.89999,8.10001,1.39999,12.2,1.7c3.89999,0.2,7.89999,0.3,11.8,0.3c10.89999,0,19.10001-1.8,24.8-5.7
	c5.5-3.8,8.3-9.5,8.3-17.1c0-3.6-0.89999-7-2.5-10.1C189.14999,103.2,186.14999,100.8,181.45,99.1z M152.05,94.3V78.6
	c1.3-0.1,2.7-0.2,4.3-0.2s3.10001,0,4.5,0c4.3,0,7.60001,0.5,9.8,1.7s3.39999,3.2,3.39999,6.2c0.2,2.5-1.10001,4.9-3.2,6.2
	c-2.2,1.3-5.7,1.9-10.7,1.9L152.05,94.3z M172.35001,123.8c-3.7,1.5-7.8,2.3-11.8,2.1c-1.60001,0-3.2,0-4.60001-0.1
	c-1.39999-0.1-2.7-0.1-3.89999-0.3v-18.7l0,0v0.1h10.2c4.60001,0,8.2,0.6,10.7,2.2c2.5,1.4,3.8,3.8,3.8,7.1
	C176.85001,119.8,175.35001,122.4,172.35001,123.8L172.35001,123.8z"/>
<path class="st1" d="M207.25,58.4c-2.39999,0-4.8,0.9-6.5,2.5c-1.89999,1.7-2.89999,4.2-2.8,6.7c-0.10001,2.6,0.89999,5,2.8,6.7
	c3.8,3.2,9.3,3.2,13.10001,0c1.89999-1.7,2.89999-4.2,2.8-6.7c0.10001-2.6-0.89999-5-2.8-6.7C211.95,59.2,209.55,58.3,207.25,58.4z"
	/>
<rect x="199.55" y="83.4" class="st1" width="15.5" height="54.8"/>
<path class="st1" d="M252.64999,125.9c-1.7,0.3-3.5,0.4-5.10001,0.4c-3.5,0-5.8-1-6.89999-2.9c-1.2-2.4-1.8-5.1-1.7-7.8V96.4h18.7
	v-13h-18.7V67.3l-15.60001,2.5h-0.10001V116c0,3.2,0.3,6.5,1,9.6c0.5,2.7,1.7,5.3,3.5,7.50001c1.7,2.2,4.10001,3.8,6.7,4.89999
	c3.39999,1.2,6.89999,1.8,10.60001,1.7c2.8,0,5.60001-0.2,8.39999-0.89999c2.2-0.5,4.20001-1.2,6.29999-1.89999l-2.20001-12.1
	C255.95001,125.1,254.35001,125.6,252.64999,125.9z"/>
<path class="st1" d="M295.75,125.9c-1.89999,0.3-4,0.5-6.10001,0.5c-5.20001,0-9-1.3-11-4.1c-2.10001-2.7-3.10001-6.5-3.10001-11.5
	c0-4.6,1.10001-8.4,3.39999-11.2s5.60001-4.3,10.29999-4.3c1.89999,0,3.89999,0.2,5.79999,0.6c1.60001,0.4,3.20001,0.9,4.89999,1.4
	l3.20001-12.4c-2.29999-1-4.60001-1.7-7-2.3c-2.60001-0.5-5.29999-0.9-8-0.8c-4.10001-0.1-8.10001,0.6-11.89999,2.3
	c-6.70001,2.8-12,8.4-14.39999,15.4c-1.29999,3.6-1.89999,7.4-1.89999,11.1c0,3.9,0.5,7.8,1.5,11.5
	c1,3.4,2.70001,6.50001,5.10001,9.1c2.5,2.7,5.5,4.8,9,6.10001c4.10001,1.60001,8.5,2.39999,13,2.3c3,0,6.10001-0.3,9-0.89999
	c2.29999-0.39999,4.60001-1.10001,6.79999-1.89999l-2.20001-12.8C299.85001,125,297.85001,125.6,295.75,125.9z"/>
<path class="st1" d="M349.95001,89.9c-2.39999-2.5-5.29999-4.5-8.5-5.8c-3.5-1.4-7.10001-2.2-10.89999-2.1
	c-3.70001,0-7.39999,0.6-10.79999,2.1c-3.20001,1.3-6.20001,3.4-8.5,5.8c-2.5,2.6-4.29999,5.6-5.60001,9.1
	c-1.39999,3.8-2.10001,7.8-2.10001,11.8c-0.10001,4,0.60001,8,1.89999,11.8c1.20001,3.4,3,6.5,5.5,9.2
	c2.39999,2.60001,5.29999,4.5,8.5,5.8c7.10001,2.8,15,2.8,22.10001,0c3.20001-1.3,6.20001-3.39999,8.5-5.8
	c2.39999-2.60001,4.20001-5.7,5.39999-9.2c1.29999-3.8,1.89999-7.8,1.79999-11.8c0-4-0.60001-8-1.89999-11.8
	C354.25,95.6,352.45001,92.5,349.95001,89.9z M338.64999,122.1c-3.20001,4.5-9.5,5.6-14.10001,2.4
	c-0.89999-0.6-1.70001-1.4-2.39999-2.4c-1.89999-2.8-2.89999-6.6-2.89999-11.4s1-8.5,2.89999-11.2
	c3.39999-4.5,9.79999-5.5,14.39999-2.1c0.79999,0.5,1.5,1.3,2.10001,2.1c1.89999,2.7,2.89999,6.5,2.89999,11.2
	C341.54999,115.5,340.64999,119.3,338.64999,122.1z"/>
<path class="st1" d="M371.35001,58.4c-2.39999,0-4.79999,0.9-6.5,2.5c-1.89999,1.7-2.89999,4.2-2.79999,6.7
	c-0.10001,2.6,0.89999,5,2.79999,6.7c3.79999,3.2,9.29999,3.2,13.10001,0c1.89999-1.7,2.89999-4.2,2.79999-6.7
	c0.10001-2.6-0.89999-5-2.79999-6.7C376.04999,59.2,373.75,58.3,371.35001,58.4z"/>
<rect x="363.64999" y="83.4" class="st1" width="15.5" height="54.8"/>
<path class="st1" d="M434.14999,97c-0.60001-2.9-1.89999-5.6-3.89999-7.9c-1.89999-2.3-4.39999-4.1-7.39999-5.1
	c-3.70001-1.3-7.70001-1.9-11.60001-1.8c-4.39999,0-8.79999,0.3-13.10001,1c-3.5,0.5-6.79999,1.2-10.20001,2.2v52.89999h15.5V95.8
	c1-0.1,2.10001-0.2,3.39999-0.3c1.29999-0.1,2.39999-0.2,3.60001-0.2c3.60001,0,6.10001,1,7.39999,3.1
	c1.29999,2.2,1.89999,5.6,1.89999,10.6v29.10001h15.60001v-31C435.25,103.7,434.95001,100.4,434.14999,97z"/>
<path class="st1" d="M494.35001,122.5c-1.29999,0.5-2.60001,1-3.89999,1.3c-1.60001,0.4-3.39999,0.8-5.10001,1
	c-2.20001,0.3-4.20001,0.4-6.39999,0.4c-3.20001,0.1-6.60001-0.5-9.60001-1.8c-2.5-1.1-4.60001-2.8-6.39999-5
	c-1.60001-2.2-2.89999-4.8-3.60001-7.5c-0.79999-3-1.10001-6.2-1.10001-9.3c-0.10001-3.6,0.39999-7.2,1.60001-10.6
	c1-2.7,2.5-5.1,4.39999-7.1c1.79999-1.8,4-3.1,6.39999-4c2.39999-0.8,4.89999-1.2,7.39999-1.2c3.39999-0.1,6.79999,0.3,10.10001,1.2
	c2.70001,0.8,5.29999,1.7,7.79999,3l4.79999-13.1c-0.5-0.3-1.5-0.8-2.70001-1.4c-1.5-0.8-3.10001-1.3-4.79999-1.8
	c-2.20001-0.6-4.29999-1.2-6.60001-1.5c-2.70001-0.5-5.5-0.8-8.29999-0.6c-5,0-9.89999,0.8-14.70001,2.5
	c-4.29999,1.6-8.29999,4.1-11.70001,7.4c-3.39999,3.4-5.89999,7.5-7.70001,11.9c-1.89999,5.1-2.89999,10.5-2.79999,16
	c0,12,3,21.3,9.20001,27.8s15,9.8,26.79999,9.8c4.89999,0.10001,9.79999-0.5,14.60001-1.60001
	c3.39999-0.8,6.60001-2.10001,9.60001-3.8l-4.5-13.1C496.54999,121.5,495.45001,122.1,494.35001,122.5z"/>
<path class="st1" d="M544.95001,88c-2.09998-2.1-4.5-3.7-7.40002-4.5c-3.70001-1.1-7.59998-1.6-11.5-1.5
	c-1.79999,0-3.70001,0.1-5.5,0.2c-1.70001,0.2-3.5,0.3-5.09998,0.6c-1.59998,0.3-3.09998,0.5-4.39999,0.9
	c-1.29999,0.3-2.5,0.6-3.39999,0.9l2.10001,12.5c2.19998-0.8,4.39999-1.3,6.69998-1.6c2.59998-0.4,5.20001-0.5,7.79999-0.5
	c4,0,6.70001,0.8,8.29999,2.4c1.59998,1.7,2.5,4,2.40002,6.4v1.4c-1.20001-0.3-2.5-0.5-3.79999-0.6
	c-1.5-0.1-3.40002-0.2-5.29999-0.2c-2.90002,0-5.79999,0.3-8.59998,0.9c-2.59998,0.5-5.09998,1.5-7.39999,2.9
	c-2.20001,1.3-3.89999,3.1-5.10001,5.3c-1.29999,2.5-2.10001,5.3-1.89999,8.1c-0.10001,2.9,0.39999,5.8,1.60001,8.4
	c1.10001,2.3,2.79999,4.10001,4.89999,5.5c2.29999,1.5,4.80002,2.5,7.50003,3c3.09998,0.60001,6.40002,1,9.59998,1
	c4.90002,0,9.59998-0.3,14.40002-1c4-0.60001,7-1.2,9.29999-1.7v-32.3c0-3.1-0.29999-6.3-1.09998-9.3
	C548.25,92.5,546.75,90,544.95001,88z M535.15002,127c-1.09998,0.2-2.20001,0.3-3.40002,0.3c-1.40002,0.1-2.79999,0.1-4.29999,0.1
	l0,0c-2.40002,0.1-4.59998-0.3-6.70001-1.4c-1.59998-0.9-2.5-2.6-2.5-5.1c0-1.1,0.29999-2.2,0.90002-3.1
	c0.5-0.9,1.40002-1.5,2.29999-1.9c1.09998-0.5,2.20001-0.9,3.40002-1c1.40002-0.2,2.70001-0.2,4.09998-0.2
	c1.20001,0,2.29999,0.1,3.5,0.2c1,0.1,1.90002,0.2,2.79999,0.4L535.15002,127z"/>
<path class="st1" d="M593.95001,112.4c-1.5-1.6-3.40002-2.9-5.29999-4c-2.70001-1.4-5.5-2.7-8.40002-3.8
	c-1.40002-0.4-2.79999-1.1-4.09998-1.7c-0.90002-0.4-1.70001-0.9-2.59998-1.4c-0.5-0.3-1-0.9-1.20001-1.4s-0.29999-1.1-0.29999-1.6
	c0-2.7,2.40002-4.1,7.20001-4.1c2.40002,0,4.79999,0.2,7.09998,0.8c1.90002,0.4,4,1,5.79999,1.6l2.70001-12.1
	c-2.40002-0.9-4.79999-1.5-7.20001-1.9c-3.09998-0.6-6.40002-0.9-9.59998-0.9c-6.70001,0-11.90002,1.5-15.70001,4.5
	c-3.79999,2.9-5.90002,7.5-5.70001,12.2c-0.09998,2.3,0.29999,4.6,1.09998,6.8c0.79999,1.8,1.79999,3.5,3.20001,4.9
	c1.5,1.4,3.09998,2.6,5.09998,3.5c2.20001,1.1,4.29999,2.1,6.59998,2.8c2.40002,0.9,4.79999,1.8,7,3.1
	c1.29999,0.5,2.20001,1.8,2.29999,3.2c0.09998,1.3-0.5,2.6-1.70001,3.2c-1.90002,0.6-4,1-6.09998,0.9c-2.70001,0-5.5-0.3-8.09998-1
	c-2.79999-0.6-5.5-1.4-8.09998-2.5l-2.59998,12.60001c2.20001,0.89999,4.40002,1.5,6.70001,2.10001
	c4,0.89999,8.09998,1.3,12.09998,1.2c7.5,0,13.20001-1.39999,17.20001-4.2c4.09998-2.7,6.09998-6.8,6.09998-12.2
	c0-2.1-0.20001-4.1-0.79999-6.1C596.04999,115.4,595.15002,113.8,593.95001,112.4z"/>
<path class="st1" d="M649.25,97c-0.59998-2.9-1.90002-5.6-3.79999-7.9c-1.79999-2.3-4.29999-4-7-5.1
	c-3.59998-1.3-7.20001-1.9-11-1.8c-1.59998,0-3.20001,0.1-4.79999,0.4c-1.40002,0.2-2.70001,0.6-4,1V57.3l-15.5,2.5v78.3h15.5V96.5
	c1.09998-0.3,2.20001-0.6,3.20001-0.8c1.29999-0.2,2.59998-0.4,3.90002-0.3c3.5,0,5.79999,1,7.09998,3.1s1.90002,5.6,1.90002,10.6
	V138.2h15.5v-31C650.45001,103.8,650.15002,100.4,649.25,97z"/>
<ellipse class="st1" cx="81.95" cy="99.6" rx="41.3" ry="41.3"/>
<path id="symbol_1_" class="st0" d="M94.75,85.8c-2.1-4.8-6.8-5.7-12.6-4.8l-1.8-7.2l-4.4,1.2l1.8,7.2c-1.2,0.3-2.4,0.5-3.6,0.9
	l-1.8-7.2l-4.4,1.2l1.8,7.2c-1,0.2-9,2.3-9,2.3l1.2,4.8l3.2-0.9c1.8-0.4,2.6,0.4,3,1.3l5.2,19.9c0.1,0.5,0,1.6-1.3,1.9
	c0.1,0-3.2,0.9-3.2,0.9l0.4,5.5c0,0,7.9-2.1,9-2.3l1.9,7.4l4.4-1.2l-1.9-7.5c1.2-0.3,2.4-0.5,3.6-0.9l1.8,7.4l4.4-1.2l-1.9-7.4
	c6.8-1.6,11.7-5.9,10.6-12.5c-0.6-4-5-7.2-8.5-7.6C95.05,92.4,96.15,89.4,94.75,85.8L94.75,85.8z M92.65,103.1
	c0.9,6.5-8.1,7.4-11.1,8.1l-2.6-9.7C81.95,100.7,91.15,97.3,92.65,103.1z M87.25,89.9c1,5.8-6.8,6.5-9.3,7.1l-2.4-8.9
	C78.05,87.5,85.25,84.5,87.25,89.9z"/>
</svg>
