<?xml version="1.0" encoding="UTF-8"?>
<svg width="24px" height="49px" viewBox="0 0 24 49" version="1.1" xmlns="http://www.w3.org/2000/svg" xmlns:xlink="http://www.w3.org/1999/xlink">
    <!-- Generator: Sketch 47.1 (45422) - http://www.bohemiancoding.com/sketch -->
    <title>cheap</title>
    <desc>Created with Sketch.</desc>
    <defs></defs>
    <g id="Page-1" stroke="none" stroke-width="1" fill="none" fill-rule="evenodd">
        <g id="Landing-page" transform="translate(-829.000000, -754.000000)" fill="#60C84D">
            <g id="why" transform="translate(0.000000, 605.000000)">
                <g id="sections" transform="translate(40.000000, 145.000000)">
                    <g id="section-copy-2" transform="translate(629.000000, 4.000000)">
                        <path d="M175.484458,39.7865802 L175.484458,36.9464088 C175.958759,36.8283133 176.41519,36.6849271 176.85375,36.51625 C178.316257,35.9537472 179.546245,35.1812549 180.54375,34.19875 C181.541255,33.2162451 182.302497,32.0650066 182.8275,30.745 C183.352503,29.4249934 183.615,28.0075076 183.615,26.4925 C183.615,25.1274932 183.405002,23.9612548 182.985,22.99375 C182.564998,22.0262452 182.013753,21.2050034 181.33125,20.53 C180.648747,19.8549966 179.868754,19.3000022 178.99125,18.865 C178.113746,18.4299978 177.217505,18.0512516 176.3025,17.72875 C175.387495,17.4062484 174.491254,17.1137513 173.61375,16.85125 C172.736246,16.5887487 171.956253,16.3000016 171.27375,15.985 C170.591247,15.6699984 170.040002,15.2950022 169.62,14.86 C169.199998,14.4249978 168.99,13.8775033 168.99,13.2175 C168.99,12.1824948 169.338747,11.361253 170.03625,10.75375 C170.733753,10.146247 171.794993,9.8425 173.22,9.8425 C174.045004,9.8425 174.779997,9.95124891 175.425,10.16875 C176.070003,10.3862511 176.643747,10.6299987 177.14625,10.9 C177.648753,11.1700014 178.098748,11.4137489 178.49625,11.63125 C178.893752,11.8487511 179.264998,11.9575 179.61,11.9575 C180.000002,11.9575 180.318749,11.8675009 180.56625,11.6875 C180.813751,11.5074991 181.049999,11.2375018 181.275,10.8775 L183.165,7.345 C182.579997,6.8049973 181.916254,6.32125214 181.17375,5.89375 C180.431246,5.46624786 179.632504,5.09875154 178.7775,4.79125 C177.922496,4.48374846 177.018755,4.25125079 176.06625,4.09375 C175.714413,4.0355723 175.358997,3.98813961 175,3.95145182 L175,1 C175,0.44771525 174.552285,-1.01453063e-16 174,0 L169,0 C168.447715,1.01453063e-16 168,0.44771525 168,1 L168,1 L168,4.81659657 C166.751578,5.34694225 165.686587,6.03223773 164.805,6.8725 C163.844995,7.78750457 163.117502,8.82999415 162.6225,10 C162.127498,11.1700059 161.88,12.3699939 161.88,13.6 C161.88,15.1300077 162.089998,16.4162448 162.51,17.45875 C162.930002,18.5012552 163.481247,19.3712465 164.16375,20.06875 C164.846253,20.7662535 165.622496,21.3287479 166.4925,21.75625 C167.362504,22.1837521 168.254995,22.5437485 169.17,22.83625 C170.085005,23.1287515 170.977496,23.3949988 171.8475,23.635 C172.717504,23.8750012 173.493747,24.1524984 174.17625,24.4675 C174.858753,24.7825016 175.409998,25.1799976 175.83,25.66 C176.250002,26.1400024 176.46,26.7624962 176.46,27.5275 C176.46,28.8475066 176.077504,29.811247 175.3125,30.41875 C174.547496,31.026253 173.475007,31.33 172.095,31.33 C171.074995,31.33 170.190004,31.1875014 169.44,30.9025 C168.689996,30.6174986 168.026253,30.3025017 167.44875,29.9575 C166.871247,29.6124983 166.353752,29.2975014 165.89625,29.0125 C165.438748,28.7274986 164.985002,28.585 164.535,28.585 C164.189998,28.585 163.867501,28.6674992 163.5675,28.8325 C163.267498,28.9975008 163.035001,29.2149986 162.87,29.485 L160.62,33.04 C161.265003,33.6850032 162.022496,34.2699974 162.8925,34.795 C163.762504,35.3200026 164.692495,35.7737481 165.6825,36.15625 C166.588242,36.5061956 167.52222,36.7839445 168.484458,36.9895035 L168.484458,39.7865802 L167.247011,39.7865802 C166.77656,39.7865802 166.421038,39.8782065 166.180445,40.061459 C165.939852,40.2447115 165.939852,40.5658139 166.180445,41.0247663 L171.158305,48.3680553 C171.423832,48.7409595 171.691765,48.9208936 171.962103,48.9078573 C172.232442,48.8948211 172.482999,48.7148871 172.713773,48.3680553 L177.514042,41.4170748 C177.930824,40.7993707 178.036156,40.3726479 177.830038,40.1369064 C177.62392,39.9011649 177.299175,39.7843895 176.855805,39.7865802 L175.484458,39.7865802 Z" id="cheap"></path>
                    </g>
                </g>
            </g>
        </g>
    </g>
</svg>