<?xml version="1.0" encoding="UTF-8"?>
<svg width="23px" height="49px" viewBox="0 0 23 49" version="1.1" xmlns="http://www.w3.org/2000/svg" xmlns:xlink="http://www.w3.org/1999/xlink">
    <!-- Generator: Sketch 47.1 (45422) - http://www.bohemiancoding.com/sketch -->
    <title>cheap</title>
    <desc>Created with Sketch.</desc>
    <defs></defs>
    <g id="Page-1" stroke="none" stroke-width="1" fill="none" fill-rule="evenodd">
        <g id="Landing-page" transform="translate(-803.000000, -754.000000)" fill="#F2AD3C">
            <g id="why" transform="translate(0.000000, 605.000000)">
                <g id="sections" transform="translate(40.000000, 145.000000)">
                    <g id="section-copy-2" transform="translate(629.000000, 4.000000)">
                        <path d="M149,40.0000299 L149,37.5460536 C149.427121,37.4330433 149.839548,37.2989324 150.23728,37.1437206 C151.700105,36.5728648 152.93036,35.7889013 153.928082,34.7918066 C154.925804,33.7947118 155.687212,32.6263779 156.212329,31.2867696 C156.737446,29.9471614 157,28.5086264 157,26.9711216 C157,25.5858449 156.789956,24.4022883 156.369863,23.4204164 C155.94977,22.4385445 155.398405,21.6051075 154.715753,20.9200806 C154.033102,20.2350537 153.25294,19.6718177 152.375245,19.2303559 C151.497549,18.7888941 150.601114,18.4045237 149.68591,18.077233 C148.770706,17.7499424 147.874271,17.4531018 146.996575,17.1867025 C146.11888,16.9203031 145.338718,16.6272682 144.656067,16.307589 C143.973415,15.9879098 143.42205,15.6073449 143.001957,15.1658831 C142.581864,14.7244213 142.37182,14.1687967 142.37182,13.4989926 C142.37182,12.448618 142.720642,11.6151811 143.418297,10.9986568 C144.115953,10.3821326 145.177423,10.0738751 146.60274,10.0738751 C147.427923,10.0738751 148.163076,10.1842389 148.808219,10.4049698 C149.453363,10.6257007 150.027232,10.8730678 150.529843,11.1470786 C151.032455,11.4210893 151.482549,11.6684565 151.880137,11.8891874 C152.277725,12.1099183 152.649052,12.2202821 152.994129,12.2202821 C153.384216,12.2202821 153.703032,12.1289465 153.950587,11.9462727 C154.198142,11.7635988 154.434441,11.4895922 154.659491,11.1242445 L156.549902,7.53928811 C155.964772,6.99126657 155.300884,6.50033797 154.558219,6.06648758 C153.815554,5.63263719 153.016638,5.25968367 152.161448,4.94761585 C151.306258,4.63554803 150.40232,4.39959784 149.449609,4.23975823 C148.972975,4.15979182 148.489773,4.09982897 148,4.05986938 L148,1 C148,0.44771525 147.552285,-1.01453063e-16 147,0 L142,0 C141.447715,1.01453063e-16 141,0.44771525 141,1 L141,1 L141,5.14540695 C139.914501,5.65712162 138.976477,6.29523905 138.18591,7.05977166 C137.225696,7.98836372 136.498046,9.04633389 136.002935,10.2337139 C135.507825,11.4210939 135.260274,12.6389013 135.260274,13.8871726 C135.260274,15.4399003 135.470318,16.7452376 135.890411,17.8032236 C136.310504,18.8612097 136.861869,19.74412 137.544521,20.4519812 C138.227172,21.1598424 139.003583,21.7306896 139.873777,22.16454 C140.74397,22.5983903 141.636656,22.9637326 142.551859,23.2605776 C143.467063,23.5574226 144.359748,23.8276236 145.229941,24.0711887 C146.100135,24.3147538 146.876546,24.5963718 147.559198,24.916051 C148.241849,25.2357303 148.793214,25.639129 149.213307,26.1262592 C149.633401,26.6133895 149.843444,27.2451271 149.843444,28.0214909 C149.843444,29.3610992 149.460865,30.3391507 148.695695,30.9556749 C147.930525,31.5721992 146.857802,31.8804567 145.477495,31.8804567 C144.457268,31.8804567 143.572085,31.7358421 142.821918,31.4466085 C142.071751,31.1573749 141.407863,30.8377004 140.830235,30.4875756 C140.252606,30.1374507 139.734999,29.8177762 139.277397,29.5285426 C138.819795,29.2393091 138.365951,29.0946944 137.915851,29.0946944 C137.570775,29.0946944 137.248208,29.1784187 136.948141,29.3458697 C136.648074,29.5133207 136.415526,29.7340483 136.250489,30.0080591 L134,33.6158496 C134.645143,34.2704309 135.402801,34.864112 136.272994,35.3969107 C137.143188,35.9297094 138.073381,36.3901928 139.063601,36.7783747 C140.011474,37.1499559 140.990264,37.4413282 142,37.6524996 L142,40.0000299 L140.254082,40.0000299 C139.780963,40.0000299 139.423425,40.090431 139.181468,40.2712332 C138.939511,40.4520355 138.939511,40.7688445 139.181468,41.2216604 L144.187552,48.4667639 C144.454584,48.8346821 144.724036,49.0122102 144.995908,48.9993483 C145.267779,48.9864864 145.519756,48.8089583 145.75184,48.4667639 L150.579325,41.6087234 C150.998471,40.9992785 151.1044,40.5782613 150.897113,40.3456719 C150.689826,40.1130824 150.36324,39.9978684 149.917356,40.0000299 L149,40.0000299 Z" id="cheap"></path>
                    </g>
                </g>
            </g>
        </g>
    </g>
</svg>