<?xml version="1.0" encoding="UTF-8"?>
<svg width="26px" height="49px" viewBox="0 0 26 49" version="1.1" xmlns="http://www.w3.org/2000/svg" xmlns:xlink="http://www.w3.org/1999/xlink">
    <!-- Generator: Sketch 47.1 (45422) - http://www.bohemiancoding.com/sketch -->
    <title>fast-icon</title>
    <desc>Created with Sketch.</desc>
    <defs></defs>
    <g id="Page-1" stroke="none" stroke-width="1" fill="none" fill-rule="evenodd">
        <g id="Landing-page" transform="translate(-174.000000, -750.000000)" fill="#60C84D">
            <g id="why" transform="translate(0.000000, 605.000000)">
                <g id="sections" transform="translate(40.000000, 145.000000)">
                    <g id="section">
                        <path d="M146.008619,0 L134.200325,29.6972641 C133.933225,30.2802355 133.933225,30.8074287 134.200325,31.2788437 C134.467425,31.7502587 135.060968,31.8682837 135.980954,31.6329188 L146.585048,28.2590253 C147.128546,28.1870003 147.626609,28.3345332 148.079237,28.7016237 C148.531866,29.0687143 148.764813,29.564066 148.778079,30.1876788 L147.183147,49.0024694 L159.523196,18.9108065 C159.884172,18.1557978 159.884172,17.57246 159.523196,17.160793 C159.162221,16.749126 158.620687,16.5754493 157.898593,16.6397628 L148.369011,19.5795842 C147.364177,20.0102201 146.57738,20.0102201 146.008619,19.5795842 C145.439858,19.1489483 145.157811,18.4632789 145.162479,17.522576 L146.008619,0 Z" id="fast-icon"></path>
                    </g>
                </g>
            </g>
        </g>
    </g>
</svg>