<?xml version="1.0" encoding="UTF-8"?>
<svg xmlns="http://www.w3.org/2000/svg" id="_Слой_2" data-name="Слой 2" viewBox="0 0 245.73 38.43">
  <defs>
    <style>
      .cls-1 {
        fill: #091231;
      }

      .cls-2 {
        fill: #2e4eff;
      }
    </style>
  </defs>
  <g id="Layer_1" data-name="Layer 1">
    <g>
      <g>
        <path class="cls-1" d="M43.99,30.03c-.44-.39-.65-.86-.65-1.4V9.76c0-.54,.21-1.01,.64-1.4,.42-.39,.94-.59,1.55-.59h8.78c2.09,0,3.76,.58,5.01,1.75,1.25,1.16,1.88,2.73,1.88,4.68,0,.94-.25,1.82-.75,2.66-.5,.84-1.16,1.49-1.99,1.94v.1c1.13,.39,2.03,1.03,2.69,1.93,.66,.89,1,1.91,1,3.07,0,1.31-.31,2.47-.91,3.49-.61,1.02-1.46,1.82-2.55,2.38-1.09,.57-2.33,.85-3.72,.85h-9.43c-.59,0-1.1-.2-1.53-.59Zm10.25-12.67c.72,0,1.33-.29,1.84-.88,.51-.59,.77-1.29,.77-2.12,0-.89-.23-1.6-.7-2.12-.47-.52-1.1-.78-1.91-.78h-6.66v5.91h6.66Zm.65,9.57c.89,0,1.6-.27,2.12-.8,.52-.53,.78-1.27,.78-2.2s-.26-1.63-.77-2.14c-.51-.51-1.22-.77-2.14-.77h-7.31v5.91h7.31Z"></path>
        <path class="cls-1" d="M68.84,29.8c-1.47-.74-2.62-1.76-3.44-3.07-.83-1.31-1.24-2.79-1.24-4.44V10.7c0-1.04,.37-1.84,1.11-2.4,.74-.55,1.83-.83,3.26-.83v14.82c0,1.46,.48,2.62,1.44,3.49,.96,.87,2.23,1.31,3.82,1.31s2.86-.43,3.82-1.31c.96-.87,1.44-2.03,1.44-3.49V10.7c0-1.07,.37-1.87,1.11-2.42,.74-.54,1.83-.82,3.26-.82v14.82c0,1.65-.41,3.13-1.24,4.44-.83,1.31-1.98,2.33-3.44,3.07s-3.12,1.11-4.95,1.11-3.48-.37-4.95-1.11Z"></path>
        <path class="cls-1" d="M93.47,22.42l-8.06-14.49c.2-.13,.51-.24,.95-.33,.43-.09,.83-.13,1.17-.13,.81,0,1.48,.16,2.02,.49,.54,.33,1,.84,1.37,1.53l3.66,6.89c.62,1.17,.77,2.54,.42,3.82h0s5.39-10.71,5.39-10.71c.67-1.35,1.81-2.02,3.39-2.02,.35,0,.74,.04,1.18,.13,.43,.09,.75,.2,.95,.33l-8.06,14.53v5.22c0,1.04-.38,1.84-1.13,2.4-.75,.56-1.83,.83-3.25,.83v-8.49Z"></path>
        <path class="cls-2" d="M110.86,29.8c-1.51-.74-2.69-1.77-3.54-3.1-.85-1.33-1.27-2.84-1.27-4.54v-6.01c0-1.7,.42-3.2,1.26-4.52,.84-1.32,2-2.34,3.48-3.07,1.48-.73,3.18-1.09,5.09-1.09s3.62,.29,5.11,.87c1.49,.58,2.65,1.38,3.48,2.42,.83,1.03,1.24,2.21,1.24,3.54,0,.81-.27,1.44-.8,1.91-.53,.47-1.25,.7-2.14,.7-.44,0-.91-.07-1.44-.2,.04-.52,.07-1.03,.07-1.53,0-1.15-.51-2.09-1.53-2.81-1.02-.72-2.35-1.08-3.98-1.08s-2.92,.45-3.93,1.36-1.52,2.07-1.52,3.51v6.01c0,1.46,.52,2.64,1.57,3.56s2.39,1.37,4.05,1.37,2.96-.36,3.98-1.08c1.02-.72,1.53-1.64,1.53-2.77,0-.52-.02-1.02-.07-1.5,.54-.11,1-.16,1.37-.16,.91,0,1.64,.24,2.19,.72,.54,.48,.82,1.13,.82,1.96,0,1.28-.41,2.43-1.24,3.44-.83,1.01-1.99,1.8-3.48,2.37-1.49,.57-3.19,.85-5.11,.85s-3.66-.37-5.17-1.11Z"></path>
        <path class="cls-2" d="M132.16,29.85c-1.48-.71-2.65-1.67-3.51-2.89-.86-1.22-1.29-2.55-1.29-3.98v-7.61c0-1.44,.43-2.76,1.29-3.97s2.03-2.17,3.51-2.87c1.48-.71,3.11-1.06,4.9-1.06s3.42,.35,4.91,1.06c1.49,.71,2.67,1.66,3.53,2.87,.86,1.21,1.29,2.53,1.29,3.97v7.61c0,1.44-.43,2.76-1.29,3.98-.86,1.22-2.04,2.18-3.53,2.89-1.49,.71-3.13,1.06-4.91,1.06s-3.42-.35-4.9-1.06Zm8.81-3.92c.98-.77,1.47-1.78,1.47-3.02v-7.44c0-1.26-.49-2.28-1.47-3.05-.98-.77-2.29-1.16-3.92-1.16s-2.91,.39-3.88,1.16c-.98,.77-1.47,1.79-1.47,3.05v7.44c0,1.24,.49,2.25,1.47,3.02,.98,.77,2.27,1.16,3.88,1.16s2.94-.39,3.92-1.16Z"></path>
        <path class="cls-2" d="M149.62,10.74c0-1.02,.38-1.82,1.14-2.4,.76-.58,1.84-.87,3.23-.87V27.65c0,1.04-.38,1.85-1.14,2.42-.76,.57-1.84,.85-3.23,.85V10.74Z"></path>
        <path class="cls-2" d="M157.49,10.93c0-1.07,.36-1.91,1.08-2.53,.72-.62,1.69-.93,2.91-.93l11.03,17.24h0c-.67-1.64-1.01-3.39-1.01-5.16V7.47c1.41,0,2.49,.27,3.22,.82,.73,.54,1.09,1.35,1.09,2.42V27.94c0,.81-.34,1.5-1.03,2.09-.69,.59-1.47,.88-2.37,.88l-11.62-18.18h0c.67,1.66,1.01,3.43,1.01,5.22v9.73c0,1.07-.36,1.87-1.09,2.42-.73,.54-1.8,.82-3.22,.82V10.93Z"></path>
        <path class="cls-1" d="M178.64,10.93c0-1.07,.36-1.91,1.08-2.53,.72-.62,1.69-.93,2.91-.93l11.03,17.24h0c-.67-1.64-1.01-3.39-1.01-5.16V7.47c1.41,0,2.49,.27,3.22,.82,.73,.54,1.09,1.35,1.09,2.42V27.94c0,.81-.34,1.5-1.03,2.09-.69,.59-1.47,.88-2.37,.88l-11.62-18.18h0c.67,1.66,1.01,3.43,1.01,5.22v9.73c0,1.07-.36,1.87-1.09,2.42-.73,.54-1.8,.82-3.22,.82V10.93Z"></path>
        <path class="cls-1" d="M203.91,29.85c-1.48-.71-2.65-1.67-3.51-2.89-.86-1.22-1.29-2.55-1.29-3.98v-7.61c0-1.44,.43-2.76,1.29-3.97s2.03-2.17,3.51-2.87c1.48-.71,3.11-1.06,4.9-1.06s3.42,.35,4.91,1.06c1.49,.71,2.67,1.66,3.53,2.87,.86,1.21,1.29,2.53,1.29,3.97v7.61c0,1.44-.43,2.76-1.29,3.98-.86,1.22-2.04,2.18-3.53,2.89-1.49,.71-3.13,1.06-4.91,1.06s-3.42-.35-4.9-1.06Zm8.81-3.92c.98-.77,1.47-1.78,1.47-3.02v-7.44c0-1.26-.49-2.28-1.47-3.05-.98-.77-2.29-1.16-3.92-1.16s-2.91,.39-3.88,1.16c-.98,.77-1.47,1.79-1.47,3.05v7.44c0,1.24,.49,2.25,1.47,3.02,.98,.77,2.27,1.16,3.88,1.16s2.94-.39,3.92-1.16Z"></path>
        <path class="cls-1" d="M224.62,30.18c-.71-.49-1.18-1.19-1.42-2.11l-5.13-20.11c.52-.33,1.2-.49,2.02-.49s1.47,.19,1.99,.57c.52,.38,.87,.92,1.04,1.62l2.17,9.8c.38,1.7,.45,3.46,.21,5.18h0s4.44-15.7,4.44-15.7c.13-.46,.36-.82,.7-1.08,.34-.26,.75-.39,1.22-.39s.89,.13,1.24,.39c.35,.26,.59,.62,.72,1.08l2.85,10.72c.47,1.76,.62,3.59,.45,5.4h0s3.53-15.41,3.53-15.41c.15-.7,.48-1.23,1-1.62,.51-.38,1.18-.57,2.01-.57s1.49,.16,2.06,.49l-5.16,20.11c-.24,.91-.71,1.62-1.42,2.11-.71,.49-1.6,.73-2.69,.73l-4.96-18.15h0c.15,1.34,.05,2.69-.31,3.99l-3.87,14.16c-1.09,0-1.99-.24-2.69-.73Z"></path>
      </g>
      <g>
        <path class="cls-2" d="M4.35,26V12.44c0-4.46,3.62-8.08,8.08-8.08H31.73c0-2.4-1.95-4.35-4.35-4.35H12.44C5.57,0,0,5.57,0,12.44v13.56c0,6.87,5.57,12.44,12.44,12.44h14.95c2.4,0,4.35-1.95,4.35-4.35H12.44c-4.46,0-8.08-3.62-8.08-8.08Z"></path>
        <path class="cls-1" d="M31.72,15.07c.26-3.95-2.88-7.25-6.77-7.25H12.02c-2.4,0-4.35,1.95-4.35,4.35H24.95c1.51,0,2.7,1.38,2.38,2.95-.23,1.14-1.29,1.92-2.45,1.92h-2.63v-3.16h-4.35v5.05l-4.8-4.33c-2.09-1.88-5.42-.4-5.42,2.41v7.54h4.35v-5.05l4.8,4.33c2.09,1.88,5.42,.4,5.42-2.41v-.03h2.7c1.51,0,2.7,1.38,2.38,2.95-.23,1.14-1.29,1.92-2.45,1.92H7.67c0,2.4,1.95,4.35,4.35,4.35h12.68c3.61,0,6.77-2.72,7.01-6.32,.13-1.98-.59-3.79-1.83-5.11,1.04-1.09,1.72-2.51,1.83-4.11Z"></path>
      </g>
    </g>
  </g>
</svg>
