<svg width="145" height="33" fill="none" xmlns="http://www.w3.org/2000/svg"><path d="M5.86 24.4l-.075.17a5.72 5.72 0 000 4.435 5.79 5.79 0 001.274 1.88 5.885 5.885 0 001.908 1.256 5.955 5.955 0 004.5 0 5.885 5.885 0 001.907-1.256l10.82-10.661a5.88 5.88 0 001.76-4.189c0-1.41-.443-2.77-1.411-3.837a2.647 2.647 0 00-1.517-.17c-.457.084-.876.351-1.225.665L13.522 23.088c-.19.194-.41.355-.648.479.126-.077.25-.157.373-.24l-.032.013.03-.02a3.438 3.438 0 00-.03.02A8.69 8.69 0 015.86 24.4z" fill="#104ADE"/><path d="M13.215 23.34l.062-.042a2.588 2.588 0 01-2.424-.27 2.583 2.583 0 01-.757-.817 2.543 2.543 0 01.402-3.089l3.421-3.4 4.997-4.924.02-.018a.914.914 0 01.044-.035l.752-.742a5.835 5.835 0 011.162-.107c.879 0 1.626.085 2.371.297a5.793 5.793 0 013.288 2.01 2.648 2.648 0 00-1.527-.176c-.458.085-.877.352-1.226.666L13.522 23.088c-.191.194-.41.355-.649.479.126-.077.25-.157.373-.24l-.031.013z" fill="#0038C7"/><path d="M21.508 3.564a5.358 5.358 0 00-1.183-1.742A6.313 6.313 0 0018.28.474a6.389 6.389 0 00-4.83 0 6.315 6.315 0 00-2.047 1.348l-8.908 8.776A8.331 8.331 0 000 16.4a8.324 8.324 0 002.307 5.876l.093.089.096.098c.088.085.18.165.276.24a8.664 8.664 0 005.149 2.067 8.69 8.69 0 005.355-1.472 2.588 2.588 0 01-2.424-.27 2.583 2.583 0 01-.757-.817 2.543 2.543 0 01.402-3.089l3.421-3.4 4.997-4.924.064-.053 1.345-1.327a5.343 5.343 0 001.493-2.75 5.295 5.295 0 00-.31-3.102v-.002z" fill="#0F75FC"/><path d="M102.403 23.795c-.827 0-1.575-.142-2.244-.425-.657-.284-1.179-.692-1.564-1.224-.385-.533-.584-1.162-.595-1.887h2.55c.034.487.204.872.51 1.156.317.283.748.425 1.292.425.555 0 .992-.13 1.309-.391.317-.272.476-.624.476-1.054 0-.352-.108-.64-.323-.867a2.159 2.159 0 00-.816-.527 11.138 11.138 0 00-1.326-.442c-.771-.227-1.4-.448-1.887-.663a3.496 3.496 0 01-1.241-1.003c-.34-.454-.51-1.054-.51-1.802 0-.703.176-1.315.527-1.836.351-.522.844-.918 1.479-1.19.635-.284 1.36-.425 2.176-.425 1.224 0 2.216.3 2.975.9.771.59 1.196 1.417 1.275 2.483h-2.618a1.324 1.324 0 00-.527-1.003c-.317-.272-.742-.408-1.275-.408-.465 0-.839.119-1.122.357-.272.238-.408.583-.408 1.037 0 .317.102.583.306.799.215.204.476.374.782.51.317.124.759.272 1.326.442.771.226 1.4.453 1.887.68a3.39 3.39 0 011.258 1.02c.351.453.527 1.048.527 1.785 0 .634-.164 1.224-.493 1.768-.329.544-.81.98-1.445 1.309-.635.317-1.388.476-2.261.476zm19.318-9.537l-2.754 9.418H116.4l-1.717-6.58-1.717 6.58h-2.584l-2.771-9.418h2.414l1.666 7.174 1.802-7.174h2.516l1.768 7.157 1.666-7.157h2.278zm.676 4.675c0-.952.187-1.797.561-2.533.385-.737.901-1.304 1.547-1.7a4.161 4.161 0 012.193-.595c.703 0 1.315.141 1.836.425.533.283.958.64 1.275 1.07v-1.342h2.397v9.418h-2.397v-1.377c-.306.442-.731.81-1.275 1.105-.533.283-1.15.425-1.853.425a4.045 4.045 0 01-2.176-.612c-.646-.408-1.162-.98-1.547-1.717-.374-.748-.561-1.604-.561-2.567zm7.412.034c0-.578-.113-1.071-.34-1.48a2.33 2.33 0 00-.918-.951 2.406 2.406 0 00-1.241-.34c-.442 0-.85.107-1.224.323a2.47 2.47 0 00-.918.952c-.227.408-.34.895-.34 1.462 0 .566.113 1.065.34 1.496.238.419.544.742.918.969.385.226.793.34 1.224.34.442 0 .856-.108 1.241-.323a2.48 2.48 0 00.918-.952c.227-.42.34-.918.34-1.496zm7.102-3.349c.306-.431.725-.788 1.258-1.071.544-.295 1.161-.442 1.853-.442.804 0 1.53.198 2.176.595.657.396 1.173.963 1.547 1.7.385.725.578 1.57.578 2.533 0 .963-.193 1.819-.578 2.567-.374.736-.89 1.309-1.547 1.717a3.991 3.991 0 01-2.176.612c-.692 0-1.304-.142-1.836-.425a3.931 3.931 0 01-1.275-1.071v5.83h-2.38V14.259h2.38v1.36zm4.981 3.315c0-.567-.119-1.054-.357-1.462a2.33 2.33 0 00-.918-.952 2.41 2.41 0 00-1.224-.323c-.431 0-.839.113-1.224.34a2.47 2.47 0 00-.918.952c-.227.419-.34.912-.34 1.479 0 .566.113 1.06.34 1.479.238.419.544.742.918.969a2.47 2.47 0 001.224.323c.442 0 .85-.114 1.224-.34.385-.227.691-.55.918-.97.238-.419.357-.917.357-1.495zM42.27 23.795c-.827 0-1.575-.142-2.244-.425-.657-.284-1.179-.692-1.564-1.224-.385-.533-.584-1.162-.595-1.887h2.55c.034.487.204.872.51 1.156.318.283.748.425 1.292.425.556 0 .992-.13 1.31-.391.316-.272.475-.624.475-1.054 0-.352-.107-.64-.323-.867a2.161 2.161 0 00-.816-.527c-.317-.136-.76-.284-1.326-.442a15.88 15.88 0 01-1.887-.663 3.497 3.497 0 01-1.24-1.003c-.34-.454-.51-1.054-.51-1.802 0-.703.175-1.315.526-1.836.352-.522.845-.918 1.48-1.19.634-.284 1.36-.425 2.175-.425 1.224 0 2.216.3 2.975.9.77.59 1.196 1.417 1.275 2.483h-2.618a1.324 1.324 0 00-.527-1.003c-.317-.272-.742-.408-1.275-.408-.464 0-.838.119-1.122.357-.272.238-.408.583-.408 1.037 0 .317.102.583.306.799.215.204.476.374.782.51.318.124.76.272 1.326.442.77.226 1.4.453 1.887.68.488.226.907.566 1.258 1.02.352.453.527 1.048.527 1.785 0 .634-.164 1.224-.493 1.768-.328.544-.81.98-1.445 1.309-.634.317-1.388.476-2.26.476zm7.47-10.659c-.42 0-.771-.13-1.054-.391a1.363 1.363 0 01-.408-1.003c0-.397.136-.726.408-.986a1.463 1.463 0 011.054-.408c.419 0 .765.136 1.037.408.283.26.425.589.425.986 0 .396-.142.73-.425 1.003-.272.26-.618.39-1.037.39zm1.173 1.122v9.418h-2.38v-9.418h2.38zm14.047-.136c1.156 0 2.085.357 2.788 1.07.714.703 1.071 1.69 1.071 2.959v5.525h-2.38v-5.202c0-.737-.187-1.298-.561-1.683-.374-.397-.884-.595-1.53-.595s-1.162.198-1.547.595c-.374.385-.561.946-.561 1.683v5.202h-2.38v-5.202c0-.737-.187-1.298-.561-1.683-.374-.397-.884-.595-1.53-.595-.657 0-1.179.198-1.564.595-.374.385-.561.946-.561 1.683v5.202h-2.38v-9.418h2.38v1.139a3.183 3.183 0 011.173-.935 3.742 3.742 0 011.598-.34c.737 0 1.394.158 1.972.476a3.222 3.222 0 011.343 1.326c.306-.544.748-.98 1.326-1.31a3.846 3.846 0 011.904-.492zm8.497 1.496c.306-.431.726-.788 1.259-1.071.544-.295 1.161-.442 1.853-.442A4.075 4.075 0 0180.29 16.4c.386.725.579 1.57.579 2.533 0 .963-.193 1.819-.579 2.567-.373.736-.89 1.309-1.546 1.717a3.99 3.99 0 01-2.177.612c-.69 0-1.303-.142-1.835-.425a3.949 3.949 0 01-1.276-1.071v5.83h-2.38V14.259h2.38v1.36zm4.982 3.315c0-.567-.12-1.054-.357-1.462a2.326 2.326 0 00-.918-.952 2.41 2.41 0 00-1.225-.323c-.43 0-.838.113-1.223.34a2.47 2.47 0 00-.918.952c-.227.419-.34.912-.34 1.479 0 .566.113 1.06.34 1.479a2.6 2.6 0 00.918.969c.385.215.793.323 1.224.323.442 0 .85-.114 1.224-.34.385-.227.69-.55.918-.97.238-.419.357-.917.357-1.495zm6.54-7.837v12.58h-2.38v-12.58h2.38zm11.106 7.667c0 .34-.022.646-.068.918h-6.885c.057.68.295 1.212.714 1.598.42.385.935.578 1.547.578.884 0 1.513-.38 1.887-1.14h2.567a4.334 4.334 0 01-1.564 2.245c-.77.578-1.717.867-2.839.867-.906 0-1.722-.199-2.448-.595a4.38 4.38 0 01-1.683-1.717c-.396-.737-.595-1.587-.595-2.55 0-.975.199-1.83.595-2.567a4.151 4.151 0 011.666-1.7c.714-.397 1.536-.595 2.465-.595.896 0 1.695.192 2.397.578a3.987 3.987 0 011.65 1.649c.396.702.594 1.513.594 2.43zm-2.465-.68c-.01-.612-.232-1.1-.663-1.462-.43-.374-.957-.561-1.58-.561-.59 0-1.089.181-1.497.544-.396.351-.64.844-.73 1.479h4.47z" fill="#3F5878"/></svg>
