<?xml version="1.0" encoding="utf-8"?>
<!-- Generator: Adobe Illustrator 25.2.3, SVG Export Plug-In . SVG Version: 6.00 Build 0)  -->
<svg version="1.1" id="Layer_1" xmlns="http://www.w3.org/2000/svg" xmlns:xlink="http://www.w3.org/1999/xlink" x="0px" y="0px"
	 viewBox="0 0 903.4 253.6" style="enable-background:new 0 0 903.4 253.6;" xml:space="preserve">
<style type="text/css">
	.st0{fill:#D37500;}
	.st1{fill:#FFA428;}
	.st2{fill:#413EFF;}
	.st3{fill:none;stroke:#D37500;stroke-width:6;stroke-miterlimit:10;}
</style>
<g>
	<g>
		<path class="st0" d="M196.2,162.1c-6.5,6.8-14.6,10.1-24.4,10.1c-10,0-18.1-3.3-24.5-10c-2.6-2.7-4.6-5.6-6.1-8.9h-29.8
			c0,0-3.8,13.9-0.3,19.4h121.3c3.9-6,6.7-12.5,8.4-19.4h-38.4C200.8,156.6,198.8,159.5,196.2,162.1z"/>
		<path class="st0" d="M141.2,119.6c1.5-3.3,3.6-6.3,6.1-9c6.4-6.8,14.6-10.3,24.5-10.3c9.8,0,17.9,3.5,24.4,10.4
			c2.5,2.7,4.6,5.7,6.1,8.9h38.5c-1.7-7-4.5-13.6-8.4-19.6H111.2c-3.5,5.5,0.2,19.6,0.2,19.6L141.2,119.6L141.2,119.6z"/>
		<path class="st0" d="M170.8,96.1h34v-7.5h18.4c-0.4-0.4-0.8-0.9-1.3-1.3c-5.3-5.1-11-9.2-17.2-12.3v-7.6h-34l0,0
			c-0.1,0-0.2,0-0.2,0c-1.1,0-2.1,0-3.1,0.1c-0.3,0-0.6,0-1,0.1c-0.8,0-1.6,0.1-2.4,0.2c-0.6,0.1-1.1,0.1-1.7,0.2
			c-0.5,0.1-1.1,0.1-1.6,0.2c-0.9,0.1-1.7,0.3-2.6,0.4c-0.2,0-0.5,0.1-0.7,0.1c-13.6,2.5-25.5,8.7-35.8,18.6
			c-0.4,0.4-0.8,0.9-1.3,1.3h50.4v7.5H170.8z"/>
		<path class="st0" d="M204.8,176.7h-34v7.4h-50.6c0.4,0.5,0.9,0.9,1.3,1.4c11,10.7,24,17.1,39.1,19.1c0.4,0,0.7,0.1,1.1,0.1
			c0.8,0.1,1.5,0.2,2.3,0.2c0.7,0.1,1.4,0.1,2.1,0.2c0.4,0,0.9,0.1,1.3,0.1c1,0,2,0.1,3,0.1c0.1,0,0.3,0,0.4,0l0,0h0.8l0,0l0,0h33.2
			v-7.7c6.1-3.1,11.9-7.3,17.2-12.3c0.4-0.4,0.8-0.8,1.2-1.2h-18.4L204.8,176.7L204.8,176.7z"/>
	</g>
	<path class="st0" d="M221.7,87.3c-13.9-13.2-30.6-19.9-50.1-19.9c-19.7,0-36.4,6.6-50.1,19.9c-13.7,13.2-20.5,29.6-20.5,48.9
		c0,19.6,6.8,36,20.4,49.2c13.6,13.2,30.3,19.9,50,19.9s36.5-6.7,50.4-20s20.8-29.7,20.8-49.1C242.5,116.9,235.6,100.6,221.7,87.3z"
		/>
	<path class="st1" d="M104.7,76.1c9.8,5.8,17.5,13.7,23.2,23.9l-25.1,19.5c-8.5-12.8-19.1-19.2-31.7-19.2
		c-10.1,0-18.4,3.4-24.9,10.3c-6.5,6.8-9.7,15.4-9.7,25.7c0,10.5,3.2,19.2,9.7,26s14.8,10.3,24.9,10.3c12.3,0,22.8-6.3,31.7-18.9
		l25.1,19.2c-5.7,10.1-13.5,18.1-23.3,24c-9.9,5.9-21.2,8.8-34,8.8c-19.7,0-36.4-6.7-50.1-20S0,155.9,0,136.4
		c0-19.4,6.8-35.7,20.5-48.9c13.7-13.2,30.4-19.9,50.1-19.9C83.5,67.5,94.9,70.4,104.7,76.1z"/>
	<path class="st1" d="M314.1,6.4c4.5,4.3,6.8,9.6,6.8,16c0,6.2-2.3,11.5-6.8,15.7c-4.5,4.3-10,6.4-16.4,6.4s-11.8-2.1-16.3-6.4
		c-4.4-4.3-6.7-9.5-6.7-15.7c0-6.4,2.2-11.7,6.7-16c4.4-4.3,9.9-6.4,16.3-6.4S309.6,2.1,314.1,6.4z M315.9,202.4h-36v-132h36V202.4z
		"/>
	<path class="st1" d="M438.3,82c8.9,9.7,13.3,22.5,13.3,38.5v81.9h-35.7v-77.1c0-7.6-2.3-13.8-6.8-18.5s-10.4-7.1-17.7-7.1
		c-7.3,0-13.3,2.4-18,7.1c-4.7,4.7-7.1,10.9-7.1,18.5v77.1h-36v-132h33.1v12c10-10,22.8-14.9,38.7-14.9
		C417.3,67.5,429.4,72.3,438.3,82z"/>
	<path class="st2" d="M597.5,70.4v117.3c0,21.5-6.2,37.9-18.7,49.1c-12.4,11.2-29,16.8-49.6,16.8c-24.9,0-46.5-8.2-64.8-24.5
		l18.9-25.1c14.8,11.4,29.1,17.1,42.9,17.1c10.7,0,19.2-2.6,25.6-7.9c6.4-5.2,9.6-13,9.6-23.3v-7.2c-9.6,10.5-23,15.7-40.3,15.7
		c-18.3,0-33.4-6.1-45.3-18.3c-11.9-12.2-17.9-28-17.9-47.3c0-19.6,6-35.3,17.9-47.3s27-18,45.3-18c19.4,0,33.8,6.5,43.2,19.5V70.5
		h33.2V70.4z M552.1,158.7c6.6-6.2,9.9-15,9.9-26.4s-3.2-19.9-9.7-25.6c-6.5-5.7-14.4-8.5-23.6-8.5c-9.8,0-17.9,3.1-24.4,9.2
		s-9.7,14.5-9.7,25.2s3.3,19.2,9.9,25.7s14.7,9.7,24.3,9.7C537.7,168,545.6,164.9,552.1,158.7z"/>
	<path class="st2" d="M646.1,6.4c4.5,4.3,6.8,9.6,6.8,16c0,6.2-2.3,11.5-6.8,15.7c-4.5,4.3-10,6.4-16.4,6.4s-11.8-2.1-16.3-6.4
		c-4.4-4.3-6.7-9.5-6.7-15.7c0-6.4,2.2-11.7,6.7-16c4.4-4.3,9.9-6.4,16.3-6.4C636.1,0,641.6,2.1,646.1,6.4z M647.9,202.4h-36v-132
		h36V202.4z"/>
	<path class="st2" d="M794.8,70.4v117.3c0,21.5-6.2,37.9-18.7,49.1c-12.4,11.2-29,16.8-49.6,16.8c-24.9,0-46.5-8.2-64.8-24.5
		l18.9-25.1c14.8,11.4,29.1,17.1,42.9,17.1c10.7,0,19.2-2.6,25.6-7.9c6.4-5.2,9.6-13,9.6-23.3v-7.2c-9.6,10.5-23,15.7-40.3,15.7
		c-18.3,0-33.4-6.1-45.3-18.3c-11.9-12.2-17.9-28-17.9-47.3c0-19.6,6-35.3,17.9-47.3s27-18,45.3-18c19.4,0,33.8,6.5,43.2,19.5V70.5
		h33.2V70.4z M749.5,158.7c6.6-6.2,9.9-15,9.9-26.4s-3.2-19.9-9.7-25.6c-6.5-5.7-14.4-8.5-23.6-8.5c-9.8,0-17.9,3.1-24.4,9.2
		c-6.5,6.1-9.7,14.5-9.7,25.2s3.3,19.2,9.9,25.7s14.7,9.7,24.3,9.7C735.1,168,742.9,164.9,749.5,158.7z"/>
	<path class="st2" d="M901.5,87.2l-18.1,22.1c-8.9-8.4-18.8-12.5-29.6-12.5c-9.4,0-14.1,3.1-14.1,9.3c0,2.5,1,4.6,3.1,6.3
		c2,1.7,5.6,3.5,10.8,5.5l12.8,5.3c12.8,5.2,22.2,10.7,28.1,16.7c6,6,8.9,13.8,8.9,23.6c0,13.2-4.8,23.5-14.5,30.9
		c-9.7,7.5-22,11.2-36.9,11.2c-23.5,0-41.7-8.5-54.7-25.6l18.1-21.9C827,170,839.3,176,852.5,176c4.8,0,8.8-0.9,12-2.8
		c3.2-1.9,4.8-4.6,4.8-8.1c0-2.8-1-5-3.1-6.5c-2-1.5-5.6-3.3-10.5-5.5l-14.1-5.9c-12.1-5-21.1-10.5-27.1-16.5s-8.9-14-8.9-23.7
		c0-12.4,4.5-22.2,13.5-29.2s20.7-10.5,35.1-10.5C873.7,67.2,889.6,73.9,901.5,87.2z"/>
	<path class="st1" d="M255.9,87.3c-13.9-13.2-30.6-19.9-50.1-19.9c-19.7,0-36.4,6.6-50.1,19.9c-13.7,13.2-20.5,29.6-20.5,48.9
		c0,19.6,6.8,36,20.4,49.2s30.3,19.9,50,19.9s36.5-6.7,50.4-20s20.8-29.7,20.8-49.1C276.7,116.9,269.8,100.6,255.9,87.3z"/>
	<circle class="st3" cx="205.9" cy="136.4" r="46.1"/>
</g>
</svg>
