<svg width="163" height="33" viewBox="0 0 163 33" fill="none" xmlns="http://www.w3.org/2000/svg">
<path d="M89.4443 24.9999V7.95994H95.0796C96.6666 7.95994 97.9135 8.37594 98.8203 9.20794C99.7272 10.0239 100.181 11.1359 100.181 12.5439C100.181 13.8559 99.7757 14.9199 98.9661 15.7359C98.1726 16.5359 97.0714 16.9919 95.6626 17.1039L102.488 24.9999H100.083L93.2579 17.0799H91.2904V24.9999H89.4443ZM91.2904 15.3999H94.861C97.1605 15.3999 98.3102 14.4479 98.3102 12.5439C98.3102 10.6239 97.1605 9.66394 94.861 9.66394H91.2904V15.3999Z" fill="#1168F1"/>
<path d="M109.27 25.2399C107.488 25.2399 106.015 24.6399 104.849 23.4399C103.699 22.2239 103.124 20.7439 103.124 18.9999C103.124 17.2559 103.699 15.7839 104.849 14.5839C106.015 13.3679 107.488 12.7599 109.27 12.7599C111.035 12.7599 112.444 13.3279 113.496 14.4639V12.9999H115.196V24.9999H113.496V23.5359C112.444 24.6719 111.035 25.2399 109.27 25.2399ZM109.343 23.6799C110.282 23.6799 111.108 23.4799 111.82 23.0799C112.533 22.6799 113.091 22.1519 113.496 21.4959V16.5039C113.091 15.8479 112.533 15.3199 111.82 14.9199C111.108 14.5199 110.282 14.3199 109.343 14.3199C108.031 14.3199 106.954 14.7759 106.112 15.6879C105.286 16.5839 104.873 17.6879 104.873 18.9999C104.873 20.3119 105.286 21.4239 106.112 22.3359C106.954 23.2319 108.031 23.6799 109.343 23.6799Z" fill="#1168F1"/>
<path d="M125.299 25.2399C123.534 25.2399 122.126 24.6719 121.073 23.5359V24.9999H119.373V7.47994H121.073V14.4639C122.126 13.3279 123.534 12.7599 125.299 12.7599C127.081 12.7599 128.546 13.3679 129.696 14.5839C130.862 15.7839 131.445 17.2559 131.445 18.9999C131.445 20.7439 130.862 22.2239 129.696 23.4399C128.546 24.6399 127.081 25.2399 125.299 25.2399ZM125.227 23.6799C126.538 23.6799 127.607 23.2319 128.433 22.3359C129.275 21.4239 129.696 20.3119 129.696 18.9999C129.696 17.6879 129.275 16.5839 128.433 15.6879C127.607 14.7759 126.538 14.3199 125.227 14.3199C124.287 14.3199 123.461 14.5199 122.749 14.9199C122.036 15.3199 121.478 15.8479 121.073 16.5039V21.4959C121.478 22.1519 122.036 22.6799 122.749 23.0799C123.461 23.4799 124.287 23.6799 125.227 23.6799Z" fill="#1168F1"/>
<path d="M140.528 25.2399C138.763 25.2399 137.354 24.6719 136.302 23.5359V24.9999H134.601V7.47994H136.302V14.4639C137.354 13.3279 138.763 12.7599 140.528 12.7599C142.309 12.7599 143.775 13.3679 144.925 14.5839C146.091 15.7839 146.674 17.2559 146.674 18.9999C146.674 20.7439 146.091 22.2239 144.925 23.4399C143.775 24.6399 142.309 25.2399 140.528 25.2399ZM140.455 23.6799C141.767 23.6799 142.836 23.2319 143.662 22.3359C144.504 21.4239 144.925 20.3119 144.925 18.9999C144.925 17.6879 144.504 16.5839 143.662 15.6879C142.836 14.7759 141.767 14.3199 140.455 14.3199C139.516 14.3199 138.69 14.5199 137.978 14.9199C137.265 15.3199 136.707 15.8479 136.302 16.5039V21.4959C136.707 22.1519 137.265 22.6799 137.978 23.0799C138.69 23.4799 139.516 23.6799 140.455 23.6799Z" fill="#1168F1"/>
<path d="M150.705 9.87994C150.332 9.87994 150.016 9.75994 149.757 9.51994C149.514 9.26394 149.393 8.95994 149.393 8.60794C149.393 8.25594 149.514 7.95994 149.757 7.71994C150.016 7.46394 150.332 7.33594 150.705 7.33594C151.061 7.33594 151.36 7.46394 151.603 7.71994C151.846 7.95994 151.968 8.25594 151.968 8.60794C151.968 8.95994 151.846 9.26394 151.603 9.51994C151.36 9.75994 151.061 9.87994 150.705 9.87994ZM149.83 24.9999V12.9999H151.53V24.9999H149.83Z" fill="#1168F1"/>
<path d="M160.547 25.1199C159.543 25.1199 158.701 24.8239 158.02 24.2319C157.357 23.6399 157.025 22.7839 157.025 21.6639V14.5839H153.94V12.9999H157.025V9.66394H158.725V12.9999H162.514V14.5839H158.725V21.5199C158.725 22.2399 158.903 22.7679 159.259 23.1039C159.632 23.4399 160.109 23.6079 160.692 23.6079C161.34 23.6079 161.939 23.4559 162.49 23.1519L163 24.5919C162.32 24.9439 161.502 25.1199 160.547 25.1199Z" fill="#1168F1"/>
<path d="M32.3294 20.408C33.3172 21.416 34.5074 21.92 35.9001 21.92C37.2927 21.92 38.4748 21.416 39.4464 20.408C40.418 19.4 40.9038 18.2 40.9038 16.808C40.9038 15.416 40.418 14.216 39.4464 13.208C38.4748 12.2 37.2927 11.696 35.9001 11.696C34.5074 11.696 33.3172 12.2 32.3294 13.208C31.3578 14.216 30.872 15.416 30.872 16.808C30.872 18.2 31.3578 19.4 32.3294 20.408Z" fill="#1168F1"/>
<path fill-rule="evenodd" clip-rule="evenodd" d="M8 0C3.58172 0 0 3.58172 0 8V25C0 29.4183 3.58172 33 8 33H74C78.4183 33 82 29.4183 82 25V8C82 3.58172 78.4183 0 74 0H8ZM9.59904 23.048C11.3479 24.76 13.4531 25.616 15.9145 25.616C17.6796 25.616 19.2746 25.192 20.6996 24.344C22.1247 23.496 23.2177 22.368 23.9788 20.96L20.5782 19.136C19.5418 20.992 17.9872 21.92 15.9145 21.92C14.5218 21.92 13.3316 21.416 12.3438 20.408C11.3722 19.4 10.8864 18.2 10.8864 16.808C10.8864 15.416 11.3722 14.216 12.3438 13.208C13.3316 12.2 14.5218 11.696 15.9145 11.696C17.9872 11.696 19.5418 12.624 20.5782 14.48L23.9788 12.656C23.2177 11.248 22.1247 10.12 20.6996 9.272C19.2746 8.424 17.6796 8 15.9145 8C13.4531 8 11.3479 8.864 9.59904 10.592C7.86635 12.304 7 14.376 7 16.808C7 19.24 7.86635 21.32 9.59904 23.048ZM35.9001 25.616C38.3615 25.616 40.4585 24.752 42.1912 23.024C43.9401 21.296 44.8145 19.224 44.8145 16.808C44.8145 14.392 43.9401 12.32 42.1912 10.592C40.4585 8.864 38.3615 8 35.9001 8C33.4387 8 31.3335 8.864 29.5846 10.592C27.8519 12.304 26.9856 14.376 26.9856 16.808C26.9856 19.24 27.8519 21.32 29.5846 23.048C31.3335 24.76 33.4387 25.616 35.9001 25.616ZM53.0621 8.288H49.2V25.328H53.0621V8.288ZM70.6828 25.328H74.0106V8.288H70.1242V18.824L61.7441 8.288H58.4163V25.328H62.2785V14.792L70.6828 25.328Z" fill="#1168F1"/>
</svg>
