<?xml version="1.0" encoding="UTF-8"?>
<svg xmlns="http://www.w3.org/2000/svg" xmlns:xlink="http://www.w3.org/1999/xlink" width="166pt" height="78pt" viewBox="0 0 166 78" version="1.1">
<g id="surface1">
<path style=" stroke:none;fill-rule:nonzero;fill:rgb(39.215686%,67.45098%,100%);fill-opacity:1;" d="M 2.550781 11.636719 L 7.226562 11.636719 L 17.492188 28.042969 L 17.492188 11.636719 L 22.554688 11.636719 L 22.554688 36.667969 L 17.910156 36.667969 L 7.613281 20.402344 L 7.613281 36.667969 L 2.550781 36.667969 Z M 39.617188 37.296875 C 37.753906 37.296875 36.089844 36.992188 34.621094 36.386719 C 33.15625 35.777344 31.910156 34.902344 30.886719 33.757812 C 29.863281 32.613281 29.070312 31.234375 28.511719 29.621094 C 27.976562 28.007812 27.710938 26.183594 27.710938 24.152344 C 27.710938 22.117188 27.976562 20.296875 28.511719 18.683594 C 29.070312 17.070312 29.863281 15.691406 30.886719 14.546875 C 31.933594 13.402344 33.191406 12.523438 34.65625 11.917969 C 36.125 11.308594 37.777344 11.003906 39.617188 11.003906 C 41.476562 11.003906 43.144531 11.308594 44.609375 11.917969 C 46.074219 12.523438 47.308594 13.402344 48.308594 14.546875 C 49.335938 15.691406 50.113281 17.070312 50.648438 18.683594 C 51.183594 20.296875 51.453125 22.117188 51.453125 24.152344 C 51.453125 26.183594 51.183594 28.007812 50.648438 29.621094 C 50.136719 31.234375 49.371094 32.613281 48.34375 33.757812 C 47.34375 34.902344 46.109375 35.777344 44.644531 36.386719 C 43.175781 36.992188 41.5 37.296875 39.617188 37.296875 Z M 39.582031 32.808594 C 41.769531 32.808594 43.398438 32.0625 44.46875 30.566406 C 45.539062 29.070312 46.074219 26.933594 46.074219 24.152344 C 46.074219 21.394531 45.539062 19.265625 44.46875 17.769531 C 43.398438 16.253906 41.769531 15.492188 39.582031 15.492188 C 37.394531 15.492188 35.765625 16.253906 34.691406 17.769531 C 33.621094 19.265625 33.085938 21.394531 33.085938 24.152344 C 33.085938 26.933594 33.621094 29.070312 34.691406 30.566406 C 35.765625 32.0625 37.394531 32.808594 39.582031 32.808594 Z M 53.8125 11.636719 L 59.675781 11.636719 L 63.691406 29.023438 L 67.777344 11.777344 L 73.292969 11.777344 L 77.554688 29.023438 L 81.324219 11.636719 L 86.910156 11.636719 L 80.136719 36.667969 L 75.074219 36.667969 L 70.429688 18.15625 L 65.925781 36.667969 L 61.003906 36.667969 Z M 53.8125 11.636719 "/>
<path style=" stroke:none;fill-rule:nonzero;fill:rgb(7.45098%,9.019608%,10.980392%);fill-opacity:1;" d="M 2.757812 43.636719 L 11.101562 43.636719 C 12.941406 43.636719 14.457031 43.835938 15.640625 44.230469 C 16.851562 44.628906 17.796875 45.167969 18.46875 45.84375 C 19.167969 46.523438 19.644531 47.316406 19.902344 48.230469 C 20.179688 49.117188 20.320312 50.0625 20.320312 51.066406 C 20.320312 52.121094 20.179688 53.125 19.902344 54.082031 C 19.621094 55.042969 19.132812 55.882812 18.4375 56.605469 C 17.738281 57.332031 16.792969 57.90625 15.609375 58.324219 C 14.421875 58.746094 12.917969 58.957031 11.101562 58.957031 L 5.9375 58.957031 L 5.9375 68.667969 L 2.757812 68.667969 Z M 11.070312 56.222656 C 12.277344 56.222656 13.28125 56.105469 14.070312 55.871094 C 14.863281 55.636719 15.480469 55.296875 15.921875 54.855469 C 16.363281 54.410156 16.667969 53.882812 16.828125 53.277344 C 17.015625 52.644531 17.109375 51.945312 17.109375 51.171875 C 17.109375 50.378906 17.015625 49.675781 16.828125 49.070312 C 16.644531 48.460938 16.316406 47.960938 15.851562 47.5625 C 15.386719 47.164062 14.757812 46.875 13.964844 46.6875 C 13.199219 46.476562 12.21875 46.371094 11.035156 46.371094 L 5.9375 46.371094 L 5.9375 56.222656 Z M 35.316406 66.175781 C 34.667969 66.972656 33.839844 67.660156 32.839844 68.246094 C 31.839844 68.808594 30.59375 69.085938 29.101562 69.085938 C 28.195312 69.085938 27.355469 68.96875 26.589844 68.738281 C 25.84375 68.527344 25.191406 68.199219 24.632812 67.753906 C 24.097656 67.289062 23.679688 66.714844 23.375 66.039062 C 23.074219 65.359375 22.921875 64.566406 22.921875 63.652344 C 22.921875 62.414062 23.179688 61.410156 23.691406 60.636719 C 24.226562 59.867188 24.925781 59.261719 25.785156 58.816406 C 26.671875 58.371094 27.660156 58.054688 28.753906 57.871094 C 29.847656 57.683594 30.976562 57.566406 32.140625 57.519531 L 35.25 57.414062 L 35.25 56.710938 C 35.25 55.171875 34.921875 54.058594 34.269531 53.382812 C 33.617188 52.703125 32.558594 52.367188 31.09375 52.367188 C 29.648438 52.367188 28.589844 52.609375 27.914062 53.101562 C 27.242188 53.570312 26.796875 54.222656 26.589844 55.066406 L 23.832031 54.75 C 24.15625 53.089844 24.9375 51.886719 26.171875 51.136719 C 27.402344 50.367188 29.078125 49.980469 31.199219 49.980469 C 32.5 49.980469 33.597656 50.144531 34.480469 50.472656 C 35.386719 50.777344 36.121094 51.21875 36.679688 51.804688 C 37.238281 52.390625 37.632812 53.113281 37.867188 53.976562 C 38.121094 54.84375 38.25 55.8125 38.25 56.886719 L 38.25 68.667969 L 35.316406 68.667969 Z M 35.25 59.585938 L 32.351562 59.691406 C 31.117188 59.738281 30.09375 59.855469 29.277344 60.042969 C 28.464844 60.230469 27.8125 60.488281 27.324219 60.8125 C 26.855469 61.117188 26.519531 61.503906 26.308594 61.972656 C 26.125 62.4375 26.03125 62.976562 26.03125 63.582031 C 26.03125 64.496094 26.296875 65.230469 26.832031 65.792969 C 27.390625 66.328125 28.300781 66.597656 29.558594 66.597656 C 31.347656 66.597656 32.746094 66.15625 33.746094 65.265625 C 34.746094 64.378906 35.25 63.164062 35.25 61.621094 Z M 43.660156 72.523438 C 44.3125 72.757812 44.964844 72.875 45.617188 72.875 C 46.359375 72.875 46.929688 72.675781 47.328125 72.277344 C 47.746094 71.902344 48.152344 71.191406 48.550781 70.140625 L 49.28125 68.210938 L 41.636719 50.542969 L 45.164062 50.542969 L 50.855469 64.773438 L 56.054688 50.542969 L 59.410156 50.542969 L 51.515625 70.382812 C 51.191406 71.203125 50.867188 71.914062 50.539062 72.523438 C 50.214844 73.152344 49.851562 73.691406 49.457031 74.136719 C 49.0625 74.578125 48.585938 74.90625 48.027344 75.117188 C 47.492188 75.351562 46.828125 75.46875 46.035156 75.46875 C 45.476562 75.46875 44.976562 75.433594 44.535156 75.363281 C 44.089844 75.292969 43.601562 75.164062 43.066406 74.976562 Z M 62.875 50.542969 L 65.878906 50.542969 L 65.878906 53.3125 C 66.691406 52.191406 67.589844 51.359375 68.566406 50.824219 C 69.542969 50.261719 70.546875 49.980469 71.570312 49.980469 C 72.917969 49.980469 74 50.273438 74.816406 50.859375 C 75.65625 51.441406 76.269531 52.285156 76.667969 53.382812 C 77.480469 52.261719 78.414062 51.417969 79.460938 50.859375 C 80.507812 50.273438 81.625 49.980469 82.8125 49.980469 C 84.582031 49.980469 85.941406 50.472656 86.898438 51.453125 C 87.875 52.414062 88.363281 53.964844 88.363281 56.117188 L 88.363281 68.667969 L 85.328125 68.667969 L 85.328125 56.816406 C 85.328125 56 85.257812 55.320312 85.117188 54.785156 C 84.976562 54.222656 84.765625 53.789062 84.488281 53.488281 C 84.230469 53.160156 83.90625 52.9375 83.511719 52.820312 C 83.113281 52.679688 82.660156 52.609375 82.148438 52.609375 C 81.613281 52.609375 81.054688 52.703125 80.472656 52.890625 C 79.890625 53.078125 79.320312 53.40625 78.761719 53.871094 C 78.296875 54.269531 77.914062 54.75 77.609375 55.308594 C 77.308594 55.871094 77.15625 56.511719 77.15625 57.238281 L 77.15625 68.667969 L 74.117188 68.667969 L 74.117188 56.851562 C 74.117188 55.261719 73.839844 54.164062 73.28125 53.558594 C 72.746094 52.925781 71.964844 52.609375 70.941406 52.609375 C 69.753906 52.609375 68.636719 53.101562 67.589844 54.082031 C 67.191406 54.457031 66.808594 54.9375 66.4375 55.519531 C 66.085938 56.105469 65.914062 56.886719 65.914062 57.871094 L 65.914062 68.667969 L 62.875 68.667969 Z M 109.425781 63.582031 C 109.121094 65.335938 108.34375 66.714844 107.085938 67.71875 C 105.851562 68.726562 104.070312 69.226562 101.742188 69.226562 C 98.996094 69.226562 96.890625 68.398438 95.421875 66.738281 C 93.957031 65.054688 93.222656 62.71875 93.222656 59.726562 C 93.222656 58.160156 93.433594 56.769531 93.851562 55.554688 C 94.269531 54.339844 94.851562 53.324219 95.597656 52.503906 C 96.367188 51.6875 97.273438 51.066406 98.320312 50.648438 C 99.367188 50.203125 100.507812 49.980469 101.742188 49.980469 C 103.140625 49.980469 104.339844 50.203125 105.339844 50.648438 C 106.339844 51.089844 107.15625 51.710938 107.785156 52.503906 C 108.433594 53.277344 108.914062 54.199219 109.214844 55.273438 C 109.542969 56.351562 109.703125 57.53125 109.703125 58.816406 L 109.703125 60.359375 L 96.296875 60.359375 C 96.296875 61.269531 96.414062 62.121094 96.644531 62.917969 C 96.902344 63.6875 97.25 64.367188 97.691406 64.949219 C 98.160156 65.511719 98.730469 65.957031 99.402344 66.28125 C 100.078125 66.609375 100.859375 66.773438 101.742188 66.773438 C 103.257812 66.773438 104.363281 66.492188 105.058594 65.933594 C 105.757812 65.347656 106.234375 64.566406 106.492188 63.582031 Z M 106.667969 58.078125 C 106.667969 57.214844 106.574219 56.433594 106.386719 55.730469 C 106.199219 55.03125 105.910156 54.433594 105.515625 53.941406 C 105.117188 53.429688 104.605469 53.03125 103.976562 52.75 C 103.347656 52.46875 102.59375 52.332031 101.707031 52.332031 C 100.101562 52.332031 98.84375 52.820312 97.9375 53.800781 C 97.054688 54.785156 96.53125 56.210938 96.367188 58.078125 Z M 114.597656 50.542969 L 117.601562 50.542969 L 117.601562 53.3125 C 118.484375 52.121094 119.464844 51.265625 120.535156 50.753906 C 121.605469 50.238281 122.734375 49.980469 123.921875 49.980469 C 125.96875 49.980469 127.480469 50.542969 128.460938 51.664062 C 129.460938 52.785156 129.960938 54.433594 129.960938 56.605469 L 129.960938 68.667969 L 126.925781 68.667969 L 126.925781 57.203125 C 126.925781 55.519531 126.621094 54.339844 126.015625 53.664062 C 125.410156 52.960938 124.480469 52.609375 123.222656 52.609375 C 122.546875 52.609375 121.871094 52.726562 121.199219 52.960938 C 120.546875 53.195312 119.953125 53.570312 119.417969 54.082031 C 118.835938 54.597656 118.390625 55.148438 118.089844 55.730469 C 117.789062 56.292969 117.636719 57.027344 117.636719 57.9375 L 117.636719 68.667969 L 114.597656 68.667969 Z M 136.425781 52.960938 L 133.632812 52.960938 L 133.632812 50.542969 L 136.425781 50.542969 L 136.425781 45.601562 L 139.464844 45.601562 L 139.464844 50.542969 L 144.246094 50.542969 L 144.246094 52.960938 L 139.464844 52.960938 L 139.464844 63.582031 C 139.464844 64.472656 139.664062 65.183594 140.058594 65.722656 C 140.453125 66.257812 141.058594 66.527344 141.875 66.527344 C 142.386719 66.527344 142.828125 66.492188 143.199219 66.421875 C 143.597656 66.351562 143.957031 66.257812 144.285156 66.144531 L 144.808594 68.492188 C 144.339844 68.65625 143.828125 68.785156 143.269531 68.878906 C 142.734375 68.992188 142.09375 69.050781 141.351562 69.050781 C 140.324219 69.050781 139.5 68.898438 138.871094 68.597656 C 138.242188 68.292969 137.742188 67.859375 137.371094 67.300781 C 136.996094 66.738281 136.742188 66.074219 136.601562 65.300781 C 136.484375 64.53125 136.425781 63.6875 136.425781 62.777344 Z M 150.308594 63.371094 C 150.515625 64.636719 151.039062 65.523438 151.878906 66.039062 C 152.738281 66.527344 153.902344 66.773438 155.371094 66.773438 C 156.90625 66.773438 157.988281 66.515625 158.617188 66.003906 C 159.269531 65.464844 159.59375 64.761719 159.59375 63.898438 C 159.59375 63.546875 159.546875 63.222656 159.457031 62.917969 C 159.386719 62.589844 159.234375 62.308594 159 62.074219 C 158.769531 61.820312 158.441406 61.597656 158.023438 61.410156 C 157.605469 61.222656 157.058594 61.070312 156.382812 60.953125 L 154.078125 60.605469 C 153.054688 60.441406 152.15625 60.230469 151.390625 59.972656 C 150.621094 59.714844 149.96875 59.386719 149.433594 58.992188 C 148.898438 58.570312 148.492188 58.066406 148.210938 57.484375 C 147.957031 56.875 147.828125 56.152344 147.828125 55.308594 C 147.828125 54.46875 148.003906 53.722656 148.351562 53.066406 C 148.726562 52.414062 149.226562 51.863281 149.851562 51.417969 C 150.503906 50.953125 151.261719 50.601562 152.125 50.367188 C 153.007812 50.109375 153.960938 49.980469 154.984375 49.980469 C 156.289062 49.980469 157.371094 50.109375 158.234375 50.367188 C 159.117188 50.625 159.839844 50.976562 160.398438 51.417969 C 160.957031 51.863281 161.386719 52.390625 161.691406 52.996094 C 161.992188 53.605469 162.226562 54.246094 162.386719 54.925781 L 159.628906 55.378906 C 159.46875 54.890625 159.28125 54.457031 159.070312 54.082031 C 158.863281 53.710938 158.582031 53.40625 158.234375 53.171875 C 157.882812 52.914062 157.453125 52.726562 156.941406 52.609375 C 156.453125 52.46875 155.835938 52.402344 155.089844 52.402344 C 154.253906 52.402344 153.554688 52.480469 152.996094 52.644531 C 152.4375 52.785156 151.984375 52.984375 151.632812 53.242188 C 151.308594 53.5 151.074219 53.789062 150.9375 54.117188 C 150.796875 54.421875 150.726562 54.75 150.726562 55.101562 C 150.726562 55.472656 150.773438 55.8125 150.867188 56.117188 C 150.960938 56.398438 151.132812 56.652344 151.390625 56.886719 C 151.644531 57.097656 151.996094 57.285156 152.4375 57.449219 C 152.878906 57.613281 153.449219 57.753906 154.148438 57.871094 L 156.765625 58.289062 C 158.886719 58.640625 160.398438 59.25 161.304688 60.113281 C 162.238281 60.976562 162.703125 62.238281 162.703125 63.898438 C 162.703125 64.671875 162.550781 65.382812 162.25 66.039062 C 161.945312 66.667969 161.492188 67.230469 160.886719 67.71875 C 160.28125 68.1875 159.523438 68.550781 158.617188 68.808594 C 157.710938 69.085938 156.652344 69.226562 155.441406 69.226562 C 154.347656 69.226562 153.320312 69.121094 152.367188 68.910156 C 151.4375 68.703125 150.609375 68.375 149.886719 67.929688 C 149.167969 67.464844 148.585938 66.855469 148.144531 66.109375 C 147.699219 65.359375 147.445312 64.449219 147.375 63.371094 Z M 150.308594 63.371094 "/>
</g>
</svg>
