<?xml version="1.0" encoding="UTF-8" standalone="no"?>
<svg
   xmlns:dc="http://purl.org/dc/elements/1.1/"
   xmlns:cc="http://creativecommons.org/ns#"
   xmlns:rdf="http://www.w3.org/1999/02/22-rdf-syntax-ns#"
   xmlns:svg="http://www.w3.org/2000/svg"
   xmlns="http://www.w3.org/2000/svg"
   xmlns:sodipodi="http://sodipodi.sourceforge.net/DTD/sodipodi-0.dtd"
   xmlns:inkscape="http://www.inkscape.org/namespaces/inkscape"
   version="1.1"
   id="Layer_1"
   x="0px"
   y="0px"
   viewBox="0 0 305.91867 68.886872"
   xml:space="preserve"
   sodipodi:docname="paytaca_logo_small.svg"
   width="305.91867"
   height="68.886871"
   inkscape:version="1.0 (4035a4f, 2020-05-01)"><metadata
   id="metadata178"><rdf:RDF><cc:Work
       rdf:about=""><dc:format>image/svg+xml</dc:format><dc:type
         rdf:resource="http://purl.org/dc/dcmitype/StillImage" /><dc:title></dc:title></cc:Work></rdf:RDF></metadata><defs
   id="defs176" /><sodipodi:namedview
   inkscape:document-rotation="0"
   pagecolor="#ffffff"
   bordercolor="#666666"
   borderopacity="1"
   objecttolerance="10"
   gridtolerance="10"
   guidetolerance="10"
   inkscape:pageopacity="0"
   inkscape:pageshadow="2"
   inkscape:window-width="1440"
   inkscape:window-height="855"
   id="namedview174"
   showgrid="true"
   fit-margin-top="0"
   fit-margin-left="0"
   fit-margin-right="0"
   fit-margin-bottom="0"
   inkscape:zoom="4.2004628"
   inkscape:cx="152.95934"
   inkscape:cy="34.443436"
   inkscape:window-x="0"
   inkscape:window-y="23"
   inkscape:window-maximized="0"
   inkscape:current-layer="g171"><inkscape:grid
     type="xygrid"
     id="grid180"
     originx="-19.133019"
     originy="-20.692668" /></sodipodi:namedview>
<style
   type="text/css"
   id="style113">
	.st0{fill:#27303D;}
	.st1{fill:#2979FF;}
	.st2{fill:#FF5252;}
</style>
<g
   id="g171"
   transform="translate(-19.133019,-20.692668)">
	<g
   id="g163"
   transform="matrix(0.1920795,0,0,0.1920795,-18.348034,-29.381049)">
		<g
   id="g161">
			<g
   id="g129">
				<path
   class="st0"
   d="m 663.3,349.9 c 20,0 36.7,6.5 50.1,19.4 13.4,12.9 20.1,29.1 20.1,48.6 0,19.4 -6.7,35.6 -20.1,48.5 -13.4,12.9 -30.1,19.4 -50.1,19.4 h -42.2 v 69.9 H 587.2 V 349.9 Z m -1.5,103.9 c 10.9,0 19.9,-3.4 26.9,-10.2 7,-6.8 10.5,-15.4 10.5,-25.7 0,-10.3 -3.5,-18.9 -10.5,-25.7 -7,-6.8 -16,-10.2 -26.9,-10.2 h -40.6 v 71.7 h 40.6 z"
   id="path115" />
				<path
   class="st0"
   d="m 893.3,396.8 25.1,0.1 v 158.5 h -26.3 l -3.2,-19.2 c -7.3,7.4 -15.8,13.1 -25.7,17.1 -9.9,4.1 -20.5,6.1 -31.9,6.1 -15.5,0 -29.6,-3.6 -42.2,-10.8 -12.6,-7.2 -22.5,-17.2 -29.7,-30 -7.2,-12.8 -10.8,-26.9 -10.8,-42.5 0,-15.7 3.6,-29.9 10.8,-42.5 7.2,-12.7 17.1,-22.6 29.7,-29.8 12.6,-7.2 26.7,-10.8 42.2,-10.8 11.5,0 22.2,2.1 32.1,6.2 9.9,4.1 18.6,9.9 25.8,17.5 z m -96.6,116.6 c 9.8,9.9 22.2,14.8 37.2,14.8 14.9,0 27.3,-4.9 37.1,-14.8 9.8,-9.9 14.7,-22.3 14.7,-37.2 0,-14.9 -4.9,-27.3 -14.7,-37.2 -9.8,-9.8 -22.2,-14.8 -37.1,-14.8 -14.9,0 -27.3,4.9 -37.2,14.8 -9.9,9.9 -14.8,22.3 -14.8,37.1 0,15 5,27.4 14.8,37.3 z"
   id="path117" />
				<path
   class="st0"
   d="m 1075.1,397 h 34.7 L 1037,558.5 c -9.1,20.2 -18.4,34.2 -27.8,42.1 -9.4,7.9 -22.2,11.8 -38.2,11.8 h -16.2 v -29.3 h 13.6 c 10.3,0 17.9,-2 22.8,-6.1 4.9,-4.1 10.3,-12.6 16.2,-25.5 L 1011,544 942,397 h 35.4 l 50.4,110.6 z"
   id="path119" />
				<path
   class="st0"
   d="m 1203.6,526.1 h 18.1 v 29.6 h -24.2 c -17.4,0 -31.1,-5 -41.2,-15.1 -10,-10.1 -15.1,-23.9 -15.1,-41.4 V 425 h -28.4 v -6.3 L 1168,360 h 5.6 v 37 h 47.2 v 28 h -46.9 v 71.6 c 0,9.5 2.6,16.8 7.7,21.9 5.1,5 12.4,7.6 22,7.6 z"
   id="path121" />
				<path
   class="st0"
   d="m 1381.4,396.8 25.1,0.1 v 158.5 h -26.3 l -3.2,-19.2 c -7.3,7.4 -15.8,13.1 -25.7,17.1 -9.9,4.1 -20.5,6.1 -31.9,6.1 -15.5,0 -29.6,-3.6 -42.2,-10.8 -12.6,-7.2 -22.5,-17.2 -29.7,-30 -7.2,-12.8 -10.8,-26.9 -10.8,-42.5 0,-15.7 3.6,-29.9 10.8,-42.5 7.2,-12.7 17.1,-22.6 29.7,-29.8 12.6,-7.2 26.7,-10.8 42.2,-10.8 11.5,0 22.2,2.1 32.1,6.2 9.9,4.1 18.6,9.9 25.8,17.5 z m -96.5,116.6 c 9.8,9.9 22.2,14.8 37.2,14.8 15,0 27.3,-4.9 37.1,-14.8 9.8,-9.9 14.7,-22.3 14.7,-37.2 0,-14.9 -4.9,-27.3 -14.7,-37.2 -9.8,-9.8 -22.2,-14.8 -37.1,-14.8 -14.9,0 -27.3,4.9 -37.2,14.8 -9.9,9.9 -14.8,22.3 -14.8,37.1 0,15 4.9,27.4 14.8,37.3 z"
   id="path123" />
				<path
   class="st0"
   d="m 1521.5,559.5 c -15.5,0 -29.6,-3.6 -42.3,-10.9 -12.7,-7.3 -22.7,-17.3 -29.9,-30 -7.2,-12.7 -10.8,-26.9 -10.8,-42.5 0,-15.6 3.6,-29.7 10.8,-42.4 7.2,-12.7 17.2,-22.6 29.9,-29.8 12.7,-7.2 26.9,-10.8 42.5,-10.8 19.5,0 36.4,5.5 50.6,16.5 14.3,11 23.6,25.6 28,43.9 H 1568 c -4.2,-9.1 -10.4,-16.2 -18.7,-21.4 -8.2,-5.2 -17.5,-7.8 -27.8,-7.8 -14.3,0 -26.1,5 -35.7,14.9 -9.5,9.9 -14.3,22.3 -14.3,37 0,14.7 4.8,27.1 14.3,37.2 9.6,10 21.4,15.1 35.6,15.1 10.4,0 19.7,-2.7 27.8,-8 8.1,-5.4 14.3,-12.9 18.6,-22.5 h 32.9 c -4.4,18.6 -13.8,33.5 -28.3,44.8 -14.4,11.1 -31.3,16.7 -50.9,16.7 z"
   id="path125" />
				<path
   class="st0"
   d="m 1762.7,396.8 25.1,0.1 v 158.5 h -26.3 l -3.2,-19.2 c -7.3,7.4 -15.8,13.1 -25.7,17.1 -9.9,4.1 -20.5,6.1 -31.9,6.1 -15.5,0 -29.6,-3.6 -42.2,-10.8 -12.6,-7.2 -22.5,-17.2 -29.7,-30 -7.2,-12.8 -10.8,-26.9 -10.8,-42.5 0,-15.7 3.6,-29.9 10.8,-42.5 7.2,-12.7 17.1,-22.6 29.7,-29.8 12.6,-7.2 26.7,-10.8 42.2,-10.8 11.5,0 22.2,2.1 32.1,6.2 9.9,4.1 18.6,9.9 25.8,17.5 z m -96.6,116.6 c 9.8,9.9 22.2,14.8 37.2,14.8 14.9,0 27.3,-4.9 37.1,-14.8 9.8,-9.9 14.7,-22.3 14.7,-37.2 0,-14.9 -4.9,-27.3 -14.7,-37.2 -9.8,-9.8 -22.2,-14.8 -37.1,-14.8 -14.9,0 -27.3,4.9 -37.2,14.8 -9.9,9.9 -14.8,22.3 -14.8,37.1 0,15 5,27.4 14.8,37.3 z"
   id="path127" />
			</g>
			
		</g>
	</g>
	<g
   id="g169"
   transform="matrix(0.17099261,0,0,0.17099261,-3.4893037,-37.207559)">
		<path
   class="st1"
   d="m 213.8,486.9 46.6,24.3 v 198.9 c 0,24.2 -26.2,39.2 -47.1,27.1 L 147.8,699 c -9.6,-5.6 -15.5,-15.9 -15.5,-27.1 V 423.6 c 0,-17.2 9.4,-33 24.5,-41.1 v 0 c 14.8,-8 32.8,-7.4 47.1,1.6 l 162.3,102 -79.6,53.4 V 485 L 182.7,427.7 v 239.8 l 31.1,18.4 z"
   id="path165" />
		<path
   class="st2"
   d="m 214.8,355.9 16,-9.8 c 16.4,-10 37,-10 53.3,0.1 l 173.5,107.6 c 13.8,8.6 22.2,23.6 22.2,39.9 v 0 c 0,16.3 -8.5,31.5 -22.5,40 L 287.6,637.4 v -62.1 l 142.7,-84.5 z"
   id="path167" />
	</g>
</g>
</svg>
