<?xml version="1.0" encoding="UTF-8"?>
<svg width="284px" height="290px" viewBox="0 0 284 290" version="1.1" xmlns="http://www.w3.org/2000/svg" xmlns:xlink="http://www.w3.org/1999/xlink">
    <!-- Generator: Sketch 47.1 (45422) - http://www.bohemiancoding.com/sketch -->
    <title>avatars</title>
    <desc>Created with Sketch.</desc>
    <defs>
        <circle id="path-1" cx="40" cy="40" r="40"></circle>
        <path d="M0.186648577,21.5682293 C4.47703047,8.91929774 14.8417029,0 26.9462706,0 C39.0508383,0 49.4155107,8.91929774 53.7058926,21.5682293 L0.186648577,21.5682293 Z" id="path-3"></path>
        <rect id="path-5" x="0.233557585" y="0.162587987" width="9.85822164" height="13.9665746" rx="4.92911082"></rect>
        <circle id="path-7" cx="40" cy="40" r="40"></circle>
        <path d="M0.186648577,21.5682293 C4.47703047,8.91929774 14.8417029,0 26.9462706,0 C39.0508383,0 49.4155107,8.91929774 53.7058926,21.5682293 L0.186648577,21.5682293 Z" id="path-9"></path>
        <rect id="path-11" x="0.959183673" y="0.0298507463" width="10" height="6"></rect>
        <path d="M1.36644023,15.1692177 C0.74729228,17.9304558 0.803575339,28.4053292 2.06178419,31.7507242 C3.31999304,35.0961192 5.52300239,36.9350659 7.54671288,38.5073296 C9.57042337,40.0795933 10.8592943,41.8375047 16.0031672,41.8891505 C21.1470401,41.9407963 20.6975564,40.9707015 24.1493891,38.5073296 C27.6012219,36.0439576 28.0195828,33.8859516 29.0758113,31.7507242 C30.1320397,29.6154968 31.2160361,19.062451 30.0957354,15.1692177 C29.3488683,12.5737289 26.9439756,7.67382847 22.8810572,0.46951648 L7.54671288,0.46951648 C3.83929641,8.42849191 1.77920553,13.3283923 1.36644023,15.1692177 Z" id="path-13"></path>
        <circle id="path-15" cx="40" cy="40" r="40"></circle>
        <path d="M0.186648577,21.5682293 C4.47703047,8.91929774 14.8417029,0 26.9462706,0 C39.0508383,0 49.4155107,8.91929774 53.7058926,21.5682293 L0.186648577,21.5682293 Z" id="path-17"></path>
        <rect id="path-19" x="0.959183673" y="0.0298507463" width="10" height="6"></rect>
        <path d="M1.36644023,10.1692177 C0.74729228,12.9304558 0.803575339,23.4053292 2.06178419,26.7507242 C3.31999304,30.0961192 5.52300239,31.9350659 7.54671288,33.5073296 C9.57042337,35.0795933 10.8592943,36.8375047 16.0031672,36.8891505 C21.1470401,36.9407963 20.6975564,35.9707015 24.1493891,33.5073296 C27.6012219,31.0439576 28.0195828,28.8859516 29.0758113,26.7507242 C30.1320397,24.6154968 31.2160361,14.062451 30.0957354,10.1692177 C29.3488683,7.57372888 27.3667529,4.47771516 24.1493891,0.881176552 L7.54671288,0.881176552 C3.83929641,5.2323786 1.77920553,8.32839233 1.36644023,10.1692177 Z" id="path-21"></path>
    </defs>
    <g id="Page-1" stroke="none" stroke-width="1" fill="none" fill-rule="evenodd">
        <g id="Landing-page" transform="translate(-547.000000, -222.000000)">
            <g id="landing" transform="translate(0.000000, 75.000000)">
                <g id="artwork" transform="translate(547.000000, 147.000000)">
                    <g id="avatars">
                        <g id="girl" transform="translate(164.000000, 210.000000)">
                            <mask id="mask-2" fill="white">
                                <use xlink:href="#path-1"></use>
                            </mask>
                            <use id="bg" fill="#E9E9E9" xlink:href="#path-1"></use>
                            <g mask="url(#mask-2)">
                                <g transform="translate(13.000000, 9.000000)">
                                    <g id="hair" stroke-width="1" fill="none" transform="translate(6.612245, 0.000000)">
                                        <path d="M0.0367791318,20.554675 C0.0123742867,20.1013018 0,19.6443962 0,19.1843335 C0,19.0660485 0.000691333623,18.9483204 0.00207051932,18.8311492 C0.000621452905,18.7338524 0,18.6825572 0,18.6825572 L0.0041852266,18.6830227 C0.211680579,6.32500454 8.11606665,0.211476195 19.5830936,0.211476195 C30.621295,0.211476195 38.2652089,5.22094692 39.1455284,16.5332044 C39.1920108,17.130511 39.1455284,22.2328833 39.1455284,22.8695325 C39.1455284,22.9251861 39.1454038,22.9807227 39.1451547,23.0361422 C39.1455284,23.0361838 39.1453913,23.0387505 39.1451193,23.0438237 C39.1393497,24.2705102 39.0725638,25.4398125 38.945991,26.551258 C38.6424215,31.6897861 38.0575446,40.7494041 37.6561436,41.7058192 C36.5388715,44.3679344 32.4425886,46.5190952 27.5051344,49.8754794 C22.3011366,53.4130546 15.7477907,58.4775933 15.7477907,58.4775933 C15.7477907,58.4775933 4.63095208,49.3075624 3.98229874,47.2430073 C3.33364541,45.1784523 1.99883645,40.5066715 1.06701186,35.1738455 C0.371241035,31.1919537 0.119615173,23.9621258 0.0367791318,20.554675 Z" fill="#343434"></path>
                                    </g>
                                    <g id="dress" stroke-width="1" fill="none" transform="translate(0.000000, 51.910448)">
                                        <mask id="mask-4" fill="white">
                                            <use xlink:href="#path-3"></use>
                                        </mask>
                                        <use id="Combined-Shape" fill="#FFCA9B" xlink:href="#path-3"></use>
                                        <path d="M16.4788063,0.495679827 C15.5581779,5.13979116 15.5581779,8.1530127 16.4788063,9.53534443 C17.8597489,11.608842 24.493435,16.014059 27.2132181,16.014059 C29.9330012,16.014059 36.9759046,12.2051844 38.0614704,10.506512 C38.7851809,9.37406379 38.7851809,5.63519021 38.0614704,-0.710108706 L53.2266246,16.014059 L33.6720262,25.6720363 L14.1174278,25.6720363 L0.326758812,16.014059 L9.81452524,4.08444182 L16.4788063,0.495679827 Z" id="Path-17" fill="#5891A4" mask="url(#mask-4)"></path>
                                    </g>
                                    <g id="neck" stroke-width="1" fill="none" transform="translate(22.040816, 41.970149)">
                                        <mask id="mask-6" fill="white">
                                            <use xlink:href="#path-5"></use>
                                        </mask>
                                        <use id="Mask" fill="#FFCA9B" xlink:href="#path-5"></use>
                                        <rect id="face-copy" fill-opacity="0.169836957" fill="#BB6815" mask="url(#mask-6)" x="-13.7903553" y="-40.2818401" width="39.7849659" height="47.835518" rx="19.892483"></rect>
                                    </g>
                                    <g id="face" stroke-width="1" fill="none" transform="translate(11.020408, 5.522388)">
                                        <path d="M0.167000764,15.1692177 C-0.452147186,17.9304558 0.803575339,28.4053292 2.06178419,31.7507242 C3.31999304,35.0961192 5.52300239,36.9350659 7.54671288,38.5073296 C9.57042337,40.0795933 13.0921646,41.7497548 15.3170082,41.8522181 C17.5418519,41.9546814 20.6975564,40.9707015 24.1493891,38.5073296 C27.6012219,36.0439576 28.0195828,33.8859516 29.0758113,31.7507242 C30.1320397,29.6154968 31.9230248,19.062451 30.8027241,15.1692177 C30.055857,12.5737289 27.4153014,7.67382847 22.8810572,0.46951648 L7.54671288,0.46951648 C3.0396701,8.42849191 0.579766065,13.3283923 0.167000764,15.1692177 Z" id="Path-16" fill="#FFCA9B"></path>
                                        <polygon id="Path-15" fill="#F9B375" points="16.2549837 21.7148937 13.6558144 22.2072214 13.6558144 28.7164179 16.2549837 29.1995995"></polygon>
                                        <path d="M11.7819,33.3651642 C12.0195734,33.1284769 20.127483,32.996603 20.5290279,33.3651642 C20.9305728,33.7337255 19.7515277,37.2000918 16.155464,37.2000918 C12.5594002,37.2000918 11.5442266,33.6018516 11.7819,33.3651642 Z" id="mouth" fill="#F8866A"></path>
                                        <g id="eye" transform="translate(4.408163, 18.776119)">
                                            <path d="M2.16419429e-05,2.17409537 C-0.00736620241,1.35055669 1.87789151,1.21091782e-16 3.85715368,0 C5.83641584,0 7.71428571,1.38165028 7.71428571,2.17409537 C7.71428571,2.96654046 5.08642962,3.33419469 3.85714286,3.31252935 C2.6278561,3.29086402 0.00740948629,2.99763406 2.16419429e-05,2.17409537 Z" id="Path-14" fill="#FFFFFF"></path>
                                            <path d="M3.85714286,2.74338833 C4.77010336,2.74338833 5.51020408,2.32486957 5.51020408,1.65671642 C5.51020408,0.988563264 4.77010336,0.579035231 3.85714286,0.579035231 C2.94418235,0.579035231 2.20408163,0.926063228 2.20408163,1.65671642 C2.20408163,2.38736961 2.94418235,2.74338833 3.85714286,2.74338833 Z" id="Oval-3" fill="#989D99"></path>
                                        </g>
                                        <g id="eye-copy" transform="translate(22.448980, 20.776119) scale(-1, 1) translate(-22.448980, -20.776119) translate(18.448980, 18.776119)">
                                            <path d="M2.16419429e-05,2.17409537 C-0.00736620241,1.35055669 1.87789151,1.21091782e-16 3.85715368,0 C5.83641584,0 7.71428571,1.38165028 7.71428571,2.17409537 C7.71428571,2.96654046 5.08642962,3.33419469 3.85714286,3.31252935 C2.6278561,3.29086402 0.00740948629,2.99763406 2.16419429e-05,2.17409537 Z" id="Path-14" fill="#FFFFFF"></path>
                                            <path d="M3.85714286,2.74338833 C4.77010336,2.74338833 5.51020408,2.32486957 5.51020408,1.65671642 C5.51020408,0.988563264 4.77010336,0.579035231 3.85714286,0.579035231 C2.94418235,0.579035231 2.20408163,0.926063228 2.20408163,1.65671642 C2.20408163,2.38736961 2.94418235,2.74338833 3.85714286,2.74338833 Z" id="Oval-3" fill="#989D99"></path>
                                        </g>
                                    </g>
                                    <path d="M25.7218055,22.0839675 C26.1180221,22.0876241 26.5103977,22.0895522 26.897332,22.0895522 C34.3716396,22.0895522 44.0816327,21.3701044 44.0816327,21.3701044 C44.0816327,21.3701044 43.6912211,17.9358629 42.9688384,15.4359543 C42.2464558,12.9360456 37.9159263,7.31091205 35.4892832,5.30806479 C33.06264,3.30521753 30.5016056,5.30806478 26.8973321,5.30806479 C24.6479747,5.30806479 19.7508769,3.39606238 16.5951326,6.67162669 C13.4393882,9.94719099 12.2716271,13.3743931 11.5336099,15.4359543 C10.7955927,17.4975154 9.91836735,21.3701044 9.91836735,21.3701044 C9.91836735,21.3701044 17.3902439,21.9356825 24.2939664,22.0639119 L25.0225502,15.4359543 L25.7218055,22.0839675 Z" id="hair" fill="#343434"></path>
                                </g>
                            </g>
                        </g>
                        <g id="boy" transform="translate(204.000000, 0.000000)">
                            <mask id="mask-8" fill="white">
                                <use xlink:href="#path-7"></use>
                            </mask>
                            <use id="bg" fill="#56BAEE" xlink:href="#path-7"></use>
                            <g id="girl" mask="url(#mask-8)">
                                <g transform="translate(13.000000, 14.000000)">
                                    <g id="dress" stroke-width="1" fill="none" transform="translate(0.000000, 46.910448)">
                                        <mask id="mask-10" fill="white">
                                            <use xlink:href="#path-9"></use>
                                        </mask>
                                        <use id="Combined-Shape" fill="#D09D72" xlink:href="#path-9"></use>
                                        <path d="M21.0803071,0.21731733 L26.7766917,4.82700751 L32.6611176,0.3970583 C38.0552938,1.38973439 41.5351439,2.47436362 43.100668,3.65094601 C44.6661922,4.82752839 48.041511,8.94856607 53.2266246,16.014059 L33.6720262,25.6720363 L14.1174278,25.6720363 L0.326758812,16.014059 L9.81452524,4.08444182 L21.0803071,0.21731733 Z" id="Path-17" fill="#FFFFFF" mask="url(#mask-10)"></path>
                                    </g>
                                    <polygon id="hair" fill="#343434" points="18.3631981 40.834035 12.2006649 36.7944272 10.4069362 31.8259777 9.60285466 26.0915964 8.41602315 20.3864765 10.4069362 9.37614675 18.3631981 1.28184839 35.5512694 0.286453331 42.3584554 7.55049156 44.7786231 18.2331943 43.5837146 26.0915964 43.5837146 31.8259777 41.2541875 35.6476636 39.1682971 40.2803661 34.2772437 41.8759768"></polygon>
                                    <g id="neck" stroke-width="1" fill="none" transform="translate(21.040816, 41.970149)">
                                        <g id="face-copy" transform="translate(0.000000, -0.000000)">
                                            <mask id="mask-12" fill="white">
                                                <use xlink:href="#path-11"></use>
                                            </mask>
                                            <use id="Mask" fill="#D09D72" xlink:href="#path-11"></use>
                                            <rect fill-opacity="0.403277853" fill="#AD7852" mask="url(#mask-12)" x="-12.7903553" y="-43.2818401" width="39.7849659" height="47.835518" rx="19.892483"></rect>
                                        </g>
                                    </g>
                                    <g id="face" stroke-width="1" fill="none" transform="translate(11.020408, 2.522388)">
                                        <g id="hair">
                                            <mask id="mask-14" fill="white">
                                                <use xlink:href="#path-13"></use>
                                            </mask>
                                            <use id="Mask" fill="#D09D72" xlink:href="#path-13"></use>
                                            <path d="M-3.15588678,22.959096 L14.5568012,9.17158868 L27.8154927,11.7410527 L31.9484303,22.959096 C31.9484303,22.959096 32.6708129,12.4134749 31.9484303,9.91356619 C31.2260476,7.41365753 26.8955182,1.78852399 24.468875,-0.214323272 C22.0422318,-2.21717053 19.4811974,-0.214323282 15.8769239,-0.214323272 C13.6275665,-0.214323266 8.73046878,-2.12632568 5.57472443,1.14923863 C2.41898008,4.42480293 1.25121894,7.85200509 0.513201717,9.91356619 C-0.224815502,11.9751273 -3.15588678,22.959096 -3.15588678,22.959096 Z" fill="#343434" mask="url(#mask-14)"></path>
                                        </g>
                                        <polygon id="Path-15" fill-opacity="0.629528986" fill="#AD7A53" points="17.2549837 22.7148937 14.6558144 23.2072214 14.6558144 29.7164179 17.2549837 30.1995995"></polygon>
                                        <path d="M11.0890169,33.0809452 C11.3641633,32.8069403 20.750416,32.6542744 21.215271,33.0809452 C21.6801259,33.5076161 20.3151853,37.5205111 16.1521439,37.5205111 C11.9891025,37.5205111 10.8138704,33.3549501 11.0890169,33.0809452 Z" id="mouth" fill="#BD6147"></path>
                                        <g id="eye-copy" transform="translate(22.000000, 20.500000) scale(-1, 1) translate(-22.000000, -20.500000) translate(18.000000, 18.000000)">
                                            <path d="M0.450983613,2.83024127 C0.443595769,1.75815713 1.87789151,-2.82640719e-14 3.85715368,-2.84217094e-14 C5.83641584,-2.84217094e-14 7.39195896,1.79863483 7.39195896,2.83024127 C7.39195896,3.86184772 5.08642962,4.34046066 3.85714286,4.31225668 C2.6278561,4.28405271 0.458371457,3.90232542 0.450983613,2.83024127 Z" id="Path-14" fill="#FFFFFF"></path>
                                            <path d="M3.96938776,3.47704887 C4.79781488,3.47704887 5.46938776,3.02991966 5.46938776,2.20149254 C5.46938776,1.37306541 4.79781488,0.863407435 3.96938776,0.863407435 C3.14096063,0.863407435 2.46938776,1.37306541 2.46938776,2.20149254 C2.46938776,3.02991966 3.14096063,3.47704887 3.96938776,3.47704887 Z" id="Oval-4" fill="#989D99"></path>
                                        </g>
                                        <g id="eye-copy-2" transform="translate(10.000000, 20.500000) scale(-1, 1) translate(-10.000000, -20.500000) translate(6.000000, 18.000000)">
                                            <path d="M0.450983613,2.83024127 C0.443595769,1.75815713 1.87789151,-2.82640719e-14 3.85715368,-2.84217094e-14 C5.83641584,-2.84217094e-14 7.39195896,1.79863483 7.39195896,2.83024127 C7.39195896,3.86184772 5.08642962,4.34046066 3.85714286,4.31225668 C2.6278561,4.28405271 0.458371457,3.90232542 0.450983613,2.83024127 Z" id="Path-14" fill="#FFFFFF"></path>
                                            <path d="M3.96938776,3.47704887 C4.79781488,3.47704887 5.46938776,3.02991966 5.46938776,2.20149254 C5.46938776,1.37306541 4.79781488,0.863407435 3.96938776,0.863407435 C3.14096063,0.863407435 2.46938776,1.37306541 2.46938776,2.20149254 C2.46938776,3.02991966 3.14096063,3.47704887 3.96938776,3.47704887 Z" id="Oval-4" fill="#989D99"></path>
                                        </g>
                                    </g>
                                </g>
                            </g>
                        </g>
                        <g id="boy" transform="translate(0.000000, 61.000000)">
                            <mask id="mask-16" fill="white">
                                <use xlink:href="#path-15"></use>
                            </mask>
                            <use id="bg" fill="#E2B1D7" xlink:href="#path-15"></use>
                            <g mask="url(#mask-16)">
                                <g transform="translate(13.000000, 12.000000)">
                                    <g id="dress" stroke-width="1" fill="none" transform="translate(0.000000, 49.000000)">
                                        <mask id="mask-18" fill="white">
                                            <use xlink:href="#path-17"></use>
                                        </mask>
                                        <use id="Combined-Shape" fill="#FDC695" xlink:href="#path-17"></use>
                                        <path d="M21.0803071,0.21731733 L28.257925,4.08444182 L32.6611176,0.3970583 C38.0552938,1.38973439 41.5351439,2.47436362 43.100668,3.65094601 C44.6661922,4.82752839 48.041511,8.94856607 53.2266246,16.014059 L33.6720262,25.6720363 L14.1174278,25.6720363 L0.326758812,16.014059 L9.81452524,4.08444182 L21.0803071,0.21731733 Z" id="Path-17" fill="#FFFFFF" mask="url(#mask-18)"></path>
                                    </g>
                                    <path d="M12.4788572,30 C11.7816042,28.4624833 11.2770874,26.9501911 10.965307,25.4631232 C10.6535265,23.9760554 10.3317575,21.5472958 10,18.1768443 L10.965307,11.1849569 L14.4648326,7.0434627 L18.3802006,4.86068266 L24.5924922,3.48935354 L26.2184239,0 L28.2170009,1.9025544 L29.8049194,0.760448702 L34.786963,2.5856402 L32.1220016,3.48935354 L38.0319149,4.86068266 L36.8114582,5.53173423 L40.5436712,7.67554629 L44,13.8628595 L42.9632863,21.4437878 L41.4897939,30 L12.4788572,30 Z" id="Path-18" fill="#A5653C"></path>
                                    <g id="neck" stroke-width="1" fill="none" transform="translate(21.000000, 44.000000)">
                                        <g id="face-copy" transform="translate(0.000000, -0.000000)">
                                            <mask id="mask-20" fill="white">
                                                <use xlink:href="#path-19"></use>
                                            </mask>
                                            <use id="Mask" fill="#FDC695" xlink:href="#path-19"></use>
                                            <rect fill-opacity="0.730553668" fill="#F3AA6C" mask="url(#mask-20)" x="-12.7903553" y="-43.2818401" width="39.7849659" height="47.835518" rx="19.892483"></rect>
                                        </g>
                                    </g>
                                    <g id="face" stroke-width="1" fill="none" transform="translate(11.000000, 10.000000)">
                                        <g id="hair">
                                            <mask id="mask-22" fill="white">
                                                <use xlink:href="#path-21"></use>
                                            </mask>
                                            <use id="Mask" fill="#FDC695" xlink:href="#path-21"></use>
                                            <path d="M2.61933635,5.92730922 L16.3302119,7.64412714 L27.7726409,4.91356619 L31.9484303,9.30477539 C31.9484303,9.30477539 32.6708129,7.41347486 31.9484303,4.91356619 C31.2260476,2.41365753 26.8955182,-3.21147601 24.468875,-5.21432327 C22.0422318,-7.21717053 19.4811974,-5.21432328 15.8769239,-5.21432327 C13.6275665,-5.21432327 8.73046878,-7.12632568 5.57472443,-3.85076137 C2.41898008,-0.575197069 1.25121894,2.85200509 0.513201717,4.91356619 C-0.224815502,6.9751273 2.61933635,5.92730922 2.61933635,5.92730922 Z" fill="#A5653C" mask="url(#mask-22)"></path>
                                        </g>
                                        <polygon id="Path-15" fill="#F3AA6C" points="17.2549837 17.7148937 14.6558144 18.2072214 14.6558144 24.7164179 17.2549837 25.1995995"></polygon>
                                        <path d="M11.0890169,28.0809452 C11.3641633,27.8069403 20.750416,27.6542744 21.215271,28.0809452 C21.6801259,28.5076161 20.3151853,32.5205111 16.1521439,32.5205111 C11.9891025,32.5205111 10.8138704,28.3549501 11.0890169,28.0809452 Z" id="mouth" fill="#F88461"></path>
                                        <g id="eye-copy" transform="translate(22.000000, 15.500000) scale(-1, 1) translate(-22.000000, -15.500000) translate(18.000000, 13.000000)">
                                            <path d="M0.450983613,2.83024127 C0.443595769,1.75815713 1.87789151,-2.82640719e-14 3.85715368,-2.84217094e-14 C5.83641584,-2.84217094e-14 7.39195896,1.79863483 7.39195896,2.83024127 C7.39195896,3.86184772 5.08642962,4.34046066 3.85714286,4.31225668 C2.6278561,4.28405271 0.458371457,3.90232542 0.450983613,2.83024127 Z" id="Path-14" fill="#FFFFFF"></path>
                                            <path d="M3.96938776,3.47704887 C4.79781488,3.47704887 5.46938776,3.02991966 5.46938776,2.20149254 C5.46938776,1.37306541 4.79781488,0.863407435 3.96938776,0.863407435 C3.14096063,0.863407435 2.46938776,1.37306541 2.46938776,2.20149254 C2.46938776,3.02991966 3.14096063,3.47704887 3.96938776,3.47704887 Z" id="Oval-4" fill="#989D99"></path>
                                        </g>
                                        <g id="eye-copy-2" transform="translate(10.000000, 15.500000) scale(-1, 1) translate(-10.000000, -15.500000) translate(6.000000, 13.000000)">
                                            <path d="M0.450983613,2.83024127 C0.443595769,1.75815713 1.87789151,-2.82640719e-14 3.85715368,-2.84217094e-14 C5.83641584,-2.84217094e-14 7.39195896,1.79863483 7.39195896,2.83024127 C7.39195896,3.86184772 5.08642962,4.34046066 3.85714286,4.31225668 C2.6278561,4.28405271 0.458371457,3.90232542 0.450983613,2.83024127 Z" id="Path-14" fill="#FFFFFF"></path>
                                            <path d="M3.96938776,3.47704887 C4.79781488,3.47704887 5.46938776,3.02991966 5.46938776,2.20149254 C5.46938776,1.37306541 4.79781488,0.863407435 3.96938776,0.863407435 C3.14096063,0.863407435 2.46938776,1.37306541 2.46938776,2.20149254 C2.46938776,3.02991966 3.14096063,3.47704887 3.96938776,3.47704887 Z" id="Oval-4" fill="#989D99"></path>
                                        </g>
                                    </g>
                                </g>
                            </g>
                        </g>
                    </g>
                </g>
            </g>
        </g>
    </g>
</svg>