<?xml version="1.0" encoding="UTF-8"?>
<svg width="243px" height="33px" viewBox="0 0 243 33" version="1.1" xmlns="http://www.w3.org/2000/svg" xmlns:xlink="http://www.w3.org/1999/xlink">
    <!-- Generator: Sketch 47.1 (45422) - http://www.bohemiancoding.com/sketch -->
    <title>logotype</title>
    <desc>Created with Sketch.</desc>
    <defs></defs>
    <g id="Page-1" stroke="none" stroke-width="1" fill="none" fill-rule="evenodd">
        <g id="Landing-page" transform="translate(-94.000000, -100.000000)" fill="#FFFFFF">
            <g id="header" transform="translate(94.000000, 93.000000)">
                <g id="logotype" transform="translate(0.000000, 7.000000)">
                    <path d="M74.084,11.668 C75.2360058,11.668 76.2319958,11.871998 77.072,12.28 C77.9120042,12.688002 78.6079972,13.2399965 79.16,13.936 C79.7120028,14.6320035 80.1199987,15.4479953 80.384,16.384 C80.6480013,17.3200047 80.78,18.3279946 80.78,19.408 C80.78,21.0640083 80.4740031,22.6299926 79.862,24.106 C79.2499969,25.5820074 78.4160053,26.8659945 77.36,27.958 C76.3039947,29.0500055 75.0560072,29.9139968 73.616,30.55 C72.1759928,31.1860032 70.6160084,31.504 68.936,31.504 C68.7199989,31.504 68.3420027,31.4980001 67.802,31.486 C67.2619973,31.4739999 66.6440035,31.4200005 65.948,31.324 C65.2519965,31.2279995 64.5140039,31.084001 63.734,30.892 C62.9539961,30.699999 62.2160035,30.4360017 61.52,30.1 L67.748,3.928 L73.328,3.064 L71.096,12.352 C71.5760024,12.1359989 72.0559976,11.9680006 72.536,11.848 C73.0160024,11.7279994 73.5319972,11.668 74.084,11.668 Z M69.404,27.076 C70.2440042,27.076 71.0359963,26.872002 71.78,26.464 C72.5240037,26.055998 73.1659973,25.5100034 73.706,24.826 C74.2460027,24.1419966 74.6719984,23.3680043 74.984,22.504 C75.2960016,21.6399957 75.452,20.7400047 75.452,19.804 C75.452,18.6519942 75.2600019,17.7520032 74.876,17.104 C74.4919981,16.4559968 73.7840052,16.132 72.752,16.132 C72.4159983,16.132 71.9780027,16.1919994 71.438,16.312 C70.8979973,16.4320006 70.4120022,16.6839981 69.98,17.068 L67.604,26.932 C67.7480007,26.9560001 67.8739995,26.9799999 67.982,27.004 C68.0900005,27.0280001 68.2039994,27.0459999 68.324,27.058 C68.4440006,27.0700001 68.5879992,27.076 68.756,27.076 L69.404,27.076 Z M87.548,31 L82.22,31 L86.72,12.064 L92.084,12.064 L87.548,31 Z M90.14,9.76 C89.3959963,9.76 88.724003,9.53800222 88.124,9.094 C87.523997,8.64999778 87.224,7.97200456 87.224,7.06 C87.224,6.55599748 87.325999,6.08200222 87.53,5.638 C87.734001,5.19399778 88.0039983,4.81000162 88.34,4.486 C88.6760017,4.16199838 89.0659978,3.90400096 89.51,3.712 C89.9540022,3.51999904 90.4279975,3.424 90.932,3.424 C91.6760037,3.424 92.347997,3.64599778 92.948,4.09 C93.548003,4.53400222 93.848,5.21199544 93.848,6.124 C93.848,6.62800252 93.746001,7.10199778 93.542,7.546 C93.337999,7.99000222 93.0680017,8.37399838 92.732,8.698 C92.3959983,9.02200162 92.0060022,9.27999904 91.562,9.472 C91.1179978,9.66400096 90.6440025,9.76 90.14,9.76 Z M97.556,7.348 L103.136,6.484 L101.768,12.064 L107.744,12.064 L106.664,16.456 L100.724,16.456 L99.14,23.08 C98.9959993,23.6320028 98.9060002,24.1479976 98.87,24.628 C98.8339998,25.1080024 98.8939992,25.5219983 99.05,25.87 C99.2060008,26.2180017 99.4759981,26.487999 99.86,26.68 C100.244002,26.872001 100.771997,26.968 101.444,26.968 C102.020003,26.968 102.577997,26.9140005 103.118,26.806 C103.658003,26.6979995 104.203997,26.548001 104.756,26.356 L105.152,30.46 C104.431996,30.7240013 103.652004,30.951999 102.812,31.144 C101.971996,31.336001 100.976006,31.432 99.824,31.432 C98.1679917,31.432 96.8840046,31.1860025 95.972,30.694 C95.0599954,30.2019975 94.4120019,29.5300043 94.028,28.678 C93.6439981,27.8259957 93.4759998,26.8480055 93.524,25.744 C93.5720002,24.6399945 93.7399986,23.4760061 94.028,22.252 L97.556,7.348 Z M107.924,23.44 C107.924,21.8079918 108.187997,20.2720072 108.716,18.832 C109.244003,17.3919928 109.999995,16.1320054 110.984,15.052 C111.968005,13.9719946 113.161993,13.1200031 114.566,12.496 C115.970007,11.8719969 117.535991,11.56 119.264,11.56 C120.344005,11.56 121.309996,11.661999 122.162,11.866 C123.014004,12.070001 123.787997,12.3399983 124.484,12.676 L122.648,16.852 C122.167998,16.659999 121.670003,16.4860008 121.154,16.33 C120.637997,16.1739992 120.008004,16.096 119.264,16.096 C117.463991,16.096 116.048005,16.7019939 115.016,17.914 C113.983995,19.1260061 113.468,20.7759896 113.468,22.864 C113.468,24.0880061 113.731997,25.0779962 114.26,25.834 C114.788003,26.5900038 115.759993,26.968 117.176,26.968 C117.872003,26.968 118.543997,26.8960007 119.192,26.752 C119.840003,26.6079993 120.415997,26.4280011 120.92,26.212 L121.316,30.496 C120.643997,30.7600013 119.906004,30.993999 119.102,31.198 C118.297996,31.402001 117.320006,31.504 116.168,31.504 C114.679993,31.504 113.420005,31.2880022 112.388,30.856 C111.355995,30.4239978 110.504003,29.8420037 109.832,29.11 C109.159997,28.3779963 108.674002,27.5200049 108.374,26.536 C108.073999,25.5519951 107.924,24.5200054 107.924,23.44 Z M131.792,31.504 C130.519994,31.504 129.416005,31.3120019 128.48,30.928 C127.543995,30.5439981 126.770003,30.0040035 126.158,29.308 C125.545997,28.6119965 125.084002,27.7900047 124.772,26.842 C124.459998,25.8939953 124.304,24.8440058 124.304,23.692 C124.304,22.2519928 124.537998,20.8120072 125.006,19.372 C125.474002,17.9319928 126.163995,16.6360058 127.076,15.484 C127.988005,14.3319942 129.103993,13.3900037 130.424,12.658 C131.744007,11.9259963 133.255991,11.56 134.96,11.56 C136.208006,11.56 137.305995,11.7519981 138.254,12.136 C139.202005,12.5200019 139.981997,13.0599965 140.594,13.756 C141.206003,14.4520035 141.667998,15.2739953 141.98,16.222 C142.292002,17.1700047 142.448,18.2199942 142.448,19.372 C142.448,20.8120072 142.220002,22.2519928 141.764,23.692 C141.307998,25.1320072 140.636004,26.4279942 139.748,27.58 C138.859996,28.7320058 137.750007,29.6739963 136.418,30.406 C135.085993,31.1380037 133.544009,31.504 131.792,31.504 Z M134.456,16.096 C133.663996,16.096 132.968003,16.3239977 132.368,16.78 C131.767997,17.2360023 131.264002,17.8119965 130.856,18.508 C130.447998,19.2040035 130.142001,19.9659959 129.938,20.794 C129.733999,21.6220041 129.632,22.4079963 129.632,23.152 C129.632,24.3760061 129.823998,25.3179967 130.208,25.978 C130.592002,26.6380033 131.287995,26.968 132.296,26.968 C133.088004,26.968 133.783997,26.7400023 134.384,26.284 C134.984003,25.8279977 135.487998,25.2520035 135.896,24.556 C136.304002,23.8599965 136.609999,23.0980041 136.814,22.27 C137.018001,21.4419959 137.12,20.6560037 137.12,19.912 C137.12,18.6879939 136.928002,17.7460033 136.544,17.086 C136.159998,16.4259967 135.464005,16.096 134.456,16.096 Z M149.216,31 L143.888,31 L148.388,12.064 L153.752,12.064 L149.216,31 Z M151.808,9.76 C151.063996,9.76 150.392003,9.53800222 149.792,9.094 C149.191997,8.64999778 148.892,7.97200456 148.892,7.06 C148.892,6.55599748 148.993999,6.08200222 149.198,5.638 C149.402001,5.19399778 149.671998,4.81000162 150.008,4.486 C150.344002,4.16199838 150.733998,3.90400096 151.178,3.712 C151.622002,3.51999904 152.095997,3.424 152.6,3.424 C153.344004,3.424 154.015997,3.64599778 154.616,4.09 C155.216003,4.53400222 155.516,5.21199544 155.516,6.124 C155.516,6.62800252 155.414001,7.10199778 155.21,7.546 C155.005999,7.99000222 154.736002,8.37399838 154.4,8.698 C154.063998,9.02200162 153.674002,9.27999904 153.23,9.472 C152.785998,9.66400096 152.312003,9.76 151.808,9.76 Z M158.432,12.928 C158.840002,12.8079994 159.289998,12.6700008 159.782,12.514 C160.274002,12.3579992 160.825997,12.2140007 161.438,12.082 C162.050003,11.9499993 162.733996,11.8420004 163.49,11.758 C164.246004,11.6739996 165.103995,11.632 166.064,11.632 C168.896014,11.632 170.839995,12.4479918 171.896,14.08 C172.952005,15.7120082 173.132003,17.9439858 172.436,20.776 L169.988,31 L164.624,31 L167,20.992 C167.144001,20.3679969 167.258,19.7620029 167.342,19.174 C167.426,18.5859971 167.42,18.0700022 167.324,17.626 C167.228,17.1819978 167.006002,16.8220014 166.658,16.546 C166.309998,16.2699986 165.776004,16.132 165.056,16.132 C164.359997,16.132 163.652004,16.2039993 162.932,16.348 L159.44,31 L154.076,31 L158.432,12.928 Z" id="bitcoin"></path>
                    <path d="M175.568,24.304 C175.568,22.6719918 175.813998,21.1000076 176.306,19.588 C176.798002,18.0759924 177.523995,16.7440058 178.484,15.592 C179.444005,14.4399942 180.619993,13.5220034 182.012,12.838 C183.404007,12.1539966 184.999991,11.812 186.8,11.812 C187.592004,11.812 188.347996,11.8659995 189.068,11.974 C189.788004,12.0820005 190.471997,12.2919984 191.12,12.604 L189.86,15.412 C189.475998,15.1959989 189.026003,15.0280006 188.51,14.908 C187.993997,14.7879994 187.328004,14.728 186.512,14.728 C185.335994,14.728 184.280005,14.9859974 183.344,15.502 C182.407995,16.0180026 181.610003,16.7019957 180.95,17.554 C180.289997,18.4060043 179.786002,19.3899944 179.438,20.506 C179.089998,21.6220056 178.916,22.779994 178.916,23.98 C178.916,24.6040031 178.981999,25.1919972 179.114,25.744 C179.246001,26.2960028 179.479998,26.7819979 179.816,27.202 C180.152002,27.6220021 180.601997,27.9519988 181.166,28.192 C181.730003,28.4320012 182.443996,28.552 183.308,28.552 C183.740002,28.552 184.195998,28.5100004 184.676,28.426 C185.156002,28.3419996 185.599998,28.2400006 186.008,28.12 C186.416002,27.9999994 186.781998,27.8740007 187.106,27.742 C187.430002,27.6099993 187.663999,27.4840006 187.808,27.364 L188.096,30.208 C187.639998,30.4960014 186.932005,30.7779986 185.972,31.054 C185.011995,31.3300014 183.920006,31.468 182.696,31.468 C181.543994,31.468 180.524004,31.2940017 179.636,30.946 C178.747996,30.5979983 178.004003,30.1060032 177.404,29.47 C176.803997,28.8339968 176.348002,28.0780044 176.036,27.202 C175.723998,26.3259956 175.568,25.3600053 175.568,24.304 Z M203.432,31.216 C203.311999,30.9519987 203.192001,30.6580016 203.072,30.334 C202.951999,30.0099984 202.856,29.6680018 202.784,29.308 C202.255997,29.7880024 201.548004,30.2679976 200.66,30.748 C199.771996,31.2280024 198.680006,31.468 197.384,31.468 C196.327995,31.468 195.422004,31.3000017 194.666,30.964 C193.909996,30.6279983 193.292002,30.160003 192.812,29.56 C192.331998,28.959997 191.978001,28.2520041 191.75,27.436 C191.521999,26.6199959 191.408,25.7200049 191.408,24.736 C191.408,23.127992 191.677997,21.5560077 192.218,20.02 C192.758003,18.4839923 193.567995,17.116006 194.648,15.916 C195.728005,14.715994 197.083992,13.7440037 198.716,13 C200.348008,12.2559963 202.255989,11.884 204.44,11.884 C205.088003,11.884 205.843996,11.9559993 206.708,12.1 C207.572004,12.2440007 208.315997,12.4839983 208.94,12.82 L206.168,24.124 C206.047999,24.6760028 205.946,25.2039975 205.862,25.708 C205.778,26.2120025 205.736,26.7399972 205.736,27.292 C205.736,27.8440028 205.784,28.4019972 205.88,28.966 C205.976,29.5300028 206.143999,30.1359968 206.384,30.784 L203.432,31.216 Z M198.068,28.624 C199.076005,28.624 199.939996,28.4080022 200.66,27.976 C201.380004,27.5439978 202.003997,27.0400029 202.532,26.464 C202.556,26.055998 202.598,25.6300022 202.658,25.186 C202.718,24.7419978 202.796,24.2920023 202.892,23.836 L205.052,14.908 C204.931999,14.8599998 204.734001,14.8240001 204.458,14.8 C204.181999,14.7759999 203.936001,14.764 203.72,14.764 C202.351993,14.764 201.116006,15.0279974 200.012,15.556 C198.907994,16.0840026 197.966004,16.7859956 197.186,17.662 C196.405996,18.5380044 195.806002,19.5579942 195.386,20.722 C194.965998,21.8860058 194.756,23.1039936 194.756,24.376 C194.756,24.8800025 194.804,25.3899974 194.9,25.906 C194.996,26.4220026 195.169999,26.877998 195.422,27.274 C195.674001,27.670002 196.009998,27.9939987 196.43,28.246 C196.850002,28.4980013 197.395997,28.624 198.068,28.624 Z M214.88,28.66 C215.384003,28.66 215.893997,28.6120005 216.41,28.516 C216.926003,28.4199995 217.381998,28.2640011 217.778,28.048 C218.174002,27.8319989 218.497999,27.5380019 218.75,27.166 C219.002001,26.7939981 219.128,26.3320028 219.128,25.78 C219.128,25.4199982 219.068001,25.1020014 218.948,24.826 C218.827999,24.5499986 218.636001,24.2920012 218.372,24.052 C218.107999,23.8119988 217.778002,23.5780011 217.382,23.35 C216.985998,23.1219989 216.512003,22.8640014 215.96,22.576 C215.407997,22.3119987 214.904002,22.0480013 214.448,21.784 C213.991998,21.5199987 213.590002,21.2080018 213.242,20.848 C212.893998,20.4879982 212.624001,20.0620025 212.432,19.57 C212.239999,19.0779975 212.144,18.4840035 212.144,17.788 C212.144,15.987991 212.791994,14.5420055 214.088,13.45 C215.384006,12.3579945 217.267988,11.812 219.74,11.812 C220.892006,11.812 221.905996,11.9259989 222.782,12.154 C223.658004,12.3820011 224.263998,12.591999 224.6,12.784 L223.34,15.52 C223.003998,15.327999 222.464004,15.1240011 221.72,14.908 C220.975996,14.6919989 220.148005,14.584 219.236,14.584 C218.779998,14.584 218.324002,14.6319995 217.868,14.728 C217.411998,14.8240005 216.998002,14.9859989 216.626,15.214 C216.253998,15.4420011 215.954001,15.7419981 215.726,16.114 C215.497999,16.4860019 215.384,16.9359974 215.384,17.464 C215.384,18.1120032 215.635997,18.6459979 216.14,19.066 C216.644003,19.4860021 217.399995,19.9239977 218.408,20.38 C219.032003,20.6680014 219.589998,20.9619985 220.082,21.262 C220.574002,21.5620015 220.993998,21.8979981 221.342,22.27 C221.690002,22.6420019 221.953999,23.0799975 222.134,23.584 C222.314001,24.0880025 222.404,24.6879965 222.404,25.384 C222.404,26.392005 222.212002,27.2799962 221.828,28.048 C221.443998,28.8160038 220.910003,29.4519975 220.226,29.956 C219.541997,30.4600025 218.732005,30.8379987 217.796,31.09 C216.859995,31.3420013 215.840006,31.468 214.736,31.468 C213.919996,31.468 213.182003,31.4140005 212.522,31.306 C211.861997,31.1979995 211.286002,31.0720007 210.794,30.928 C210.301998,30.7839993 209.894002,30.6340008 209.57,30.478 C209.245998,30.3219992 209.000001,30.1960005 208.832,30.1 L210.128,27.364 C210.296001,27.4600005 210.529998,27.5799993 210.83,27.724 C211.130001,27.8680007 211.489998,28.0119993 211.91,28.156 C212.330002,28.3000007 212.791997,28.4199995 213.296,28.516 C213.800003,28.6120005 214.327997,28.66 214.88,28.66 Z M225.032,31 L231.62,3.64 L235.112,3.064 L232.808,12.532 C233.360003,12.339999 233.941997,12.1840006 234.554,12.064 C235.166003,11.9439994 235.783997,11.884 236.408,11.884 C237.488005,11.884 238.417996,12.0339985 239.198,12.334 C239.978004,12.6340015 240.607998,13.0419974 241.088,13.558 C241.568002,14.0740026 241.921999,14.6979963 242.15,15.43 C242.378001,16.1620037 242.492,16.9599957 242.492,17.824 C242.492,18.8800053 242.324002,20.0799933 241.988,21.424 L239.684,31 L236.336,31 L238.46,22.144 C238.628001,21.4719966 238.789999,20.7880035 238.946,20.092 C239.102001,19.3959965 239.18,18.7360031 239.18,18.112 C239.18,17.1519952 238.916003,16.3540032 238.388,15.718 C237.859997,15.0819968 236.876007,14.764 235.436,14.764 C234.859997,14.764 234.266003,14.8179995 233.654,14.926 C233.041997,15.0340005 232.532002,15.183999 232.124,15.376 L228.38,31 L225.032,31 Z" id="cash" opacity="0.669723732"></path>
                    <g id="logomark" fill-rule="nonzero">
                        <path d="M15.5301299,-6.13464834e-12 C10.2332931,3.62753361 6.76280835,9.68753569 6.76280835,16.5507692 C6.76280835,23.3503613 10.1692292,29.3615493 15.3832527,33 L0,33 L0,0 L15.5301299,0 Z M38.5723368,0 L54,0 L54,33 L38.7192141,33 C43.9332376,29.3615493 47.3396584,23.3503613 47.3396584,16.5507692 C47.3396584,9.68753569 43.8691737,3.62753361 38.5723368,-6.13464834e-12 Z M43.1539935,20.4285014 C40.9366705,29.2405733 31.9288608,34.6034821 23.0341481,32.40599 C14.1430668,30.2090119 8.73049535,21.2833387 10.9488559,12.4717808 C13.1651413,3.6586808 22.172951,-1.70474208 31.0650698,0.492236012 C39.9592638,2.6892141 45.3713165,11.6159154 43.1539935,20.4285014 L43.1539935,20.4285014 Z M32.5102106,10.6235988 C31.7751715,8.53726877 29.7381179,8.28872828 27.3392641,8.67586559 L26.6069965,5.70959611 L24.7877126,6.16788173 L25.5007316,9.05595755 C25.0224701,9.17644764 24.535892,9.30892275 24.0525445,9.4408436 L23.3351835,6.53355112 L21.5168158,6.99134963 L22.248143,9.95695558 C21.8562189,10.0641182 21.4711899,10.168778 21.0940681,10.2639977 L21.0915596,10.2548597 L18.5820428,10.8858391 L19.0585303,12.8141066 C19.0585303,12.8141066 20.3957645,12.4504005 20.3794935,12.4805773 C21.1164748,12.2952441 21.4611228,12.6594328 21.6213258,13.0082484 L22.4556256,16.3874241 C22.506545,16.3748939 22.5734011,16.3602894 22.6510351,16.3515895 C22.5904478,16.3669332 22.5254725,16.3828647 22.458906,16.400224 L23.6269935,21.1342918 C23.6514677,21.3726013 23.6057269,21.7739061 23.0910842,21.9044322 C23.1194153,21.9190383 21.7684815,22.237088 21.7684815,22.237088 L21.9392624,24.4843974 L24.3068461,23.8881617 C24.747569,23.7777412 25.1829164,23.6759966 25.6091738,23.5715222 L26.3504866,26.5713789 L28.1679381,26.1140675 L27.435164,23.1457403 C27.9366924,23.0303319 28.4205719,22.9126723 28.8919139,22.7935343 L29.6204673,25.7483981 L31.4397511,25.2901125 L30.7010911,22.2952448 C33.7167677,21.3509214 35.6687811,20.0471506 35.2309772,17.1296752 C34.8790206,14.7803165 33.5382392,14.0300825 31.6998359,14.0534835 C32.6230732,13.2548357 33.0507145,12.1495707 32.5102106,10.6235988 L32.5102106,10.6235988 Z M31.5602458,17.6834272 C32.1146683,19.9251328 28.1835974,20.6440992 26.9508753,20.9557258 L25.9701603,16.980716 C27.2036058,16.6704501 30.9831731,15.3449747 31.5602458,17.6834272 Z M29.3055006,12.292748 C29.8084254,14.3326199 26.5237098,14.9068768 25.4966905,15.1655605 L24.6069121,11.5604883 C25.6339315,11.3018045 28.7801196,10.1653344 29.3055006,12.292748 Z" id="Combined-Shape"></path>
                    </g>
                </g>
            </g>
        </g>
    </g>
</svg>