<?xml version="1.0" encoding="UTF-8"?>
<svg width="218px" height="30px" viewBox="0 0 218 30" version="1.1" xmlns="http://www.w3.org/2000/svg" xmlns:xlink="http://www.w3.org/1999/xlink">
    <!-- Generator: Sketch 47.1 (45422) - http://www.bohemiancoding.com/sketch -->
    <title>logotype </title>
    <desc>Created with Sketch.</desc>
    <defs></defs>
    <g id="Page-1" stroke="none" stroke-width="1" fill="none" fill-rule="evenodd">
        <g id="Landing-page" transform="translate(-94.000000, -98.000000)" fill="#FFFFFF">
            <g id="header" transform="translate(94.000000, 93.000000)">
                <g id="logotype-">
                    <path d="M150.076,27.304 C150.076,25.6719918 150.321998,24.1000076 150.814,22.588 C151.306002,21.0759924 152.031995,19.7440058 152.992,18.592 C153.952005,17.4399942 155.127993,16.5220034 156.52,15.838 C157.912007,15.1539966 159.507991,14.812 161.308,14.812 C162.100004,14.812 162.855996,14.8659995 163.576,14.974 C164.296004,15.0820005 164.979997,15.2919984 165.628,15.604 L164.368,18.412 C163.983998,18.1959989 163.534003,18.0280006 163.018,17.908 C162.501997,17.7879994 161.836004,17.728 161.02,17.728 C159.843994,17.728 158.788005,17.9859974 157.852,18.502 C156.915995,19.0180026 156.118003,19.7019957 155.458,20.554 C154.797997,21.4060043 154.294002,22.3899944 153.946,23.506 C153.597998,24.6220056 153.424,25.779994 153.424,26.98 C153.424,27.6040031 153.489999,28.1919972 153.622,28.744 C153.754001,29.2960028 153.987998,29.7819979 154.324,30.202 C154.660002,30.6220021 155.109997,30.9519988 155.674,31.192 C156.238003,31.4320012 156.951996,31.552 157.816,31.552 C158.248002,31.552 158.703998,31.5100004 159.184,31.426 C159.664002,31.3419996 160.107998,31.2400006 160.516,31.12 C160.924002,30.9999994 161.289998,30.8740007 161.614,30.742 C161.938002,30.6099993 162.171999,30.4840006 162.316,30.364 L162.604,33.208 C162.147998,33.4960014 161.440005,33.7779986 160.48,34.054 C159.519995,34.3300014 158.428006,34.468 157.204,34.468 C156.051994,34.468 155.032004,34.2940017 154.144,33.946 C153.255996,33.5979983 152.512003,33.1060032 151.912,32.47 C151.311997,31.8339968 150.856002,31.0780044 150.544,30.202 C150.231998,29.3259956 150.076,28.3600053 150.076,27.304 Z M178.264,34.216 C178.143999,33.9519987 178.024001,33.6580016 177.904,33.334 C177.783999,33.0099984 177.688,32.6680018 177.616,32.308 C177.087997,32.7880024 176.380004,33.2679976 175.492,33.748 C174.603996,34.2280024 173.512006,34.468 172.216,34.468 C171.159995,34.468 170.254004,34.3000017 169.498,33.964 C168.741996,33.6279983 168.124002,33.160003 167.644,32.56 C167.163998,31.959997 166.810001,31.2520041 166.582,30.436 C166.353999,29.6199959 166.24,28.7200049 166.24,27.736 C166.24,26.127992 166.509997,24.5560077 167.05,23.02 C167.590003,21.4839923 168.399995,20.116006 169.48,18.916 C170.560005,17.715994 171.915992,16.7440037 173.548,16 C175.180008,15.2559963 177.087989,14.884 179.272,14.884 C179.920003,14.884 180.675996,14.9559993 181.54,15.1 C182.404004,15.2440007 183.147997,15.4839983 183.772,15.82 L181,27.124 C180.879999,27.6760028 180.778,28.2039975 180.694,28.708 C180.61,29.2120025 180.568,29.7399972 180.568,30.292 C180.568,30.8440028 180.616,31.4019972 180.712,31.966 C180.808,32.5300028 180.975999,33.1359968 181.216,33.784 L178.264,34.216 Z M172.9,31.624 C173.908005,31.624 174.771996,31.4080022 175.492,30.976 C176.212004,30.5439978 176.835997,30.0400029 177.364,29.464 C177.388,29.055998 177.43,28.6300022 177.49,28.186 C177.55,27.7419978 177.628,27.2920023 177.724,26.836 L179.884,17.908 C179.763999,17.8599998 179.566001,17.8240001 179.29,17.8 C179.013999,17.7759999 178.768001,17.764 178.552,17.764 C177.183993,17.764 175.948006,18.0279974 174.844,18.556 C173.739994,19.0840026 172.798004,19.7859956 172.018,20.662 C171.237996,21.5380044 170.638002,22.5579942 170.218,23.722 C169.797998,24.8860058 169.588,26.1039936 169.588,27.376 C169.588,27.8800025 169.636,28.3899974 169.732,28.906 C169.828,29.4220026 170.001999,29.877998 170.254,30.274 C170.506001,30.670002 170.841998,30.9939987 171.262,31.246 C171.682002,31.4980013 172.227997,31.624 172.9,31.624 Z M189.712,31.66 C190.216003,31.66 190.725997,31.6120005 191.242,31.516 C191.758003,31.4199995 192.213998,31.2640011 192.61,31.048 C193.006002,30.8319989 193.329999,30.5380019 193.582,30.166 C193.834001,29.7939981 193.96,29.3320028 193.96,28.78 C193.96,28.4199982 193.900001,28.1020014 193.78,27.826 C193.659999,27.5499986 193.468001,27.2920012 193.204,27.052 C192.939999,26.8119988 192.610002,26.5780011 192.214,26.35 C191.817998,26.1219989 191.344003,25.8640014 190.792,25.576 C190.239997,25.3119987 189.736002,25.0480013 189.28,24.784 C188.823998,24.5199987 188.422002,24.2080018 188.074,23.848 C187.725998,23.4879982 187.456001,23.0620025 187.264,22.57 C187.071999,22.0779975 186.976,21.4840035 186.976,20.788 C186.976,18.987991 187.623994,17.5420055 188.92,16.45 C190.216006,15.3579945 192.099988,14.812 194.572,14.812 C195.724006,14.812 196.737996,14.9259989 197.614,15.154 C198.490004,15.3820011 199.095998,15.591999 199.432,15.784 L198.172,18.52 C197.835998,18.327999 197.296004,18.1240011 196.552,17.908 C195.807996,17.6919989 194.980005,17.584 194.068,17.584 C193.611998,17.584 193.156002,17.6319995 192.7,17.728 C192.243998,17.8240005 191.830002,17.9859989 191.458,18.214 C191.085998,18.4420011 190.786001,18.7419981 190.558,19.114 C190.329999,19.4860019 190.216,19.9359974 190.216,20.464 C190.216,21.1120032 190.467997,21.6459979 190.972,22.066 C191.476003,22.4860021 192.231995,22.9239977 193.24,23.38 C193.864003,23.6680014 194.421998,23.9619985 194.914,24.262 C195.406002,24.5620015 195.825998,24.8979981 196.174,25.27 C196.522002,25.6420019 196.785999,26.0799975 196.966,26.584 C197.146001,27.0880025 197.236,27.6879965 197.236,28.384 C197.236,29.392005 197.044002,30.2799962 196.66,31.048 C196.275998,31.8160038 195.742003,32.4519975 195.058,32.956 C194.373997,33.4600025 193.564005,33.8379987 192.628,34.09 C191.691995,34.3420013 190.672006,34.468 189.568,34.468 C188.751996,34.468 188.014003,34.4140005 187.354,34.306 C186.693997,34.1979995 186.118002,34.0720007 185.626,33.928 C185.133998,33.7839993 184.726002,33.6340008 184.402,33.478 C184.077998,33.3219992 183.832001,33.1960005 183.664,33.1 L184.96,30.364 C185.128001,30.4600005 185.361998,30.5799993 185.662,30.724 C185.962001,30.8680007 186.321998,31.0119993 186.742,31.156 C187.162002,31.3000007 187.623997,31.4199995 188.128,31.516 C188.632003,31.6120005 189.159997,31.66 189.712,31.66 Z M199.864,34 L206.452,6.64 L209.944,6.064 L207.64,15.532 C208.192003,15.339999 208.773997,15.1840006 209.386,15.064 C209.998003,14.9439994 210.615997,14.884 211.24,14.884 C212.320005,14.884 213.249996,15.0339985 214.03,15.334 C214.810004,15.6340015 215.439998,16.0419974 215.92,16.558 C216.400002,17.0740026 216.753999,17.6979963 216.982,18.43 C217.210001,19.1620037 217.324,19.9599957 217.324,20.824 C217.324,21.8800053 217.156002,23.0799933 216.82,24.424 L214.516,34 L211.168,34 L213.292,25.144 C213.460001,24.4719966 213.621999,23.7880035 213.778,23.092 C213.934001,22.3959965 214.012,21.7360031 214.012,21.112 C214.012,20.1519952 213.748003,19.3540032 213.22,18.718 C212.691997,18.0819968 211.708007,17.764 210.268,17.764 C209.691997,17.764 209.098003,17.8179995 208.486,17.926 C207.873997,18.0340005 207.364002,18.183999 206.956,18.376 L203.212,34 L199.864,34 Z" id="cash" fill-opacity="0.6"></path>
                    <path d="M47.084,14.668 C48.2360058,14.668 49.2319958,14.871998 50.072,15.28 C50.9120042,15.688002 51.6079972,16.2399965 52.16,16.936 C52.7120028,17.6320035 53.1199987,18.4479953 53.384,19.384 C53.6480013,20.3200047 53.78,21.3279946 53.78,22.408 C53.78,24.0640083 53.4740031,25.6299926 52.862,27.106 C52.2499969,28.5820074 51.4160053,29.8659945 50.36,30.958 C49.3039947,32.0500055 48.0560072,32.9139968 46.616,33.55 C45.1759928,34.1860032 43.6160084,34.504 41.936,34.504 C41.7199989,34.504 41.3420027,34.4980001 40.802,34.486 C40.2619973,34.4739999 39.6440035,34.4200005 38.948,34.324 C38.2519965,34.2279995 37.5140039,34.084001 36.734,33.892 C35.9539961,33.699999 35.2160035,33.4360017 34.52,33.1 L40.748,6.928 L46.328,6.064 L44.096,15.352 C44.5760024,15.1359989 45.0559976,14.9680006 45.536,14.848 C46.0160024,14.7279994 46.5319972,14.668 47.084,14.668 Z M42.404,30.076 C43.2440042,30.076 44.0359963,29.872002 44.78,29.464 C45.5240037,29.055998 46.1659973,28.5100034 46.706,27.826 C47.2460027,27.1419966 47.6719984,26.3680043 47.984,25.504 C48.2960016,24.6399957 48.452,23.7400047 48.452,22.804 C48.452,21.6519942 48.2600019,20.7520032 47.876,20.104 C47.4919981,19.4559968 46.7840052,19.132 45.752,19.132 C45.4159983,19.132 44.9780027,19.1919994 44.438,19.312 C43.8979973,19.4320006 43.4120022,19.6839981 42.98,20.068 L40.604,29.932 C40.7480007,29.9560001 40.8739995,29.9799999 40.982,30.004 C41.0900005,30.0280001 41.2039994,30.0459999 41.324,30.058 C41.4440006,30.0700001 41.5879992,30.076 41.756,30.076 L42.404,30.076 Z M60.548,34 L55.22,34 L59.72,15.064 L65.084,15.064 L60.548,34 Z M63.14,12.76 C62.3959963,12.76 61.724003,12.5380022 61.124,12.094 C60.523997,11.6499978 60.224,10.9720046 60.224,10.06 C60.224,9.55599748 60.325999,9.08200222 60.53,8.638 C60.734001,8.19399778 61.0039983,7.81000162 61.34,7.486 C61.6760017,7.16199838 62.0659978,6.90400096 62.51,6.712 C62.9540022,6.51999904 63.4279975,6.424 63.932,6.424 C64.6760037,6.424 65.347997,6.64599778 65.948,7.09 C66.548003,7.53400222 66.848,8.21199544 66.848,9.124 C66.848,9.62800252 66.746001,10.1019978 66.542,10.546 C66.337999,10.9900022 66.0680017,11.3739984 65.732,11.698 C65.3959983,12.0220016 65.0060022,12.279999 64.562,12.472 C64.1179978,12.664001 63.6440025,12.76 63.14,12.76 Z M70.556,10.348 L76.136,9.484 L74.768,15.064 L80.744,15.064 L79.664,19.456 L73.724,19.456 L72.14,26.08 C71.9959993,26.6320028 71.9060002,27.1479976 71.87,27.628 C71.8339998,28.1080024 71.8939992,28.5219983 72.05,28.87 C72.2060008,29.2180017 72.4759981,29.487999 72.86,29.68 C73.2440019,29.872001 73.7719966,29.968 74.444,29.968 C75.0200029,29.968 75.5779973,29.9140005 76.118,29.806 C76.6580027,29.6979995 77.2039972,29.548001 77.756,29.356 L78.152,33.46 C77.4319964,33.7240013 76.6520042,33.951999 75.812,34.144 C74.9719958,34.336001 73.9760058,34.432 72.824,34.432 C71.1679917,34.432 69.8840046,34.1860025 68.972,33.694 C68.0599954,33.2019975 67.4120019,32.5300043 67.028,31.678 C66.6439981,30.8259957 66.4759998,29.8480055 66.524,28.744 C66.5720002,27.6399945 66.7399986,26.4760061 67.028,25.252 L70.556,10.348 Z M81.464,26.44 C81.464,24.8079918 81.7279974,23.2720072 82.256,21.832 C82.7840026,20.3919928 83.5399951,19.1320054 84.524,18.052 C85.5080049,16.9719946 86.701993,16.1200031 88.106,15.496 C89.510007,14.8719969 91.0759914,14.56 92.804,14.56 C93.8840054,14.56 94.8499957,14.661999 95.702,14.866 C96.5540043,15.070001 97.3279965,15.3399983 98.024,15.676 L96.188,19.852 C95.7079976,19.659999 95.2100026,19.4860008 94.694,19.33 C94.1779974,19.1739992 93.5480037,19.096 92.804,19.096 C91.003991,19.096 89.5880052,19.7019939 88.556,20.914 C87.5239948,22.1260061 87.008,23.7759896 87.008,25.864 C87.008,27.0880061 87.2719974,28.0779962 87.8,28.834 C88.3280026,29.5900038 89.2999929,29.968 90.716,29.968 C91.4120035,29.968 92.0839968,29.8960007 92.732,29.752 C93.3800032,29.6079993 93.9559975,29.4280011 94.46,29.212 L94.856,33.496 C94.1839966,33.7600013 93.446004,33.993999 92.642,34.198 C91.837996,34.402001 90.8600058,34.504 89.708,34.504 C88.2199926,34.504 86.9600052,34.2880022 85.928,33.856 C84.8959948,33.4239978 84.0440034,32.8420037 83.372,32.11 C82.6999966,31.3779963 82.2140015,30.5200049 81.914,29.536 C81.6139985,28.5519951 81.464,27.5200054 81.464,26.44 Z M106.232,34.504 C104.959994,34.504 103.856005,34.3120019 102.92,33.928 C101.983995,33.5439981 101.210003,33.0040035 100.598,32.308 C99.9859969,31.6119965 99.5240016,30.7900047 99.212,29.842 C98.8999984,28.8939953 98.744,27.8440058 98.744,26.692 C98.744,25.2519928 98.9779977,23.8120072 99.446,22.372 C99.9140023,20.9319928 100.603995,19.6360058 101.516,18.484 C102.428005,17.3319942 103.543993,16.3900037 104.864,15.658 C106.184007,14.9259963 107.695991,14.56 109.4,14.56 C110.648006,14.56 111.745995,14.7519981 112.694,15.136 C113.642005,15.5200019 114.421997,16.0599965 115.034,16.756 C115.646003,17.4520035 116.107998,18.2739953 116.42,19.222 C116.732002,20.1700047 116.888,21.2199942 116.888,22.372 C116.888,23.8120072 116.660002,25.2519928 116.204,26.692 C115.747998,28.1320072 115.076004,29.4279942 114.188,30.58 C113.299996,31.7320058 112.190007,32.6739963 110.858,33.406 C109.525993,34.1380037 107.984009,34.504 106.232,34.504 Z M108.896,19.096 C108.103996,19.096 107.408003,19.3239977 106.808,19.78 C106.207997,20.2360023 105.704002,20.8119965 105.296,21.508 C104.887998,22.2040035 104.582001,22.9659959 104.378,23.794 C104.173999,24.6220041 104.072,25.4079963 104.072,26.152 C104.072,27.3760061 104.263998,28.3179967 104.648,28.978 C105.032002,29.6380033 105.727995,29.968 106.736,29.968 C107.528004,29.968 108.223997,29.7400023 108.824,29.284 C109.424003,28.8279977 109.927998,28.2520035 110.336,27.556 C110.744002,26.8599965 111.049999,26.0980041 111.254,25.27 C111.458001,24.4419959 111.56,23.6560037 111.56,22.912 C111.56,21.6879939 111.368002,20.7460033 110.984,20.086 C110.599998,19.4259967 109.904005,19.096 108.896,19.096 Z M123.656,34 L118.328,34 L122.828,15.064 L128.192,15.064 L123.656,34 Z M126.248,12.76 C125.503996,12.76 124.832003,12.5380022 124.232,12.094 C123.631997,11.6499978 123.332,10.9720046 123.332,10.06 C123.332,9.55599748 123.433999,9.08200222 123.638,8.638 C123.842001,8.19399778 124.111998,7.81000162 124.448,7.486 C124.784002,7.16199838 125.173998,6.90400096 125.618,6.712 C126.062002,6.51999904 126.535997,6.424 127.04,6.424 C127.784004,6.424 128.455997,6.64599778 129.056,7.09 C129.656003,7.53400222 129.956,8.21199544 129.956,9.124 C129.956,9.62800252 129.854001,10.1019978 129.65,10.546 C129.445999,10.9900022 129.176002,11.3739984 128.84,11.698 C128.503998,12.0220016 128.114002,12.279999 127.67,12.472 C127.225998,12.664001 126.752003,12.76 126.248,12.76 Z M132.872,15.928 C133.280002,15.8079994 133.729998,15.6700008 134.222,15.514 C134.714002,15.3579992 135.265997,15.2140007 135.878,15.082 C136.490003,14.9499993 137.173996,14.8420004 137.93,14.758 C138.686004,14.6739996 139.543995,14.632 140.504,14.632 C143.336014,14.632 145.279995,15.4479918 146.336,17.08 C147.392005,18.7120082 147.572003,20.9439858 146.876,23.776 L144.428,34 L139.064,34 L141.44,23.992 C141.584001,23.3679969 141.698,22.7620029 141.782,22.174 C141.866,21.5859971 141.86,21.0700022 141.764,20.626 C141.668,20.1819978 141.446002,19.8220014 141.098,19.546 C140.749998,19.2699986 140.216004,19.132 139.496,19.132 C138.799997,19.132 138.092004,19.2039993 137.372,19.348 L133.88,34 L128.516,34 L132.872,15.928 Z" id="bitcoin"></path>
                    <path d="M29.5473438,23.6285399 C27.5439421,31.6641774 19.4051814,36.5545588 11.3686064,34.5506883 C3.3353125,32.5472867 -1.55506881,24.4080572 0.449270355,16.3728884 C2.45173455,8.33631332 10.5904953,3.44546327 18.6247266,5.44886495 C26.6608329,7.45226662 31.5507455,15.5924336 29.5473438,23.6285399 Z M21.6115482,17.863018 C21.9101366,15.8671162 20.3904763,14.7941666 18.3125447,14.0783981 L18.9865951,11.3746965 L17.3408433,10.9645476 L16.6846051,13.5970005 C16.2519565,13.4891899 15.8075895,13.387473 15.3660349,13.2866936 L16.0269606,10.6368972 L14.3821462,10.2267483 L13.707627,12.9295124 C13.3495084,12.8479514 12.9979522,12.7673278 12.6567083,12.6824856 L12.6585833,12.6740483 L10.3889364,12.1073396 L9.95113171,13.8651207 C9.95113171,13.8651207 11.1722036,14.1449595 11.1464228,14.1623029 C11.8129734,14.3287062 11.93344,14.769792 11.9132841,15.1194733 L11.1454853,18.1995745 C11.191422,18.211293 11.2509522,18.2281677 11.316576,18.2544172 C11.2617333,18.2408237 11.2031406,18.225824 11.1426729,18.211293 L10.0664421,22.5260596 C9.9848811,22.728556 9.77816605,23.0323005 9.31223688,22.9169901 C9.32864284,22.9408959 8.11600827,22.6184017 8.11600827,22.6184017 L7.29899163,24.5022743 L9.44067208,25.036171 C9.83910246,25.1360129 10.2295642,25.2405423 10.6139324,25.338978 L9.93285078,28.0736166 L11.5767276,28.4837656 L12.2512468,25.7781889 C12.7003013,25.9000618 13.136231,26.0125598 13.5627859,26.1184954 L12.8906104,28.811416 L14.5363622,29.2215649 L15.2174438,26.4920824 C18.0237999,27.0231667 20.1340746,26.8089518 21.02234,24.2707159 C21.7381084,22.2270024 20.9867156,21.0481173 19.5101795,20.279381 C20.5854728,20.0314167 21.3954583,19.3240856 21.6115482,17.863018 L21.6115482,17.863018 Z M17.8513029,23.1358924 C17.3427183,25.1796059 13.9016861,24.0747819 12.786081,23.7977556 L13.6898149,20.1748516 C14.8054199,20.4532842 18.3828559,21.0045243 17.8513029,23.1358924 Z M18.3603563,17.8334873 C17.8963021,19.6925165 15.0322909,18.7480021 14.103245,18.5164438 L14.9226053,15.230565 C15.8516512,15.4621234 18.843629,15.8943032 18.3603563,17.8334873 Z" id="logomark" fill-rule="nonzero"></path>
                </g>
            </g>
        </g>
    </g>
</svg>