<?xml version="1.0" encoding="UTF-8"?>
<svg width="801px" height="240px" viewBox="0 0 801 240" version="1.1" xmlns="http://www.w3.org/2000/svg" xmlns:xlink="http://www.w3.org/1999/xlink">
    <!-- Generator: Sketch 47.1 (45422) - http://www.bohemiancoding.com/sketch -->
    <title>artowkr</title>
    <desc>Created with Sketch.</desc>
    <defs></defs>
    <g id="Page-1" stroke="none" stroke-width="1" fill="none" fill-rule="evenodd">
        <g id="Landing-page" transform="translate(-121.000000, -2378.000000)">
            <g id="features" transform="translate(-1.000000, 998.000000)">
                <g id="decentralized" transform="translate(122.000000, 1195.000000)">
                    <g id="artowkr" transform="translate(0.000000, 185.000000)">
                        <path d="M17.5352461,19.5118172 C33.5102195,15.3416979 70.9658581,34.5442175 71.4571211,45.2149422 C71.9483842,55.8856669 20.8067266,68.6394023 6.9766524,62.0469735 C-6.85342176,55.4545446 1.56027281,23.6819366 17.5352461,19.5118172 Z M294.722746,15.2930672 C295.553986,7.84183804 379.67641,-3.83988649 391.306228,1.5867773 C402.936047,7.01344109 400.064041,26.9902951 391.306228,35.3805714 C382.548416,43.7708478 351.990699,55.9140186 339.639276,51.9524304 C327.287854,47.9908423 335.133705,36.0586738 320.310878,25.0024003 C305.48805,13.9461267 293.891506,22.7442964 294.722746,15.2930672 Z M680.043059,141.945411 C693.119319,143.017405 736.808684,151.361707 736.808684,157.14463 C736.808684,162.927552 695.503994,163.369578 680.043059,161.976661 C664.582123,160.583743 658.267495,155.973568 657.902434,150.67588 C657.537373,145.378192 666.966798,140.873417 680.043059,141.945411 Z M189.113371,29.2657235 C225.549406,27.2989602 233.6967,22.0250479 240.207121,22.5508797 C246.717543,23.0767116 261.087287,32.6510666 260.703215,36.6446297 C260.319143,40.6381928 244.638244,42.9265019 244.828215,47.742286 C245.018186,52.55807 262.574309,65.9434445 267.878996,64.086036 C273.183684,62.2286275 262.574309,33.9454701 267.878996,29.2657235 C273.183684,24.5859768 287.769621,24.8806212 296.918059,29.2657235 C306.066496,33.6508258 317.642168,50.8096222 317.711027,64.086036 C317.779887,77.3624497 289.889561,93.1918149 283.175871,96.367286 C276.462182,99.542757 260.601905,101.396724 255.435633,102.97306 C240.769415,107.448026 232.562524,107.416274 233.448384,111.540168 C234.334244,115.664063 268.011339,127.742286 273.183684,127.742286 C278.356028,129.592411 279.120634,127.742286 287.769621,127.742286 C296.418608,127.742286 356.439399,148.564857 360.192233,157.018057 C363.945067,165.471257 344.781892,181.412637 336.315827,188.121491 C315.470903,204.639857 297.785794,210.774268 296.918059,214.910255 C295.087816,223.633952 309.694854,233.156348 307.957121,237.64463 C306.219388,242.132911 302.185866,238.598714 296.918059,237.64463 C291.650251,236.690545 285.83199,237.550497 283.175871,233.156348 C280.519752,228.7622 282.389588,224.002652 283.175871,214.910255 C283.962154,205.817857 289.525469,184.242813 287.769621,180.035255 C286.013774,175.827696 278.008313,176.363167 273.183684,170.308692 C268.359054,164.254218 267.878996,162.689258 267.878996,155.074317 C267.878996,147.459376 275.174928,142.288008 273.183684,139.972755 C271.192439,137.657501 242.632016,134.91464 219.535246,121.980567 C196.438476,109.046494 184.764002,94.8281686 181.378996,88.5625985 C177.993991,82.2970284 178.972957,75.507911 175.730559,69.7969735 C172.48816,64.086036 135.951911,50.8096222 129.934002,50.8096222 C123.916093,50.8096222 116.106115,57.5485198 106.390715,58.0196297 C96.6753143,58.4907396 83.9043972,52.7400395 81.4493086,47.742286 C78.9942201,42.7445324 81.9664257,39.1106504 85.6914961,36.6446297 C89.4165666,34.178609 100.230516,30.3771889 115.808684,29.2657235 C131.386851,28.154258 152.677336,31.2324868 189.113371,29.2657235 Z M468.987559,215.006415 C455.182871,210.503383 457.888695,172.334354 455.53134,163.265723 C453.173985,154.197093 452.943936,147.782121 447.839934,145.351661 C442.735931,142.921201 431.049229,149.787468 418.457121,145.351661 C405.865014,140.915854 406.664146,139.007098 402.386809,129.339942 C398.109472,119.672786 398.506904,118.095463 402.386809,109.031348 C404.973412,102.988605 410.330183,97.2438138 418.457121,91.7969735 C417.291101,84.2631193 417.291101,79.1159839 418.457121,76.3555672 C420.206151,72.2149422 424.577047,71.6092056 434.148527,67.6680672 C443.720008,63.7269288 444.378506,62.7000041 455.53134,61.0899422 C466.684174,59.4798803 476.768017,62.915989 479.714934,61.0899422 C482.66185,59.2638954 482.320992,50.437657 479.714934,48.7930672 C477.108875,47.1484774 473.383626,55.7372258 463.860729,57.4824809 C454.337833,59.227736 440.925257,60.7498006 441.050871,55.8790047 C441.176485,51.0082088 470.107507,33.7227547 479.714934,33.7227547 C489.322361,33.7227547 494.072587,36.742235 513.660246,37.836036 C533.247905,38.9298369 541.327968,39.7340144 553.37509,37.836036 C565.422212,35.9380575 628.164141,19.2536475 640.753996,19.1719735 C653.343851,19.0902995 710.812462,32.5732679 720.543059,33.7227547 C730.273655,34.8722415 796.1926,32.7999934 799.976652,37.836036 C803.760705,42.8720785 790.519065,51.9897862 784.714934,55.8790047 C778.910802,59.7682232 762.280046,73.5440019 757.289152,72.2149422 C752.298258,70.8858825 762.901742,55.8790047 757.289152,55.8790047 C751.676563,55.8790047 726.813703,66.6486682 720.543059,72.2149422 C714.272414,77.7812162 690.343411,105.236306 677.816496,117.01963 C665.289581,128.802954 650.60785,136.240795 648.945402,139.562598 C647.282955,142.884402 651.41108,153.2457 643.352635,152.796254 C635.294189,152.346808 630.21259,123.975675 625.308684,123.011817 C620.404777,122.04796 605.221368,126.108325 601.181731,129.339942 C597.142093,132.571559 595.639151,140.663932 588.546965,139.562598 C581.454779,138.461265 581.687717,123.784472 569.472746,117.01963 C557.257775,110.254788 534.959157,104.977634 533.418059,109.031348 C531.87696,113.085063 557.213612,117.765635 553.37509,123.011817 C549.536567,128.258 518.558684,125.507107 518.558684,129.339942 C518.558684,133.172777 545.793059,129.084978 545.793059,139.562598 C545.793059,150.040219 520.79686,157.323712 518.558684,163.265723 C516.320507,169.207735 516.910421,165.732715 513.660246,177.523536 C510.410071,189.314357 508.642286,193.959442 500.651435,202.641281 C492.660584,211.323121 482.792246,219.509447 468.987559,215.006415 Z M712.015715,169.539161 C732.069448,171.902616 743.73894,185.75692 745.097746,193.291114 C746.456552,200.825308 737.592161,213.573078 730.027434,217.043067 C722.462707,220.513057 717.122988,209.509114 706.56259,207.61338 C696.002191,205.717646 679.334723,204.140579 671.293059,199.554786 C663.251395,194.968992 663.947458,187.936814 665.402434,183.898536 C666.857409,179.860258 691.961982,167.175706 712.015715,169.539161 Z M420.023527,50.8633797 C426.554113,48.0972878 434.543531,56.4376922 432.621184,60.2247078 C430.698837,64.0117235 413.711138,71.9576549 410.519621,69.586036 C407.328104,67.214417 413.492942,53.6294716 420.023527,50.8633797 Z" id="Combined-Shape" fill-opacity="0.182065217" fill="#C5DCCF"></path>
                        <path d="M383.140159,106.394355 C379.333682,121.662123 363.86998,130.953881 348.600431,127.146513 C333.337117,123.340036 324.045358,107.875444 327.853617,92.608567 C331.658313,77.3390185 347.122015,68.0463694 362.38711,71.8528465 C377.655768,75.6593237 386.946636,91.1256975 383.140159,106.394355 Z M368.062092,95.4398237 C368.629412,91.6475963 365.742047,89.6089847 361.793962,88.2490197 L363.074663,83.1119677 L359.947723,82.3326819 L358.700866,87.3343608 C357.878831,87.1295199 357.03453,86.9362571 356.195573,86.7447754 L357.451337,81.7101439 L354.326178,80.9308581 L353.044587,86.0661288 C352.364159,85.9111623 351.6962,85.7579769 351.047834,85.5967761 L351.051396,85.5807451 L346.739051,84.5039948 L345.907219,87.843791 C345.907219,87.843791 348.227265,88.3754866 348.178281,88.4084393 C349.444732,88.7246066 349.673619,89.5626728 349.635323,90.2270697 L348.1765,96.0792833 C348.26378,96.1015486 348.376888,96.1336107 348.501573,96.183485 C348.397372,96.1576572 348.286045,96.1291576 348.171156,96.1015486 L346.12631,104.299635 C345.971344,104.68438 345.578584,105.261497 344.693315,105.042406 C344.724486,105.087827 342.420472,104.475086 342.420472,104.475086 L340.868135,108.054457 L344.937343,109.068864 C345.694363,109.258565 346.436243,109.457171 347.166545,109.6442 L345.872486,114.840032 L348.995863,115.619318 L350.277454,110.478704 C351.130661,110.710263 351.95893,110.92401 352.769388,111.125288 L351.492249,116.241856 L354.619189,117.021142 L355.913249,111.835106 C361.245345,112.84417 365.254882,112.43716 366.942592,107.614494 C368.302557,103.731425 366.874906,101.491534 364.069477,100.03093 C366.112542,99.5597963 367.65152,98.2158623 368.062092,95.4398237 L368.062092,95.4398237 Z M360.9176,105.458322 C359.951285,109.341392 353.4133,107.242218 351.293643,106.715866 L353.010743,99.8323237 C355.130401,100.361347 361.927554,101.408708 360.9176,105.458322 Z M361.884805,95.3837151 C361.003099,98.9158836 355.561457,97.1212998 353.796264,96.6813373 L355.353054,90.4381448 C357.118248,90.8781073 362.803026,91.6992518 361.884805,95.3837151 L361.884805,95.3837151 Z" id="logomark" fill="#46A971" fill-rule="nonzero"></path>
                    </g>
                </g>
            </g>
        </g>
    </g>
</svg>