<?xml version="1.0" encoding="UTF-8"?>
<svg width="25px" height="25px" viewBox="0 0 25 25" version="1.1" xmlns="http://www.w3.org/2000/svg" xmlns:xlink="http://www.w3.org/1999/xlink">
    <!-- Generator: Sketch 47.1 (45422) - http://www.bohemiancoding.com/sketch -->
    <title>github</title>
    <desc>Created with Sketch.</desc>
    <defs></defs>
    <g id="Page-1" stroke="none" stroke-width="1" fill="none" fill-rule="evenodd" opacity="0.799026268">
        <g id="Landing-page" transform="translate(-841.000000, -2767.000000)" fill="#809084">
            <g id="social" transform="translate(801.000000, 2767.000000)">
                <path d="M40.0508475,13.2090308 C40.0508475,18.6896627 43.5883941,23.3376019 48.4952544,24.9772374 C49.1124826,25.0907985 49.3378237,24.7077478 49.3378237,24.3807266 C49.3378237,24.0854871 49.3265133,23.1074759 49.3204842,22.071909 C45.8869505,22.8213203 45.1611997,20.6093978 45.1611997,20.6093978 C44.5990045,19.1771664 43.7903425,18.7956418 43.7903425,18.7956418 C42.668195,18.0265365 43.8754725,18.0416764 43.8754725,18.0416764 C45.1151861,18.1279615 45.767865,19.3194812 45.767865,19.3194812 C46.8696827,21.2149925 48.6587859,20.6669293 49.3611681,20.3489921 C49.4734046,19.5496071 49.7929433,19.0015439 50.1449423,18.6926907 C47.4039996,18.3793075 44.5206271,17.3149627 44.5206271,12.5625463 C44.5206271,11.2075161 45.0022021,10.10233 45.790486,9.2340526 C45.6646239,8.91914337 45.2395771,7.65722938 45.9125618,5.95022753 C45.9125618,5.95022753 46.9480601,5.61715045 49.308402,7.22197637 C50.2926295,6.94567985 51.3484818,6.80942105 52.398281,6.80486698 C53.4473325,6.80942105 54.5039084,6.94718173 55.4896792,7.22347825 C57.8455355,5.61715045 58.882529,5.95172941 58.882529,5.95172941 C59.5577806,7.66025736 59.1327339,8.92064524 59.0061242,9.2340526 C59.7974226,10.10233 60.2752355,11.2075403 60.2752355,12.5625463 C60.2752355,17.3270746 57.3873291,18.3762553 54.6365953,18.6836067 C55.0812485,19.0681594 55.4746307,19.8221247 55.4746307,20.9788106 C55.4746307,22.6366382 55.4580388,23.9734763 55.4580388,24.3822527 C55.4580388,24.7123018 55.6826082,25.0983563 56.3081324,24.9772374 C61.2112547,23.3345739 64.7457627,18.6866347 64.7457627,13.2090308 C64.7457627,6.35975488 59.2171403,0.806451613 52.3983051,0.806451613 C45.5794698,0.806451613 40.0508475,6.35975488 40.0508475,13.2090308 Z" id="github"></path>
            </g>
        </g>
    </g>
</svg>