<?xml version="1.0" encoding="UTF-8"?>
<svg width="24px" height="25px" viewBox="0 0 24 25" version="1.1" xmlns="http://www.w3.org/2000/svg" xmlns:xlink="http://www.w3.org/1999/xlink">
    <!-- Generator: Sketch 47.1 (45422) - http://www.bohemiancoding.com/sketch -->
    <title>reddit</title>
    <desc>Created with Sketch.</desc>
    <defs></defs>
    <g id="Page-1" stroke="none" stroke-width="1" fill="none" fill-rule="evenodd" opacity="0.799026268">
        <g id="Landing-page" transform="translate(-881.000000, -2767.000000)" fill-rule="nonzero" fill="#809084">
            <g id="social" transform="translate(801.000000, 2767.000000)">
                <path d="M92.0508475,25 C85.4515127,25 80.1016949,19.5840897 80.1016949,12.9032258 C80.1016949,6.2223619 85.4515127,0.806451613 92.0508475,0.806451613 C98.6501822,0.806451613 104,6.2223619 104,12.9032258 C104,19.5840897 98.6501822,25 92.0508475,25 Z M100.016676,13.0129723 C99.9809971,12.0257366 99.1722703,11.2548396 98.2059608,11.2883568 C97.7778113,11.303592 97.3704747,11.4833664 97.0612557,11.7850217 C95.6995025,10.8343503 94.0998886,10.3133092 92.4556758,10.2767449 L93.2316967,6.45272997 L95.7916736,7.00424128 C95.8630318,7.67763356 96.4517373,8.16515738 97.1088278,8.0920288 C97.7659183,8.01890023 98.2416399,7.41558951 98.1702817,6.74219723 C98.0989234,6.06880496 97.5102179,5.58128114 96.8531275,5.65440971 C96.4755234,5.69402102 96.1365718,5.91950079 95.9492564,6.25467341 L93.0176219,5.65440971 C92.8184135,5.60870436 92.6192051,5.73667936 92.5746062,5.94387698 C92.5746062,5.946924 92.5746062,5.946924 92.5746062,5.94997103 L91.6915479,10.2036163 C90.0265223,10.2310396 88.4060955,10.7551277 87.0265029,11.7118932 C86.3248135,11.0354539 85.2187607,11.0689711 84.558697,11.7911158 C83.8986332,12.5102134 83.9313391,13.6437063 84.6360017,14.3201456 C84.7727717,14.4511676 84.9303545,14.5639075 85.1057768,14.6431301 C85.0938838,14.8229045 85.0938838,15.0026789 85.1057768,15.1824533 C85.1057768,17.9278218 88.2276999,20.1612903 92.0780718,20.1612903 C95.9284436,20.1612903 99.0503667,17.9308689 99.0503667,15.1824533 C99.0622597,15.0026789 99.0622597,14.8229045 99.0503667,14.6431301 C99.6509652,14.3353807 100.028569,13.7015997 100.016676,13.0129723 Z M88.0552508,14.240923 C88.0552508,13.5644837 88.5934109,13.0129723 89.2534747,13.0129723 C89.9135384,13.0129723 90.4516985,13.5644837 90.4516985,14.240923 C90.4516985,14.9173623 89.9135384,15.4688736 89.2534747,15.4688736 C88.5904377,15.4627795 88.0552508,14.9173623 88.0552508,14.240923 Z M95.0037597,17.6109313 C94.1534073,18.2660415 93.1127663,18.6012141 92.0483391,18.5555087 C90.983912,18.6012141 89.943271,18.2660415 89.0929186,17.6109313 C88.9799347,17.4707683 89.0007476,17.2605236 89.1375175,17.1447367 C89.2564479,17.0441849 89.4259237,17.0441849 89.5478274,17.1447367 C90.2673564,17.6840599 91.1444681,17.9582921 92.0364461,17.9156337 C92.9284241,17.9643861 93.8085091,17.7023421 94.5369578,17.1691129 C94.6677813,17.0380909 94.881856,17.0411379 95.0097062,17.1752069 C95.1375564,17.309276 95.1345831,17.5286617 95.0037597,17.6596837 L95.0037597,17.6109313 Z M94.789685,15.5115319 C94.1296212,15.5115319 93.5914611,14.9600206 93.5914611,14.2835813 C93.5914611,13.607142 94.1296212,13.0556307 94.789685,13.0556307 C95.4497487,13.0556307 95.9879088,13.607142 95.9879088,14.2835813 C96.0146681,14.9600206 95.5002941,15.5298141 94.8402304,15.5572373 C94.8194176,15.5572373 94.801578,15.5572373 94.7807652,15.5572373 L94.789685,15.5115319 Z" id="reddit"></path>
            </g>
        </g>
    </g>
</svg>