<?xml version="1.0" encoding="UTF-8"?>
<svg width="25px" height="25px" viewBox="0 0 25 25" version="1.1" xmlns="http://www.w3.org/2000/svg" xmlns:xlink="http://www.w3.org/1999/xlink">
    <!-- Generator: Sketch 47.1 (45422) - http://www.bohemiancoding.com/sketch -->
    <title>twitter</title>
    <desc>Created with Sketch.</desc>
    <defs></defs>
    <g id="Page-1" stroke="none" stroke-width="1" fill="none" fill-rule="evenodd" opacity="0.799026268">
        <g id="Landing-page" transform="translate(-801.000000, -2767.000000)" fill="#809084">
            <g id="social" transform="translate(801.000000, 2767.000000)">
                <path d="M12.6525424,25 C5.83322983,25 0.305084746,19.4035594 0.305084746,12.5 C0.305084746,5.59644063 5.83322983,0 12.6525424,0 C19.4718549,0 25,5.59644063 25,12.5 C25,19.4035594 19.4718549,25 12.6525424,25 Z M12.7342809,10.4382119 C8.62328986,10.3728033 6.39237791,7.17473778 6.39237791,7.17473778 C5.16552313,9.78528523 7.23692113,11.3683384 7.23708423,11.368504 C6.77485258,11.4175191 5.94629338,11.0421235 5.94629338,11.0421235 C5.91448845,13.440714 8.36819801,14.2898664 8.36819801,14.2898664 C8.1452373,14.3221567 7.09371739,14.3221567 7.09371739,14.3221567 C7.63554291,16.2802743 9.92990162,16.4761688 9.92990162,16.4761688 C7.69898967,18.1729833 5.46856703,17.879721 5.46856703,17.879721 C7.66751094,19.5763699 9.84639329,19.3973656 11.3320913,19.1847464 C14.9852544,18.6623057 16.9408499,15.9542249 16.9408499,15.9542249 C19.5222685,12.5925552 18.6615781,9.75299492 19.0973872,9.58094552 C19.5243888,9.38405742 20.5100154,8.12109228 20.5100154,8.12109228 C19.8094914,8.51288139 18.8212552,8.5145373 18.8212552,8.5145373 C19.9042538,7.79818917 20.000321,6.81590135 20.000321,6.81590135 C19.6496513,7.30538935 18.0881108,7.5663613 18.0881108,7.5663613 C16.7498572,5.96724575 14.7422322,6.81590135 14.7422322,6.81590135 C12.3839374,7.66439137 12.7342809,10.4382119 12.7342809,10.4382119 Z" id="twitter"></path>
            </g>
        </g>
    </g>
</svg>